archivonarrow-italic-otf.ufo
<glyph name="exclam" format="1">
  <advance width="228"/>
  <unicode hex="0021"/>
  <outline>
    <contour>
      <point x="128" y="686" type="line"/>
      <point x="114" y="515"/>
      <point x="96" y="342"/>
      <point x="80" y="171" type="curve"/>
      <point x="142" y="171" type="line"/>
      <point x="177" y="352"/>
      <point x="228" y="629"/>
      <point x="241" y="686" type="curve"/>
    </contour>
    <contour>
      <point x="153" y="108" type="line"/>
      <point x="53" y="108" type="line"/>
      <point x="38" y="0" type="line"/>
      <point x="138" y="0" type="line"/>
    </contour>
  </outline>
</glyph>
<glyph name="quotedbl" format="1">
  <advance width="291"/>
  <unicode hex="0022"/>
  <outline>
    <contour>
      <point x="178" y="686" type="line"/>
      <point x="96" y="686" type="line"/>
      <point x="75" y="539" type="line"/>
      <point x="79" y="407" type="line"/>
      <point x="118" y="407" type="line"/>
      <point x="157" y="539" type="line"/>
    </contour>
    <contour>
      <point x="311" y="686" type="line"/>
      <point x="229" y="686" type="line"/>
      <point x="208" y="539" type="line"/>
      <point x="211" y="407" type="line"/>
      <point x="250" y="407" type="line"/>
      <point x="290" y="539" type="line"/>
    </contour>
  </outline>
</glyph>
<glyph name="numbersign" format="1">
  <advance width="456"/>
  <unicode hex="0023"/>
  <outline>
    <contour>
      <point x="438" y="696" type="line"/>
      <point x="362" y="696" type="line"/>
      <point x="315" y="486" type="line"/>
      <point x="225" y="486" type="line"/>
      <point x="272" y="696" type="line"/>
      <point x="196" y="696" type="line"/>
      <point x="149" y="486" type="line"/>
      <point x="56" y="486" type="line"/>
      <point x="56" y="410" type="line"/>
      <point x="132" y="410" type="line"/>
      <point x="98" y="255" type="line"/>
      <point x="17" y="255" type="line"/>
      <point x="17" y="179" type="line"/>
      <point x="81" y="179" type="line"/>
      <point x="41" y="0" type="line"/>
      <point x="117" y="0" type="line"/>
      <point x="157" y="179" type="line"/>
      <point x="247" y="179" type="line"/>
      <point x="207" y="0" type="line"/>
      <point x="283" y="0" type="line"/>
      <point x="323" y="179" type="line"/>
      <point x="411" y="179" type="line"/>
      <point x="411" y="255" type="line"/>
      <point x="340" y="255" type="line"/>
      <point x="374" y="410" type="line"/>
      <point x="451" y="410" type="line"/>
      <point x="451" y="486" type="line"/>
      <point x="391" y="486" type="line"/>
    </contour>
    <contour>
      <point x="298" y="410" type="line"/>
      <point x="264" y="255" type="line"/>
      <point x="174" y="255" type="line"/>
      <point x="208" y="410" type="line"/>
    </contour>
  </outline>
</glyph>
<glyph name="dollar" format="1">
  <advance width="456"/>
  <unicode hex="0024"/>
  <outline>
    <contour>
      <point x="323" y="723" type="line"/>
      <point x="275" y="723" type="line"/>
      <point x="260" y="618" type="line"/>
      <point x="157" y="613"/>
      <point x="104" y="550"/>
      <point x="104" y="470" type="curve" smooth="yes"/>
      <point x="104" y="386"/>
      <point x="163" y="353"/>
      <point x="218" y="322" type="curve"/>
      <point x="193" y="146" type="line"/>
      <point x="159" y="158"/>
      <point x="135" y="185"/>
      <point x="135" y="230" type="curve" smooth="yes"/>
      <point x="135" y="240"/>
      <point x="136" y="251"/>
      <point x="138" y="262" type="curve"/>
      <point x="57" y="262" type="line"/>
      <point x="55" y="251"/>
      <point x="55" y="240"/>
      <point x="55" y="230" type="curve" smooth="yes"/>
      <point x="55" y="146"/>
      <point x="109" y="87"/>
      <point x="183" y="72" type="curve"/>
      <point x="166" y="-50" type="line"/>
      <point x="214" y="-50" type="line"/>
      <point x="230" y="68" type="line"/>
      <point x="333" y="71"/>
      <point x="399" y="128"/>
      <point x="399" y="228" type="curve" smooth="yes"/>
      <point x="399" y="323"/>
      <point x="333" y="354"/>
      <point x="275" y="383" type="curve"/>
      <point x="297" y="539" type="line"/>
      <point x="324" y="528"/>
      <point x="345" y="503"/>
      <point x="345" y="453" type="curve"/>
      <point x="426" y="453" type="line"/>
      <point x="426" y="528"/>
      <point x="392" y="599"/>
      <point x="307" y="615" type="curve"/>
    </contour>
    <contour>
      <point x="262" y="296" type="line"/>
      <point x="294" y="276"/>
      <point x="318" y="253"/>
      <point x="318" y="215" type="curve" smooth="yes"/>
      <point x="318" y="176"/>
      <point x="287" y="144"/>
      <point x="240" y="140" type="curve"/>
    </contour>
    <contour>
      <point x="230" y="409" type="line"/>
      <point x="204" y="426"/>
      <point x="185" y="448"/>
      <point x="185" y="482" type="curve" smooth="yes"/>
      <point x="185" y="518"/>
      <point x="219" y="540"/>
      <point x="250" y="545" type="curve"/>
    </contour>
  </outline>
</glyph>
<glyph name="percent" format="1">
  <advance width="729"/>
  <unicode hex="0025"/>
  <outline>
    <contour>
      <point x="671" y="686" type="line"/>
      <point x="600" y="686" type="line"/>
      <point x="85" y="0" type="line"/>
      <point x="155" y="0" type="line"/>
    </contour>
    <contour>
      <point x="566" y="349" type="curve" smooth="yes"/>
      <point x="487" y="349"/>
      <point x="416" y="295"/>
      <point x="416" y="109" type="curve" smooth="yes"/>
      <point x="416" y="18"/>
      <point x="461" y="-12"/>
      <point x="532" y="-12" type="curve" smooth="yes"/>
      <point x="656" y="-12"/>
      <point x="681" y="132"/>
      <point x="681" y="228" type="curve" smooth="yes"/>
      <point x="681" y="319"/>
      <point x="639" y="349"/>
    </contour>
    <contour>
      <point x="566" y="290" type="curve" smooth="yes"/>
      <point x="601" y="290"/>
      <point x="613" y="264"/>
      <point x="613" y="224" type="curve" smooth="yes"/>
      <point x="613" y="210"/>
      <point x="612" y="194"/>
      <point x="607" y="161" type="curve" smooth="yes"/>
      <point x="597" y="94"/>
      <point x="580" y="47"/>
      <point x="532" y="47" type="curve" smooth="yes"/>
      <point x="497" y="47"/>
      <point x="485" y="72"/>
      <point x="485" y="113" type="curve" smooth="yes"/>
      <point x="485" y="127"/>
      <point x="486" y="143"/>
      <point x="491" y="176" type="curve"/>
      <point x="501" y="243"/>
      <point x="518" y="290"/>
    </contour>
    <contour>
      <point x="223" y="698" type="curve" smooth="yes"/>
      <point x="144" y="698"/>
      <point x="73" y="644"/>
      <point x="73" y="458" type="curve" smooth="yes"/>
      <point x="73" y="367"/>
      <point x="118" y="337"/>
      <point x="189" y="337" type="curve" smooth="yes"/>
      <point x="313" y="337"/>
      <point x="338" y="481"/>
      <point x="338" y="577" type="curve" smooth="yes"/>
      <point x="338" y="668"/>
      <point x="296" y="698"/>
    </contour>
    <contour>
      <point x="223" y="639" type="curve" smooth="yes"/>
      <point x="258" y="639"/>
      <point x="270" y="613"/>
      <point x="270" y="573" type="curve" smooth="yes"/>
      <point x="270" y="559"/>
      <point x="269" y="543"/>
      <point x="264" y="510" type="curve" smooth="yes"/>
      <point x="254" y="443"/>
      <point x="237" y="396"/>
      <point x="189" y="396" type="curve" smooth="yes"/>
      <point x="154" y="396"/>
      <point x="142" y="421"/>
      <point x="142" y="462" type="curve" smooth="yes"/>
      <point x="142" y="476"/>
      <point x="143" y="492"/>
      <point x="148" y="525" type="curve" smooth="yes"/>
      <point x="158" y="592"/>
      <point x="175" y="639"/>
    </contour>
  </outline>
</glyph>
<glyph name="ampersand" format="1">
  <advance width="547"/>
  <unicode hex="0026"/>
  <outline>
    <contour>
      <point x="303" y="698" type="curve" smooth="yes"/>
      <point x="177" y="698"/>
      <point x="76" y="620"/>
      <point x="76" y="479" type="curve" smooth="yes"/>
      <point x="76" y="417"/>
      <point x="104" y="381"/>
      <point x="145" y="356" type="curve"/>
      <point x="145" y="352" type="line"/>
      <point x="80" y="328"/>
      <point x="18" y="261"/>
      <point x="18" y="153" type="curve" smooth="yes"/>
      <point x="18" y="49"/>
      <point x="96" y="-12"/>
      <point x="216" y="-12" type="curve" smooth="yes"/>
      <point x="351" y="-12"/>
      <point x="435" y="69"/>
      <point x="451" y="194" type="curve" smooth="yes"/>
      <point x="467" y="311" type="line"/>
      <point x="537" y="311" type="line"/>
      <point x="547" y="385" type="line"/>
      <point x="395" y="385" type="line"/>
      <point x="368" y="191" type="line"/>
      <point x="356" y="106"/>
      <point x="307" y="63"/>
      <point x="222" y="63" type="curve" smooth="yes"/>
      <point x="152" y="63"/>
      <point x="107" y="92"/>
      <point x="107" y="162" type="curve" smooth="yes"/>
      <point x="107" y="282"/>
      <point x="182" y="312"/>
      <point x="245" y="312" type="curve" smooth="yes"/>
      <point x="294" y="312" type="line"/>
      <point x="304" y="385" type="line"/>
      <point x="253" y="385" type="line" smooth="yes"/>
      <point x="203" y="385"/>
      <point x="163" y="416"/>
      <point x="163" y="481" type="curve" smooth="yes"/>
      <point x="163" y="584"/>
      <point x="233" y="623"/>
      <point x="302" y="623" type="curve" smooth="yes"/>
      <point x="367" y="623"/>
      <point x="414" y="593"/>
      <point x="414" y="525" type="curve" smooth="yes"/>
      <point x="414" y="518"/>
      <point x="413" y="510"/>
      <point x="410" y="492" type="curve"/>
      <point x="492" y="492" type="line"/>
      <point x="496" y="520"/>
      <point x="497" y="530"/>
      <point x="497" y="539" type="curve" smooth="yes"/>
      <point x="497" y="637"/>
      <point x="420" y="698"/>
    </contour>
  </outline>
</glyph>
<glyph name="quotesingle" format="1">
  <advance width="157"/>
  <unicode hex="0027"/>
  <outline>
    <contour>
      <point x="178" y="686" type="line"/>
      <point x="96" y="686" type="line"/>
      <point x="75" y="539" type="line"/>
      <point x="79" y="407" type="line"/>
      <point x="118" y="407" type="line"/>
      <point x="157" y="539" type="line"/>
    </contour>
  </outline>
</glyph>
<glyph name="parenleft" format="1">
  <advance width="273"/>
  <unicode hex="0028"/>
  <outline>
    <contour>
      <point x="266" y="735" type="line"/>
      <point x="144" y="612"/>
      <point x="62" y="452"/>
      <point x="39" y="288" type="curve"/>
      <point x="34" y="256"/>
      <point x="32" y="224"/>
      <point x="32" y="193" type="curve" smooth="yes"/>
      <point x="32" y="64"/>
      <point x="70" y="-58"/>
      <point x="141" y="-157" type="curve"/>
      <point x="195" y="-157" type="line"/>
      <point x="149" y="-61"/>
      <point x="118" y="65"/>
      <point x="118" y="191" type="curve" smooth="yes"/>
      <point x="118" y="378"/>
      <point x="206" y="584"/>
      <point x="320" y="735" type="curve"/>
    </contour>
  </outline>
</glyph>
<glyph name="parenright" format="1">
  <advance width="273"/>
  <unicode hex="0029"/>
  <outline>
    <contour>
      <point x="77" y="735" type="line"/>
      <point x="123" y="638"/>
      <point x="155" y="513"/>
      <point x="155" y="387" type="curve" smooth="yes"/>
      <point x="155" y="201"/>
      <point x="65" y="-7"/>
      <point x="-47" y="-157" type="curve"/>
      <point x="6" y="-157" type="line"/>
      <point x="128" y="-34"/>
      <point x="209" y="124"/>
      <point x="232" y="288" type="curve"/>
      <point x="236" y="320"/>
      <point x="239" y="352"/>
      <point x="239" y="384" type="curve" smooth="yes"/>
      <point x="239" y="513"/>
      <point x="202" y="636"/>
      <point x="131" y="735" type="curve"/>
    </contour>
  </outline>
</glyph>
<glyph name="asterisk" format="1">
  <advance width="319"/>
  <unicode hex="002A"/>
  <outline>
    <contour>
      <point x="256" y="686" type="line"/>
      <point x="188" y="686" type="line"/>
      <point x="185" y="597" type="line"/>
      <point x="118" y="649" type="line"/>
      <point x="76" y="591" type="line"/>
      <point x="153" y="553" type="line"/>
      <point x="65" y="515" type="line"/>
      <point x="91" y="456" type="line"/>
      <point x="172" y="508" type="line"/>
      <point x="151" y="419" type="line"/>
      <point x="219" y="419" type="line"/>
      <point x="222" y="508" type="line"/>
      <point x="289" y="456" type="line"/>
      <point x="331" y="515" type="line"/>
      <point x="255" y="553" type="line"/>
      <point x="342" y="591" type="line"/>
      <point x="316" y="649" type="line"/>
      <point x="235" y="598" type="line"/>
    </contour>
  </outline>
</glyph>
<glyph name="plus" format="1">
  <advance width="479"/>
  <unicode hex="002B"/>
  <outline>
    <contour>
      <point x="315" y="511" type="line"/>
      <point x="232" y="511" type="line"/>
      <point x="202" y="297" type="line"/>
      <point x="48" y="297" type="line"/>
      <point x="37" y="213" type="line"/>
      <point x="191" y="213" type="line"/>
      <point x="161" y="0" type="line"/>
      <point x="244" y="0" type="line"/>
      <point x="274" y="213" type="line"/>
      <point x="429" y="213" type="line"/>
      <point x="440" y="297" type="line"/>
      <point x="285" y="297" type="line"/>
    </contour>
  </outline>
</glyph>
<glyph name="hyphen" format="1">
  <advance width="273"/>
  <unicode hex="002D"/>
  <outline>
    <contour>
      <point x="268" y="319" type="line"/>
      <point x="16" y="319" type="line"/>
      <point x="3" y="221" type="line"/>
      <point x="255" y="221" type="line"/>
    </contour>
  </outline>
</glyph>
<glyph name="period" format="1">
  <advance width="228"/>
  <unicode hex="002E"/>
  <outline>
    <contour>
      <point x="153" y="108" type="line"/>
      <point x="53" y="108" type="line"/>
      <point x="38" y="0" type="line"/>
      <point x="138" y="0" type="line"/>
    </contour>
  </outline>
</glyph>
<glyph name="slash" format="1">
  <advance width="228"/>
  <unicode hex="002F"/>
  <outline>
    <contour>
      <point x="290" y="735" type="line"/>
      <point x="220" y="735" type="line"/>
      <point x="-47" y="-49" type="line"/>
      <point x="23" y="-49" type="line"/>
    </contour>
  </outline>
</glyph>
<glyph name="zero" format="1">
  <advance width="456"/>
  <unicode hex="0030"/>
  <outline>
    <contour>
      <point x="277" y="698" type="curve" smooth="yes"/>
      <point x="163" y="698"/>
      <point x="87" y="622"/>
      <point x="50" y="343" type="curve" smooth="yes"/>
      <point x="42" y="285"/>
      <point x="38" y="235"/>
      <point x="38" y="193" type="curve" smooth="yes"/>
      <point x="38" y="36"/>
      <point x="99" y="-12"/>
      <point x="198" y="-12" type="curve" smooth="yes"/>
      <point x="311" y="-12"/>
      <point x="388" y="64"/>
      <point x="426" y="343" type="curve"/>
      <point x="434" y="400"/>
      <point x="438" y="448"/>
      <point x="438" y="489" type="curve" smooth="yes"/>
      <point x="438" y="650"/>
      <point x="376" y="698"/>
    </contour>
    <contour>
      <point x="277" y="625" type="curve" smooth="yes"/>
      <point x="335" y="625"/>
      <point x="356" y="573"/>
      <point x="356" y="492" type="curve" smooth="yes"/>
      <point x="356" y="459"/>
      <point x="351" y="420"/>
      <point x="337" y="308" type="curve"/>
      <point x="316" y="165"/>
      <point x="280" y="61"/>
      <point x="198" y="61" type="curve" smooth="yes"/>
      <point x="137" y="61"/>
      <point x="119" y="117"/>
      <point x="119" y="201" type="curve" smooth="yes"/>
      <point x="119" y="234"/>
      <point x="123" y="275"/>
      <point x="138" y="378" type="curve"/>
      <point x="158" y="521"/>
      <point x="196" y="625"/>
    </contour>
  </outline>
</glyph>
<glyph name="one" format="1">
  <advance width="456"/>
  <unicode hex="0031"/>
  <outline>
    <contour>
      <point x="350" y="686" type="line"/>
      <point x="318" y="686" type="line"/>
      <point x="248" y="648"/>
      <point x="150" y="619"/>
      <point x="93" y="613" type="curve"/>
      <point x="86" y="561" type="line"/>
      <point x="250" y="561" type="line"/>
      <point x="182" y="73" type="line"/>
      <point x="19" y="73" type="line"/>
      <point x="8" y="0" type="line"/>
      <point x="403" y="0" type="line"/>
      <point x="414" y="73" type="line"/>
      <point x="264" y="73" type="line"/>
    </contour>
  </outline>
</glyph>
<glyph name="two" format="1">
  <advance width="456"/>
  <unicode hex="0032"/>
  <outline>
    <contour>
      <point x="294" y="698" type="curve" smooth="yes"/>
      <point x="152" y="698"/>
      <point x="82" y="584"/>
      <point x="82" y="450" type="curve"/>
      <point x="167" y="450" type="line"/>
      <point x="172" y="491" type="line"/>
      <point x="181" y="562"/>
      <point x="217" y="622"/>
      <point x="287" y="622" type="curve" smooth="yes"/>
      <point x="349" y="622"/>
      <point x="367" y="581"/>
      <point x="367" y="541" type="curve" smooth="yes"/>
      <point x="367" y="393"/>
      <point x="181" y="284"/>
      <point x="80" y="162" type="curve" smooth="yes"/>
      <point x="43" y="117"/>
      <point x="20" y="67"/>
      <point x="12" y="13" type="curve"/>
      <point x="10" y="0" type="line"/>
      <point x="382" y="0" type="line"/>
      <point x="394" y="84" type="line"/>
      <point x="125" y="84" type="line"/>
      <point x="131" y="95"/>
      <point x="138" y="107"/>
      <point x="148" y="119" type="curve" smooth="yes"/>
      <point x="247" y="244"/>
      <point x="455" y="364"/>
      <point x="455" y="555" type="curve" smooth="yes"/>
      <point x="455" y="656"/>
      <point x="386" y="698"/>
    </contour>
  </outline>
</glyph>
<glyph name="three" format="1">
  <advance width="456"/>
  <unicode hex="0033"/>
  <outline>
    <contour>
      <point x="282" y="698" type="curve" smooth="yes"/>
      <point x="181" y="698"/>
      <point x="89" y="621"/>
      <point x="80" y="492" type="curve"/>
      <point x="164" y="492" type="line"/>
      <point x="178" y="586"/>
      <point x="223" y="625"/>
      <point x="278" y="625" type="curve" smooth="yes"/>
      <point x="322" y="625"/>
      <point x="357" y="598"/>
      <point x="357" y="534" type="curve" smooth="yes"/>
      <point x="357" y="433"/>
      <point x="297" y="385"/>
      <point x="239" y="385" type="curve" smooth="yes"/>
      <point x="180" y="385" type="line"/>
      <point x="170" y="312" type="line"/>
      <point x="227" y="312" type="line" smooth="yes"/>
      <point x="278" y="312"/>
      <point x="325" y="292"/>
      <point x="325" y="220" type="curve" smooth="yes"/>
      <point x="325" y="109"/>
      <point x="265" y="61"/>
      <point x="200" y="61" type="curve" smooth="yes"/>
      <point x="140" y="61"/>
      <point x="107" y="94"/>
      <point x="107" y="157" type="curve" smooth="yes"/>
      <point x="107" y="163"/>
      <point x="107" y="179"/>
      <point x="111" y="202" type="curve"/>
      <point x="28" y="202" type="line"/>
      <point x="25" y="179"/>
      <point x="24" y="165"/>
      <point x="24" y="152" type="curve" smooth="yes"/>
      <point x="24" y="51"/>
      <point x="84" y="-12"/>
      <point x="201" y="-12" type="curve" smooth="yes"/>
      <point x="313" y="-12"/>
      <point x="409" y="77"/>
      <point x="409" y="220" type="curve" smooth="yes"/>
      <point x="409" y="290"/>
      <point x="376" y="333"/>
      <point x="329" y="352" type="curve"/>
      <point x="329" y="356" type="line"/>
      <point x="391" y="389"/>
      <point x="443" y="443"/>
      <point x="443" y="548" type="curve" smooth="yes"/>
      <point x="443" y="645"/>
      <point x="380" y="698"/>
    </contour>
  </outline>
</glyph>
<glyph name="four" format="1">
  <advance width="456"/>
  <unicode hex="0034"/>
  <outline>
    <contour>
      <point x="263" y="698" type="line"/>
      <point x="201" y="542"/>
      <point x="111" y="374"/>
      <point x="21" y="243" type="curve"/>
      <point x="11" y="169" type="line"/>
      <point x="275" y="169" type="line"/>
      <point x="251" y="0" type="line"/>
      <point x="333" y="0" type="line"/>
      <point x="357" y="169" type="line"/>
      <point x="427" y="169" type="line"/>
      <point x="437" y="242" type="line"/>
      <point x="367" y="242" type="line"/>
      <point x="417" y="596" type="line"/>
      <point x="377" y="596" type="line"/>
      <point x="357" y="543"/>
      <point x="343" y="507"/>
      <point x="316" y="458" type="curve"/>
      <point x="285" y="242" type="line"/>
      <point x="97" y="242" type="line"/>
      <point x="143" y="297"/>
      <point x="282" y="514"/>
      <point x="346" y="698" type="curve"/>
    </contour>
  </outline>
</glyph>
<glyph name="five" format="1">
  <advance width="456"/>
  <unicode hex="0035"/>
  <outline>
    <contour>
      <point x="452" y="686" type="line"/>
      <point x="140" y="686" type="line"/>
      <point x="63" y="306" type="line"/>
      <point x="139" y="293" type="line"/>
      <point x="166" y="340"/>
      <point x="208" y="372"/>
      <point x="252" y="372" type="curve" smooth="yes"/>
      <point x="302" y="372"/>
      <point x="334" y="333"/>
      <point x="334" y="262" type="curve" smooth="yes"/>
      <point x="334" y="125"/>
      <point x="264" y="60"/>
      <point x="202" y="60" type="curve" smooth="yes"/>
      <point x="150" y="60"/>
      <point x="113" y="105"/>
      <point x="113" y="178" type="curve" smooth="yes"/>
      <point x="113" y="189"/>
      <point x="114" y="201"/>
      <point x="116" y="213" type="curve"/>
      <point x="31" y="213" type="line"/>
      <point x="28" y="196"/>
      <point x="27" y="179"/>
      <point x="27" y="164" type="curve" smooth="yes"/>
      <point x="27" y="53"/>
      <point x="93" y="-12"/>
      <point x="201" y="-12" type="curve" smooth="yes"/>
      <point x="322" y="-12"/>
      <point x="420" y="94"/>
      <point x="420" y="280" type="curve" smooth="yes"/>
      <point x="420" y="392"/>
      <point x="361" y="446"/>
      <point x="280" y="446" type="curve" smooth="yes"/>
      <point x="223" y="446"/>
      <point x="180" y="415"/>
      <point x="156" y="393" type="curve"/>
      <point x="199" y="602" type="line"/>
      <point x="440" y="602" type="line"/>
    </contour>
  </outline>
</glyph>
<glyph name="six" format="1">
  <advance width="456"/>
  <unicode hex="0036"/>
  <outline>
    <contour>
      <point x="293" y="698" type="curve" smooth="yes"/>
      <point x="174" y="698"/>
      <point x="93" y="609"/>
      <point x="54" y="323" type="curve"/>
      <point x="47" y="275"/>
      <point x="44" y="233"/>
      <point x="44" y="197" type="curve" smooth="yes"/>
      <point x="44" y="41"/>
      <point x="106" y="-12"/>
      <point x="209" y="-12" type="curve" smooth="yes"/>
      <point x="320" y="-12"/>
      <point x="418" y="95"/>
      <point x="418" y="261" type="curve" smooth="yes"/>
      <point x="418" y="359"/>
      <point x="373" y="431"/>
      <point x="274" y="431" type="curve" smooth="yes"/>
      <point x="224" y="431"/>
      <point x="178" y="406"/>
      <point x="144" y="366" type="curve"/>
      <point x="168" y="525"/>
      <point x="203" y="625"/>
      <point x="289" y="625" type="curve" smooth="yes"/>
      <point x="333" y="625"/>
      <point x="354" y="589"/>
      <point x="354" y="524" type="curve" smooth="yes"/>
      <point x="354" y="509"/>
      <point x="352" y="493"/>
      <point x="350" y="475" type="curve"/>
      <point x="433" y="475" type="line"/>
      <point x="436" y="495"/>
      <point x="437" y="515"/>
      <point x="437" y="533" type="curve" smooth="yes"/>
      <point x="437" y="630"/>
      <point x="395" y="698"/>
    </contour>
    <contour>
      <point x="251" y="359" type="curve" smooth="yes"/>
      <point x="308" y="359"/>
      <point x="333" y="312"/>
      <point x="333" y="249" type="curve" smooth="yes"/>
      <point x="333" y="177"/>
      <point x="299" y="61"/>
      <point x="204" y="61" type="curve" smooth="yes"/>
      <point x="149" y="61"/>
      <point x="126" y="107"/>
      <point x="126" y="170" type="curve" smooth="yes"/>
      <point x="126" y="269"/>
      <point x="172" y="359"/>
    </contour>
  </outline>
</glyph>
<glyph name="seven" format="1">
  <advance width="456"/>
  <unicode hex="0037"/>
  <outline>
    <contour>
      <point x="489" y="686" type="line"/>
      <point x="99" y="686" type="line"/>
      <point x="87" y="602" type="line"/>
      <point x="370" y="602" type="line"/>
      <point x="261" y="459"/>
      <point x="121" y="236"/>
      <point x="88" y="0" type="curve"/>
      <point x="185" y="0" type="line"/>
      <point x="188" y="24"/>
      <point x="188" y="32"/>
      <point x="191" y="51" type="curve"/>
      <point x="222" y="273"/>
      <point x="367" y="491"/>
      <point x="481" y="633" type="curve"/>
    </contour>
  </outline>
</glyph>
<glyph name="eight" format="1">
  <advance width="456"/>
  <unicode hex="0038"/>
  <outline>
    <contour>
      <point x="283" y="698" type="curve" smooth="yes"/>
      <point x="158" y="698"/>
      <point x="85" y="592"/>
      <point x="85" y="472" type="curve" smooth="yes"/>
      <point x="85" y="422"/>
      <point x="103" y="379"/>
      <point x="140" y="352" type="curve"/>
      <point x="59" y="315"/>
      <point x="26" y="229"/>
      <point x="26" y="146" type="curve" smooth="yes"/>
      <point x="26" y="56"/>
      <point x="74" y="-12"/>
      <point x="194" y="-12" type="curve" smooth="yes"/>
      <point x="339" y="-12"/>
      <point x="407" y="99"/>
      <point x="407" y="225" type="curve" smooth="yes"/>
      <point x="407" y="281"/>
      <point x="387" y="326"/>
      <point x="339" y="352" type="curve"/>
      <point x="402" y="390"/>
      <point x="438" y="464"/>
      <point x="438" y="542" type="curve" smooth="yes"/>
      <point x="438" y="630"/>
      <point x="388" y="698"/>
    </contour>
    <contour>
      <point x="234" y="314" type="curve" smooth="yes"/>
      <point x="293" y="314"/>
      <point x="323" y="278"/>
      <point x="323" y="218" type="curve" smooth="yes"/>
      <point x="323" y="123"/>
      <point x="273" y="61"/>
      <point x="199" y="61" type="curve" smooth="yes"/>
      <point x="140" y="61"/>
      <point x="111" y="97"/>
      <point x="111" y="157" type="curve" smooth="yes"/>
      <point x="111" y="243"/>
      <point x="154" y="314"/>
    </contour>
    <contour>
      <point x="278" y="625" type="curve" smooth="yes"/>
      <point x="326" y="625"/>
      <point x="356" y="591"/>
      <point x="356" y="534" type="curve" smooth="yes"/>
      <point x="356" y="444"/>
      <point x="306" y="387"/>
      <point x="245" y="387" type="curve" smooth="yes"/>
      <point x="196" y="387"/>
      <point x="167" y="421"/>
      <point x="167" y="479" type="curve" smooth="yes"/>
      <point x="167" y="553"/>
      <point x="207" y="625"/>
    </contour>
  </outline>
</glyph>
<glyph name="nine" format="1">
  <advance width="456"/>
  <unicode hex="0039"/>
  <outline>
    <contour>
      <point x="275" y="698" type="curve" smooth="yes"/>
      <point x="164" y="698"/>
      <point x="66" y="591"/>
      <point x="66" y="425" type="curve" smooth="yes"/>
      <point x="66" y="327"/>
      <point x="111" y="255"/>
      <point x="210" y="255" type="curve" smooth="yes"/>
      <point x="260" y="255"/>
      <point x="306" y="280"/>
      <point x="340" y="320" type="curve"/>
      <point x="316" y="161"/>
      <point x="281" y="61"/>
      <point x="195" y="61" type="curve" smooth="yes"/>
      <point x="151" y="61"/>
      <point x="130" y="97"/>
      <point x="130" y="162" type="curve" smooth="yes"/>
      <point x="130" y="177"/>
      <point x="132" y="193"/>
      <point x="134" y="211" type="curve"/>
      <point x="51" y="211" type="line"/>
      <point x="48" y="191"/>
      <point x="47" y="171"/>
      <point x="47" y="153" type="curve" smooth="yes"/>
      <point x="47" y="56"/>
      <point x="89" y="-12"/>
      <point x="191" y="-12" type="curve" smooth="yes"/>
      <point x="310" y="-12"/>
      <point x="391" y="77"/>
      <point x="430" y="363" type="curve" smooth="yes"/>
      <point x="437" y="411"/>
      <point x="440" y="453"/>
      <point x="440" y="489" type="curve" smooth="yes"/>
      <point x="440" y="645"/>
      <point x="378" y="698"/>
    </contour>
    <contour>
      <point x="280" y="625" type="curve" smooth="yes"/>
      <point x="335" y="625"/>
      <point x="358" y="579"/>
      <point x="358" y="516" type="curve" smooth="yes"/>
      <point x="358" y="417"/>
      <point x="312" y="327"/>
      <point x="233" y="327" type="curve" smooth="yes"/>
      <point x="176" y="327"/>
      <point x="151" y="374"/>
      <point x="151" y="437" type="curve" smooth="yes"/>
      <point x="151" y="509"/>
      <point x="185" y="625"/>
    </contour>
  </outline>
</glyph>
<glyph name="colon" format="1">
  <advance width="228"/>
  <unicode hex="003A"/>
  <outline>
    <contour>
      <point x="210" y="526" type="line"/>
      <point x="110" y="526" type="line"/>
      <point x="95" y="418" type="line"/>
      <point x="195" y="418" type="line"/>
    </contour>
    <contour>
      <point x="151" y="108" type="line"/>
      <point x="51" y="108" type="line"/>
      <point x="36" y="0" type="line"/>
      <point x="136" y="0" type="line"/>
    </contour>
  </outline>
</glyph>
<glyph name="semicolon" format="1">
  <advance width="228"/>
  <unicode hex="003B"/>
  <outline>
    <contour>
      <point x="151" y="108" type="line"/>
      <point x="51" y="108" type="line"/>
      <point x="36" y="0" type="line"/>
      <point x="69" y="0" type="line"/>
      <point x="18" y="-124" type="line"/>
      <point x="73" y="-124" type="line"/>
      <point x="137" y="9" type="line"/>
    </contour>
    <contour>
      <point x="210" y="526" type="line"/>
      <point x="110" y="526" type="line"/>
      <point x="95" y="418" type="line"/>
      <point x="195" y="418" type="line"/>
    </contour>
  </outline>
</glyph>
<glyph name="less" format="1">
  <advance width="479"/>
  <unicode hex="003C"/>
  <outline>
    <contour>
      <point x="471" y="504" type="line"/>
      <point x="51" y="307" type="line"/>
      <point x="36" y="200" type="line"/>
      <point x="400" y="4" type="line"/>
      <point x="413" y="94" type="line"/>
      <point x="125" y="254" type="line"/>
      <point x="458" y="414" type="line"/>
    </contour>
  </outline>
</glyph>
<glyph name="equal" format="1">
  <advance width="479"/>
  <unicode hex="003D"/>
  <outline>
    <contour>
      <point x="455" y="402" type="line"/>
      <point x="63" y="402" type="line"/>
      <point x="51" y="318" type="line"/>
      <point x="443" y="318" type="line"/>
    </contour>
    <contour>
      <point x="425" y="189" type="line"/>
      <point x="33" y="189" type="line"/>
      <point x="22" y="106" type="line"/>
      <point x="414" y="106" type="line"/>
    </contour>
  </outline>
</glyph>
<glyph name="greater" format="1">
  <advance width="479"/>
  <unicode hex="003E"/>
  <outline>
    <contour>
      <point x="79" y="504" type="line"/>
      <point x="66" y="414" type="line"/>
      <point x="355" y="254" type="line"/>
      <point x="21" y="94" type="line"/>
      <point x="8" y="4" type="line"/>
      <point x="428" y="200" type="line"/>
      <point x="443" y="307" type="line"/>
    </contour>
  </outline>
</glyph>
<glyph name="question" format="1">
  <advance width="456"/>
  <unicode hex="003F"/>
  <outline>
    <contour>
      <point x="282" y="698" type="curve" smooth="yes"/>
      <point x="146" y="698"/>
      <point x="70" y="586"/>
      <point x="68" y="459" type="curve"/>
      <point x="157" y="459" type="line"/>
      <point x="157" y="467"/>
      <point x="162" y="621"/>
      <point x="274" y="621" type="curve" smooth="yes"/>
      <point x="337" y="621"/>
      <point x="349" y="568"/>
      <point x="349" y="532" type="curve" smooth="yes"/>
      <point x="348" y="380"/>
      <point x="203" y="376"/>
      <point x="183" y="236" type="curve" smooth="yes"/>
      <point x="175" y="180" type="line"/>
      <point x="262" y="180" type="line"/>
      <point x="268" y="221" type="line" smooth="yes"/>
      <point x="285" y="337"/>
      <point x="442" y="348"/>
      <point x="442" y="548" type="curve" smooth="yes"/>
      <point x="442" y="638"/>
      <point x="378" y="698"/>
    </contour>
    <contour>
      <point x="258" y="108" type="line"/>
      <point x="158" y="108" type="line"/>
      <point x="142" y="0" type="line"/>
      <point x="242" y="0" type="line"/>
    </contour>
  </outline>
</glyph>
<glyph name="at" format="1">
  <advance width="832"/>
  <unicode hex="0040"/>
  <outline>
    <contour>
      <point x="583" y="22" type="curve" smooth="yes"/>
      <point x="737" y="22"/>
      <point x="798" y="206"/>
      <point x="798" y="369" type="curve" smooth="yes"/>
      <point x="798" y="563"/>
      <point x="747" y="698"/>
      <point x="476" y="698" type="curve" smooth="yes"/>
      <point x="217" y="698"/>
      <point x="55" y="524"/>
      <point x="55" y="194" type="curve" smooth="yes"/>
      <point x="55" y="-53"/>
      <point x="187" y="-154"/>
      <point x="406" y="-154" type="curve" smooth="yes"/>
      <point x="456" y="-154"/>
      <point x="510" y="-140"/>
      <point x="521" y="-136" type="curve"/>
      <point x="529" y="-79" type="line"/>
      <point x="529" y="-79"/>
      <point x="487" y="-99"/>
      <point x="397" y="-99" type="curve" smooth="yes"/>
      <point x="233" y="-99"/>
      <point x="113" y="-25"/>
      <point x="113" y="196" type="curve" smooth="yes"/>
      <point x="113" y="525"/>
      <point x="277" y="643"/>
      <point x="493" y="643" type="curve" smooth="yes"/>
      <point x="611" y="643"/>
      <point x="682" y="603"/>
      <point x="715" y="525" type="curve" smooth="yes"/>
      <point x="733" y="483"/>
      <point x="739" y="429"/>
      <point x="739" y="368" type="curve" smooth="yes"/>
      <point x="739" y="272"/>
      <point x="716" y="192"/>
      <point x="683" y="142" type="curve" smooth="yes"/>
      <point x="659" y="107"/>
      <point x="630" y="87"/>
      <point x="605" y="87" type="curve" smooth="yes"/>
      <point x="582" y="87"/>
      <point x="559" y="96"/>
      <point x="559" y="137" type="curve" smooth="yes"/>
      <point x="559" y="182"/>
      <point x="611" y="510"/>
      <point x="611" y="510" type="curve"/>
      <point x="553" y="510" type="line"/>
      <point x="536" y="444" type="line"/>
      <point x="518" y="503"/>
      <point x="481" y="521"/>
      <point x="437" y="521" type="curve" smooth="yes"/>
      <point x="348" y="521"/>
      <point x="253" y="418"/>
      <point x="253" y="199" type="curve" smooth="yes"/>
      <point x="253" y="76"/>
      <point x="304" y="22"/>
      <point x="374" y="22" type="curve" smooth="yes"/>
      <point x="414" y="22"/>
      <point x="456" y="45"/>
      <point x="482" y="92" type="curve"/>
      <point x="489" y="68"/>
      <point x="513" y="22"/>
    </contour>
    <contour>
      <point x="448" y="455" type="curve" smooth="yes"/>
      <point x="490" y="455"/>
      <point x="512" y="420"/>
      <point x="512" y="352" type="curve" smooth="yes"/>
      <point x="512" y="280"/>
      <point x="484" y="88"/>
      <point x="397" y="88" type="curve" smooth="yes"/>
      <point x="353" y="88"/>
      <point x="329" y="123"/>
      <point x="329" y="192" type="curve" smooth="yes"/>
      <point x="329" y="270"/>
      <point x="351" y="455"/>
    </contour>
  </outline>
</glyph>
<glyph name="B" format="1">
  <advance width="547"/>
  <unicode hex="0042"/>
  <outline>
    <contour>
      <point x="34" y="0" type="line"/>
      <point x="293" y="0" type="line" smooth="yes"/>
      <point x="400" y="0"/>
      <point x="506" y="77"/>
      <point x="506" y="206" type="curve" smooth="yes"/>
      <point x="506" y="282"/>
      <point x="465" y="336"/>
      <point x="407" y="356" type="curve"/>
      <point x="408" y="360" type="line"/>
      <point x="476" y="383"/>
      <point x="537" y="451"/>
      <point x="537" y="541" type="curve" smooth="yes"/>
      <point x="537" y="629"/>
      <point x="471" y="686"/>
      <point x="372" y="686" type="curve" smooth="yes"/>
      <point x="131" y="686" type="line"/>
    </contour>
    <contour>
      <point x="311" y="311" type="line" smooth="yes"/>
      <point x="377" y="311"/>
      <point x="415" y="263"/>
      <point x="415" y="206" type="curve" smooth="yes"/>
      <point x="415" y="125"/>
      <point x="355" y="80"/>
      <point x="293" y="80" type="curve" smooth="yes"/>
      <point x="134" y="80" type="line"/>
      <point x="166" y="311" type="line"/>
    </contour>
    <contour>
      <point x="340" y="606" type="line" smooth="yes"/>
      <point x="402" y="606"/>
      <point x="442" y="578"/>
      <point x="442" y="518" type="curve" smooth="yes"/>
      <point x="442" y="453"/>
      <point x="392" y="391"/>
      <point x="314" y="391" type="curve" smooth="yes"/>
      <point x="177" y="391" type="line"/>
      <point x="207" y="606" type="line"/>
    </contour>
  </outline>
</glyph>
<glyph name="E" format="1">
  <advance width="547"/>
  <unicode hex="0045"/>
  <outline>
    <contour>
      <point x="463" y="0" type="line"/>
      <point x="475" y="80" type="line"/>
      <point x="134" y="80" type="line"/>
      <point x="166" y="311" type="line"/>
      <point x="457" y="311" type="line"/>
      <point x="468" y="391" type="line"/>
      <point x="177" y="391" type="line"/>
      <point x="207" y="606" type="line"/>
      <point x="542" y="606" type="line"/>
      <point x="554" y="686" type="line"/>
      <point x="131" y="686" type="line"/>
      <point x="34" y="0" type="line"/>
    </contour>
    <contour>
      <point x="327" y="686" type="move" name="top"/>
    </contour>
    <contour>
      <point x="230" y="0" type="move" name="bottom"/>
    </contour>
    <contour>
      <point x="482" y="0" type="move" name="ogonek"/>
    </contour>
  </outline>
</glyph>
<glyph name="F" format="1">
  <advance width="501"/>
  <unicode hex="0046"/>
  <outline>
    <contour>
      <point x="122" y="0" type="line"/>
      <point x="165" y="304" type="line"/>
      <point x="437" y="304" type="line"/>
      <point x="448" y="384" type="line"/>
      <point x="176" y="384" type="line"/>
      <point x="207" y="606" type="line"/>
      <point x="515" y="606" type="line"/>
      <point x="527" y="686" type="line"/>
      <point x="131" y="686" type="line"/>
      <point x="34" y="0" type="line"/>
    </contour>
  </outline>
</glyph>
<glyph name="G" format="1">
  <advance width="638"/>
  <unicode hex="0047"/>
  <outline>
    <contour>
      <point x="475" y="0" type="line"/>
      <point x="533" y="0" type="line"/>
      <point x="584" y="357" type="line"/>
      <point x="315" y="357" type="line"/>
      <point x="304" y="280" type="line"/>
      <point x="484" y="280" type="line"/>
      <point x="478" y="242" type="line" smooth="yes"/>
      <point x="463" y="150"/>
      <point x="404" y="70"/>
      <point x="293" y="70" type="curve" smooth="yes"/>
      <point x="189" y="70"/>
      <point x="140" y="133"/>
      <point x="140" y="246" type="curve" smooth="yes"/>
      <point x="140" y="335"/>
      <point x="166" y="617"/>
      <point x="363" y="617" type="curve" smooth="yes"/>
      <point x="460" y="617"/>
      <point x="505" y="563"/>
      <point x="505" y="459" type="curve" smooth="yes"/>
      <point x="505" y="452" type="line"/>
      <point x="596" y="452" type="line"/>
      <point x="596" y="619"/>
      <point x="517" y="698"/>
      <point x="364" y="698" type="curve" smooth="yes"/>
      <point x="119" y="698"/>
      <point x="50" y="421"/>
      <point x="50" y="241" type="curve" smooth="yes"/>
      <point x="50" y="67"/>
      <point x="142" y="-12"/>
      <point x="285" y="-12" type="curve" smooth="yes"/>
      <point x="365" y="-12"/>
      <point x="425" y="22"/>
      <point x="467" y="76" type="curve"/>
    </contour>
    <contour>
      <point x="370" y="686" type="move" name="top"/>
    </contour>
    <contour>
      <point x="297" y="0" type="move" name="bottom"/>
    </contour>
  </outline>
</glyph>
<glyph name="H" format="1">
  <advance width="592"/>
  <unicode hex="0048"/>
  <outline>
    <contour>
      <point x="583" y="686" type="line"/>
      <point x="495" y="686" type="line"/>
      <point x="453" y="391" type="line"/>
      <point x="177" y="391" type="line"/>
      <point x="219" y="686" type="line"/>
      <point x="131" y="686" type="line"/>
      <point x="34" y="0" type="line"/>
      <point x="122" y="0" type="line"/>
      <point x="166" y="311" type="line"/>
      <point x="442" y="311" type="line"/>
      <point x="398" y="0" type="line"/>
      <point x="486" y="0" type="line"/>
    </contour>
    <contour>
      <point x="355" y="686" type="move" name="top"/>
    </contour>
    <contour>
      <point x="308" y="343" type="move" name="center"/>
    </contour>
  </outline>
</glyph>
<glyph name="I" format="1">
  <advance width="228"/>
  <unicode hex="0049"/>
  <outline>
    <contour>
      <point x="219" y="686" type="line"/>
      <point x="131" y="686" type="line"/>
      <point x="34" y="0" type="line"/>
      <point x="122" y="0" type="line"/>
    </contour>
    <contour>
      <point x="176" y="686" type="move" name="top"/>
    </contour>
    <contour>
      <point x="122" y="0" type="move" name="ogonek"/>
    </contour>
  </outline>
</glyph>
<glyph name="J" format="1">
  <advance width="410"/>
  <unicode hex="004A"/>
  <outline>
    <contour>
      <point x="407" y="686" type="line"/>
      <point x="319" y="686" type="line"/>
      <point x="244" y="158" type="line" smooth="yes"/>
      <point x="236" y="100"/>
      <point x="204" y="69"/>
      <point x="154" y="69" type="curve" smooth="yes"/>
      <point x="110" y="69"/>
      <point x="86" y="92"/>
      <point x="86" y="137" type="curve" smooth="yes"/>
      <point x="86" y="144"/>
      <point x="87" y="151"/>
      <point x="95" y="208" type="curve"/>
      <point x="8" y="208" type="line"/>
      <point x="0" y="149"/>
      <point x="-1" y="136"/>
      <point x="-1" y="124" type="curve" smooth="yes"/>
      <point x="-1" y="35"/>
      <point x="54" y="-12"/>
      <point x="152" y="-12" type="curve" smooth="yes"/>
      <point x="252" y="-12"/>
      <point x="317" y="49"/>
      <point x="333" y="163" type="curve" smooth="yes"/>
    </contour>
    <contour>
      <point x="364" y="686" type="move" name="top"/>
    </contour>
  </outline>
</glyph>
<glyph name="L" format="1">
  <advance width="456"/>
  <unicode hex="004C"/>
  <outline>
    <contour>
      <point x="402" y="0" type="line"/>
      <point x="414" y="80" type="line"/>
      <point x="134" y="80" type="line"/>
      <point x="219" y="686" type="line"/>
      <point x="131" y="686" type="line"/>
      <point x="34" y="0" type="line"/>
    </contour>
    <contour>
      <point x="177" y="686" type="move" name="top"/>
    </contour>
    <contour>
      <point x="198" y="0" type="move" name="bottom"/>
    </contour>
  </outline>
</glyph>
<glyph name="M" format="1">
  <advance width="683"/>
  <unicode hex="004D"/>
  <outline>
    <contour>
      <point x="680" y="686" type="line"/>
      <point x="545" y="686" type="line"/>
      <point x="359" y="236" type="line" smooth="yes"/>
      <point x="342" y="194"/>
      <point x="321" y="102"/>
      <point x="321" y="102" type="curve"/>
      <point x="317" y="102" type="line"/>
      <point x="317" y="102"/>
      <point x="316" y="192"/>
      <point x="310" y="236" type="curve" smooth="yes"/>
      <point x="253" y="686" type="line"/>
      <point x="121" y="686" type="line"/>
      <point x="24" y="0" type="line"/>
      <point x="103" y="0" type="line"/>
      <point x="173" y="498" type="line"/>
      <point x="175" y="514"/>
      <point x="183" y="584"/>
      <point x="183" y="584" type="curve"/>
      <point x="187" y="584" type="line"/>
      <point x="187" y="584"/>
      <point x="192" y="513"/>
      <point x="194" y="498" type="curve" smooth="yes"/>
      <point x="259" y="0" type="line"/>
      <point x="338" y="0" type="line"/>
      <point x="545" y="498" type="line"/>
      <point x="554" y="518"/>
      <point x="576" y="584"/>
      <point x="576" y="584" type="curve"/>
      <point x="580" y="584" type="line"/>
      <point x="580" y="584"/>
      <point x="568" y="518"/>
      <point x="565" y="498" type="curve" smooth="yes"/>
      <point x="495" y="0" type="line"/>
      <point x="583" y="0" type="line"/>
    </contour>
  </outline>
</glyph>
<glyph name="N" format="1">
  <advance width="592"/>
  <unicode hex="004E"/>
  <outline>
    <contour>
      <point x="582" y="686" type="line"/>
      <point x="503" y="686" type="line"/>
      <point x="442" y="255" type="line" smooth="yes"/>
      <point x="439" y="233"/>
      <point x="432" y="164"/>
      <point x="432" y="164" type="curve"/>
      <point x="429" y="163" type="line"/>
      <point x="429" y="163"/>
      <point x="408" y="229"/>
      <point x="397" y="255" type="curve"/>
      <point x="202" y="686" type="line"/>
      <point x="130" y="686" type="line"/>
      <point x="33" y="0" type="line"/>
      <point x="112" y="0" type="line"/>
      <point x="174" y="437" type="line"/>
      <point x="178" y="465"/>
      <point x="183" y="528"/>
      <point x="183" y="528" type="curve"/>
      <point x="186" y="529" type="line"/>
      <point x="186" y="529"/>
      <point x="206" y="466"/>
      <point x="219" y="437" type="curve" smooth="yes"/>
      <point x="416" y="0" type="line"/>
      <point x="485" y="0" type="line"/>
    </contour>
    <contour>
      <point x="356" y="686" type="move" name="top"/>
    </contour>
    <contour>
      <point x="259" y="0" type="move" name="bottom"/>
    </contour>
  </outline>
</glyph>
<glyph name="O" format="1">
  <advance width="638"/>
  <unicode hex="004F"/>
  <outline>
    <contour>
      <point x="367" y="698" type="curve" smooth="yes"/>
      <point x="126" y="698"/>
      <point x="51" y="438"/>
      <point x="51" y="247" type="curve" smooth="yes"/>
      <point x="51" y="73"/>
      <point x="138" y="-12"/>
      <point x="288" y="-12" type="curve" smooth="yes"/>
      <point x="529" y="-12"/>
      <point x="605" y="246"/>
      <point x="605" y="437" type="curve" smooth="yes"/>
      <point x="605" y="612"/>
      <point x="517" y="698"/>
    </contour>
    <contour>
      <point x="366" y="617" type="curve" smooth="yes"/>
      <point x="459" y="617"/>
      <point x="514" y="557"/>
      <point x="514" y="437" type="curve" smooth="yes"/>
      <point x="514" y="290"/>
      <point x="470" y="69"/>
      <point x="289" y="69" type="curve" smooth="yes"/>
      <point x="195" y="69"/>
      <point x="141" y="128"/>
      <point x="141" y="249" type="curve" smooth="yes"/>
      <point x="141" y="398"/>
      <point x="186" y="617"/>
    </contour>
    <contour>
      <point x="379" y="686" type="move" name="top"/>
    </contour>
  </outline>
</glyph>
<glyph name="P" format="1">
  <advance width="547"/>
  <unicode hex="0050"/>
  <outline>
    <contour>
      <point x="323" y="283" type="line" smooth="yes"/>
      <point x="460" y="283"/>
      <point x="555" y="367"/>
      <point x="555" y="512" type="curve" smooth="yes"/>
      <point x="555" y="615"/>
      <point x="493" y="686"/>
      <point x="366" y="686" type="curve" smooth="yes"/>
      <point x="131" y="686" type="line"/>
      <point x="34" y="0" type="line"/>
      <point x="122" y="0" type="line"/>
      <point x="162" y="283" type="line"/>
    </contour>
    <contour>
      <point x="361" y="606" type="line" smooth="yes"/>
      <point x="427" y="606"/>
      <point x="462" y="562"/>
      <point x="462" y="496" type="curve" smooth="yes"/>
      <point x="462" y="414"/>
      <point x="406" y="363"/>
      <point x="332" y="363" type="curve" smooth="yes"/>
      <point x="174" y="363" type="line"/>
      <point x="207" y="606" type="line"/>
    </contour>
  </outline>
</glyph>
<glyph name="Q" format="1">
  <advance width="638"/>
  <unicode hex="0051"/>
  <outline>
    <contour>
      <point x="51" y="247" type="curve" smooth="yes"/>
      <point x="51" y="73"/>
      <point x="138" y="-12"/>
      <point x="288" y="-12" type="curve" smooth="yes"/>
      <point x="296" y="-12" type="line"/>
      <point x="400" y="-124" type="line"/>
      <point x="510" y="-124" type="line"/>
      <point x="388" y="5" type="line"/>
      <point x="550" y="66"/>
      <point x="605" y="275"/>
      <point x="605" y="437" type="curve" smooth="yes"/>
      <point x="605" y="612"/>
      <point x="517" y="698"/>
      <point x="367" y="698" type="curve" smooth="yes"/>
      <point x="126" y="698"/>
      <point x="51" y="438"/>
    </contour>
    <contour>
      <point x="366" y="617" type="curve" smooth="yes"/>
      <point x="459" y="617"/>
      <point x="514" y="557"/>
      <point x="514" y="437" type="curve" smooth="yes"/>
      <point x="514" y="290"/>
      <point x="470" y="69"/>
      <point x="289" y="69" type="curve" smooth="yes"/>
      <point x="195" y="69"/>
      <point x="141" y="128"/>
      <point x="141" y="249" type="curve" smooth="yes"/>
      <point x="141" y="398"/>
      <point x="186" y="617"/>
    </contour>
  </outline>
</glyph>
<glyph name="R" format="1">
  <advance width="592"/>
  <unicode hex="0052"/>
  <outline>
    <contour>
      <point x="583" y="527" type="curve" smooth="yes"/>
      <point x="583" y="622"/>
      <point x="527" y="686"/>
      <point x="397" y="686" type="curve" smooth="yes"/>
      <point x="131" y="686" type="line"/>
      <point x="34" y="0" type="line"/>
      <point x="122" y="0" type="line"/>
      <point x="165" y="303" type="line"/>
      <point x="350" y="303" type="line"/>
      <point x="438" y="0" type="line"/>
      <point x="531" y="0" type="line"/>
      <point x="439" y="318" type="line"/>
      <point x="527" y="348"/>
      <point x="583" y="426"/>
    </contour>
    <contour>
      <point x="384" y="606" type="line" smooth="yes"/>
      <point x="454" y="606"/>
      <point x="491" y="572"/>
      <point x="491" y="513" type="curve" smooth="yes"/>
      <point x="491" y="436"/>
      <point x="430" y="383"/>
      <point x="353" y="383" type="curve" smooth="yes"/>
      <point x="176" y="383" type="line"/>
      <point x="207" y="606" type="line"/>
    </contour>
    <contour>
      <point x="350" y="686" type="move" name="top"/>
    </contour>
    <contour>
      <point x="300" y="0" type="move" name="bottom"/>
    </contour>
  </outline>
</glyph>
<glyph name="T" format="1">
  <advance width="501"/>
  <unicode hex="0054"/>
  <outline>
    <contour>
      <point x="64" y="606" type="line"/>
      <point x="251" y="606" type="line"/>
      <point x="166" y="0" type="line"/>
      <point x="254" y="0" type="line"/>
      <point x="339" y="606" type="line"/>
      <point x="526" y="606" type="line"/>
      <point x="538" y="686" type="line"/>
      <point x="76" y="686" type="line"/>
    </contour>
    <contour>
      <point x="308" y="686" type="move" name="top"/>
    </contour>
    <contour>
      <point x="211" y="0" type="move" name="bottom"/>
    </contour>
    <contour>
      <point x="259" y="343" type="move" name="center"/>
    </contour>
  </outline>
</glyph>
<glyph name="U" format="1">
  <advance width="592"/>
  <unicode hex="0055"/>
  <outline>
    <contour>
      <point x="579" y="686" type="line"/>
      <point x="491" y="686" type="line"/>
      <point x="425" y="218" type="line" smooth="yes"/>
      <point x="411" y="121"/>
      <point x="352" y="69"/>
      <point x="266" y="69" type="curve" smooth="yes"/>
      <point x="190" y="69"/>
      <point x="146" y="109"/>
      <point x="146" y="185" type="curve" smooth="yes"/>
      <point x="146" y="207"/>
      <point x="215" y="686"/>
      <point x="215" y="686" type="curve"/>
      <point x="127" y="686" type="line"/>
      <point x="127" y="686"/>
      <point x="57" y="219"/>
      <point x="57" y="173" type="curve" smooth="yes"/>
      <point x="57" y="52"/>
      <point x="133" y="-12"/>
      <point x="264" y="-12" type="curve" smooth="yes"/>
      <point x="401" y="-12"/>
      <point x="491" y="69"/>
      <point x="513" y="223" type="curve" smooth="yes"/>
    </contour>
    <contour>
      <point x="353" y="686" type="move" name="top"/>
    </contour>
    <contour>
      <point x="363" y="5" type="move" name="ogonek"/>
    </contour>
  </outline>
</glyph>
<glyph name="V" format="1">
  <advance width="547"/>
  <unicode hex="0056"/>
  <outline>
    <contour>
      <point x="605" y="686" type="line"/>
      <point x="517" y="686" type="line"/>
      <point x="261" y="96" type="line"/>
      <point x="257" y="96" type="line"/>
      <point x="165" y="686" type="line"/>
      <point x="74" y="686" type="line"/>
      <point x="186" y="0" type="line"/>
      <point x="299" y="0" type="line"/>
    </contour>
  </outline>
</glyph>
<glyph name="W" format="1">
  <advance width="774"/>
  <unicode hex="0057"/>
  <outline>
    <contour>
      <point x="831" y="686" type="line"/>
      <point x="749" y="686" type="line"/>
      <point x="578" y="212" type="line" smooth="yes"/>
      <point x="562" y="167"/>
      <point x="540" y="90"/>
      <point x="540" y="90" type="curve"/>
      <point x="536" y="90" type="line"/>
      <point x="536" y="90"/>
      <point x="536" y="181"/>
      <point x="535" y="212" type="curve" smooth="yes"/>
      <point x="518" y="686" type="line"/>
      <point x="391" y="686" type="line"/>
      <point x="247" y="212" type="line" smooth="yes"/>
      <point x="229" y="152"/>
      <point x="213" y="90"/>
      <point x="213" y="90" type="curve"/>
      <point x="209" y="90" type="line"/>
      <point x="209" y="90"/>
      <point x="208" y="172"/>
      <point x="205" y="212" type="curve"/>
      <point x="166" y="686" type="line"/>
      <point x="77" y="686" type="line"/>
      <point x="139" y="0" type="line"/>
      <point x="253" y="0" type="line"/>
      <point x="401" y="465" type="line"/>
      <point x="415" y="511"/>
      <point x="436" y="603"/>
      <point x="436" y="603" type="curve"/>
      <point x="441" y="603" type="line"/>
      <point x="461" y="0" type="line"/>
      <point x="575" y="0" type="line"/>
    </contour>
    <contour>
      <point x="451" y="686" type="move" name="top"/>
    </contour>
  </outline>
</glyph>
<glyph name="X" format="1">
  <advance width="547"/>
  <unicode hex="0058"/>
  <outline>
    <contour>
      <point x="483" y="686" type="line"/>
      <point x="483" y="685"/>
      <point x="301" y="441"/>
      <point x="301" y="441" type="curve"/>
      <point x="185" y="686" type="line"/>
      <point x="85" y="686" type="line"/>
      <point x="239" y="360" type="line"/>
      <point x="-31" y="0" type="line"/>
      <point x="66" y="0" type="line"/>
      <point x="277" y="280" type="line"/>
      <point x="408" y="0" type="line"/>
      <point x="507" y="0" type="line"/>
      <point x="338" y="361" type="line"/>
      <point x="338" y="361"/>
      <point x="582" y="685"/>
      <point x="582" y="686" type="curve"/>
    </contour>
  </outline>
</glyph>
<glyph name="Y" format="1">
  <advance width="547"/>
  <unicode hex="0059"/>
  <outline>
    <contour>
      <point x="601" y="686" type="line"/>
      <point x="509" y="686" type="line"/>
      <point x="295" y="368" type="line"/>
      <point x="291" y="368" type="line"/>
      <point x="166" y="686" type="line"/>
      <point x="70" y="686" type="line"/>
      <point x="235" y="284" type="line"/>
      <point x="195" y="0" type="line"/>
      <point x="283" y="0" type="line"/>
      <point x="323" y="284" type="line"/>
    </contour>
    <contour>
      <point x="339" y="686" type="move" name="top"/>
    </contour>
  </outline>
</glyph>
<glyph name="Z" format="1">
  <advance width="501"/>
  <unicode hex="005A"/>
  <outline>
    <contour>
      <point x="439" y="0" type="line"/>
      <point x="451" y="80" type="line"/>
      <point x="121" y="80" type="line"/>
      <point x="523" y="648" type="line"/>
      <point x="526" y="686" type="line"/>
      <point x="98" y="686" type="line"/>
      <point x="86" y="606" type="line"/>
      <point x="388" y="606" type="line"/>
      <point x="-13" y="38" type="line"/>
      <point x="-16" y="0" type="line"/>
    </contour>
    <contour>
      <point x="312" y="686" type="move" name="top"/>
    </contour>
  </outline>
</glyph>
<glyph name="bracketleft" format="1">
  <advance width="228"/>
  <unicode hex="005B"/>
  <outline>
    <contour>
      <point x="270" y="735" type="line"/>
      <point x="111" y="735" type="line"/>
      <point x="-13" y="-161" type="line"/>
      <point x="145" y="-161" type="line"/>
      <point x="154" y="-96" type="line"/>
      <point x="71" y="-96" type="line"/>
      <point x="178" y="670" type="line"/>
      <point x="261" y="670" type="line"/>
    </contour>
  </outline>
</glyph>
<glyph name="backslash" format="1">
  <advance width="228"/>
  <unicode hex="005C"/>
  <outline>
    <contour>
      <point x="119" y="735" type="line"/>
      <point x="49" y="735" type="line"/>
      <point x="157" y="-49" type="line"/>
      <point x="228" y="-49" type="line"/>
    </contour>
  </outline>
</glyph>
<glyph name="bracketright" format="1">
  <advance width="228"/>
  <unicode hex="005D"/>
  <outline>
    <contour>
      <point x="241" y="735" type="line"/>
      <point x="82" y="735" type="line"/>
      <point x="73" y="670" type="line"/>
      <point x="156" y="670" type="line"/>
      <point x="49" y="-96" type="line"/>
      <point x="-33" y="-96" type="line"/>
      <point x="-42" y="-161" type="line"/>
      <point x="116" y="-161" type="line"/>
    </contour>
  </outline>
</glyph>
<glyph name="asciicircum" format="1">
  <advance width="385"/>
  <unicode hex="005E"/>
  <outline>
    <contour>
      <point x="306" y="686" type="line"/>
      <point x="199" y="686" type="line"/>
      <point x="9" y="294" type="line"/>
      <point x="98" y="294" type="line"/>
      <point x="241" y="609" type="line"/>
      <point x="298" y="294" type="line"/>
      <point x="388" y="294" type="line"/>
    </contour>
  </outline>
</glyph>
<glyph name="underscore" format="1">
  <advance width="456"/>
  <unicode hex="005F"/>
  <outline>
    <contour>
      <point x="416" y="-71" type="line"/>
      <point x="-39" y="-71" type="line"/>
      <point x="-45" y="-124" type="line"/>
      <point x="409" y="-124" type="line"/>
    </contour>
  </outline>
</glyph>
<glyph name="grave" format="1">
  <advance width="273"/>
  <unicode hex="0060"/>
  <outline>
    <contour>
      <point x="156" y="723" type="line"/>
      <point x="66" y="723" type="line"/>
      <point x="64" y="720" type="line"/>
      <point x="154" y="591" type="line"/>
      <point x="223" y="591" type="line"/>
    </contour>
    <contour>
      <point x="154" y="526" type="move" name="_top"/>
    </contour>
  </outline>
</glyph>
<glyph name="b" format="1">
  <advance width="456"/>
  <unicode hex="0062"/>
  <outline>
    <contour>
      <point x="124" y="723" type="line"/>
      <point x="23" y="0" type="line"/>
      <point x="88" y="0" type="line"/>
      <point x="106" y="73" type="line"/>
      <point x="127" y="8"/>
      <point x="169" y="-12"/>
      <point x="219" y="-12" type="curve" smooth="yes"/>
      <point x="317" y="-12"/>
      <point x="422" y="102"/>
      <point x="422" y="343" type="curve" smooth="yes"/>
      <point x="422" y="478"/>
      <point x="366" y="538"/>
      <point x="289" y="538" type="curve" smooth="yes"/>
      <point x="243" y="538"/>
      <point x="208" y="516"/>
      <point x="171" y="466" type="curve"/>
      <point x="206" y="723" type="line"/>
    </contour>
    <contour>
      <point x="207" y="61" type="curve" smooth="yes"/>
      <point x="158" y="61"/>
      <point x="134" y="99"/>
      <point x="134" y="174" type="curve" smooth="yes"/>
      <point x="134" y="254"/>
      <point x="160" y="465"/>
      <point x="264" y="465" type="curve" smooth="yes"/>
      <point x="313" y="465"/>
      <point x="338" y="427"/>
      <point x="338" y="351" type="curve" smooth="yes"/>
      <point x="338" y="265"/>
      <point x="314" y="61"/>
    </contour>
  </outline>
</glyph>
<glyph name="c" format="1">
  <advance width="410"/>
  <unicode hex="0063"/>
  <outline>
    <contour>
      <point x="240" y="538" type="curve" smooth="yes"/>
      <point x="69" y="538"/>
      <point x="31" y="334"/>
      <point x="31" y="179" type="curve" smooth="yes"/>
      <point x="31" y="48"/>
      <point x="93" y="-12"/>
      <point x="192" y="-12" type="curve" smooth="yes"/>
      <point x="299" y="-12"/>
      <point x="361" y="85"/>
      <point x="374" y="192" type="curve"/>
      <point x="292" y="192" type="line"/>
      <point x="284" y="123"/>
      <point x="246" y="61"/>
      <point x="190" y="61" type="curve" smooth="yes"/>
      <point x="142" y="61"/>
      <point x="116" y="107"/>
      <point x="116" y="186" type="curve" smooth="yes"/>
      <point x="116" y="242"/>
      <point x="130" y="465"/>
      <point x="240" y="465" type="curve" smooth="yes"/>
      <point x="284" y="465"/>
      <point x="305" y="425"/>
      <point x="305" y="348" type="curve" smooth="yes"/>
      <point x="305" y="331" type="line"/>
      <point x="390" y="331" type="line"/>
      <point x="390" y="349" type="line" smooth="yes"/>
      <point x="390" y="478"/>
      <point x="338" y="538"/>
    </contour>
    <contour>
      <point x="250" y="526" type="move" name="top"/>
    </contour>
    <contour>
      <point x="175" y="0" type="move" name="bottom"/>
    </contour>
  </outline>
</glyph>
<glyph name="i" format="1">
  <advance width="182"/>
  <unicode hex="0069"/>
  <outline>
    <contour>
      <point x="171" y="526" type="line"/>
      <point x="89" y="526" type="line"/>
      <point x="16" y="0" type="line"/>
      <point x="97" y="0" type="line"/>
    </contour>
    <contour>
      <point x="198" y="723" type="line"/>
      <point x="116" y="723" type="line"/>
      <point x="103" y="625" type="line"/>
      <point x="185" y="625" type="line"/>
    </contour>
  </outline>
</glyph>
<glyph name="j" format="1">
  <advance width="182"/>
  <unicode hex="006A"/>
  <outline>
    <contour>
      <point x="170" y="526" type="line"/>
      <point x="88" y="526" type="line"/>
      <point x="5" y="-65" type="line"/>
      <point x="2" y="-96"/>
      <point x="-16" y="-113"/>
      <point x="-47" y="-113" type="curve" smooth="yes"/>
      <point x="-91" y="-113" type="line"/>
      <point x="-99" y="-170" type="line"/>
      <point x="-83" y="-176"/>
      <point x="-56" y="-182"/>
      <point x="-32" y="-182" type="curve" smooth="yes"/>
      <point x="47" y="-182"/>
      <point x="79" y="-121"/>
      <point x="88" y="-61" type="curve"/>
    </contour>
    <contour>
      <point x="198" y="723" type="line"/>
      <point x="116" y="723" type="line"/>
      <point x="102" y="625" type="line"/>
      <point x="184" y="625" type="line"/>
    </contour>
  </outline>
</glyph>
<glyph name="k" format="1">
  <advance width="410"/>
  <unicode hex="006B"/>
  <outline>
    <contour>
      <point x="202" y="723" type="line"/>
      <point x="120" y="723" type="line"/>
      <point x="19" y="0" type="line"/>
      <point x="101" y="0" type="line"/>
      <point x="127" y="187" type="line"/>
      <point x="192" y="242" type="line"/>
      <point x="280" y="0" type="line"/>
      <point x="370" y="0" type="line"/>
      <point x="250" y="310" type="line"/>
      <point x="436" y="526" type="line"/>
      <point x="338" y="526" type="line"/>
      <point x="141" y="292" type="line"/>
    </contour>
    <contour>
      <point x="182" y="0" type="move" name="bottom"/>
    </contour>
  </outline>
</glyph>
<glyph name="l" format="1">
  <advance width="182"/>
  <unicode hex="006C"/>
  <outline>
    <contour>
      <point x="198" y="723" type="line"/>
      <point x="116" y="723" type="line"/>
      <point x="16" y="0" type="line"/>
      <point x="97" y="0" type="line"/>
    </contour>
    <contour>
      <point x="153" y="686" type="move" name="top"/>
    </contour>
    <contour>
      <point x="56" y="0" type="move" name="bottom"/>
    </contour>
    <contour>
      <point x="219" y="526" type="move" name="topright"/>
    </contour>
  </outline>
</glyph>
<glyph name="m" format="1">
  <advance width="683"/>
  <unicode hex="006D"/>
  <outline>
    <contour>
      <point x="535" y="538" type="curve" smooth="yes"/>
      <point x="452" y="538"/>
      <point x="413" y="475"/>
      <point x="399" y="446" type="curve"/>
      <point x="392" y="496"/>
      <point x="363" y="538"/>
      <point x="295" y="538" type="curve" smooth="yes"/>
      <point x="214" y="538"/>
      <point x="174" y="478"/>
      <point x="160" y="448" type="curve"/>
      <point x="160" y="526" type="line"/>
      <point x="96" y="526" type="line"/>
      <point x="22" y="0" type="line"/>
      <point x="104" y="0" type="line"/>
      <point x="145" y="294" type="line" smooth="yes"/>
      <point x="159" y="395"/>
      <point x="201" y="465"/>
      <point x="265" y="465" type="curve" smooth="yes"/>
      <point x="297" y="465"/>
      <point x="317" y="446"/>
      <point x="317" y="401" type="curve" smooth="yes"/>
      <point x="317" y="369"/>
      <point x="263" y="0"/>
      <point x="263" y="0" type="curve"/>
      <point x="345" y="0" type="line"/>
      <point x="388" y="307" type="line"/>
      <point x="401" y="402"/>
      <point x="444" y="465"/>
      <point x="505" y="465" type="curve" smooth="yes"/>
      <point x="537" y="465"/>
      <point x="557" y="446"/>
      <point x="557" y="401" type="curve" smooth="yes"/>
      <point x="557" y="369"/>
      <point x="503" y="0"/>
      <point x="503" y="0" type="curve"/>
      <point x="585" y="0" type="line"/>
      <point x="585" y="0"/>
      <point x="641" y="388"/>
      <point x="641" y="420" type="curve" smooth="yes"/>
      <point x="641" y="480"/>
      <point x="615" y="538"/>
    </contour>
  </outline>
</glyph>
<glyph name="o" format="1">
  <advance width="456"/>
  <unicode hex="006F"/>
  <outline>
    <contour>
      <point x="256" y="538" type="curve" smooth="yes"/>
      <point x="74" y="538"/>
      <point x="33" y="319"/>
      <point x="33" y="175" type="curve" smooth="yes"/>
      <point x="33" y="47"/>
      <point x="91" y="-12"/>
      <point x="199" y="-12" type="curve" smooth="yes"/>
      <point x="381" y="-12"/>
      <point x="422" y="205"/>
      <point x="422" y="349" type="curve" smooth="yes"/>
      <point x="422" y="478"/>
      <point x="364" y="538"/>
    </contour>
    <contour>
      <point x="256" y="465" type="curve" smooth="yes"/>
      <point x="310" y="465"/>
      <point x="337" y="425"/>
      <point x="337" y="348" type="curve" smooth="yes"/>
      <point x="337" y="277"/>
      <point x="321" y="61"/>
      <point x="199" y="61" type="curve" smooth="yes"/>
      <point x="142" y="61"/>
      <point x="118" y="102"/>
      <point x="118" y="186" type="curve" smooth="yes"/>
      <point x="118" y="255"/>
      <point x="135" y="465"/>
    </contour>
    <contour>
      <point x="265" y="526" type="move" name="top"/>
    </contour>
  </outline>
</glyph>
<glyph name="p" format="1">
  <advance width="456"/>
  <unicode hex="0070"/>
  <outline>
    <contour>
      <point x="290" y="538" type="curve" smooth="yes"/>
      <point x="242" y="538"/>
      <point x="198" y="512"/>
      <point x="163" y="455" type="curve"/>
      <point x="163" y="526" type="line"/>
      <point x="98" y="526" type="line"/>
      <point x="-1" y="-182" type="line"/>
      <point x="81" y="-182" type="line"/>
      <point x="115" y="58" type="line"/>
      <point x="138" y="8"/>
      <point x="176" y="-12"/>
      <point x="220" y="-12" type="curve" smooth="yes"/>
      <point x="318" y="-12"/>
      <point x="423" y="102"/>
      <point x="423" y="343" type="curve" smooth="yes"/>
      <point x="423" y="478"/>
      <point x="367" y="538"/>
    </contour>
    <contour>
      <point x="265" y="465" type="curve" smooth="yes"/>
      <point x="314" y="465"/>
      <point x="339" y="427"/>
      <point x="339" y="351" type="curve" smooth="yes"/>
      <point x="339" y="265"/>
      <point x="315" y="61"/>
      <point x="208" y="61" type="curve" smooth="yes"/>
      <point x="159" y="61"/>
      <point x="135" y="99"/>
      <point x="135" y="174" type="curve" smooth="yes"/>
      <point x="135" y="254"/>
      <point x="161" y="465"/>
    </contour>
  </outline>
</glyph>
<glyph name="q" format="1">
  <advance width="456"/>
  <unicode hex="0071"/>
  <outline>
    <contour>
      <point x="334" y="-173" type="line"/>
      <point x="432" y="526" type="line"/>
      <point x="367" y="526" type="line"/>
      <point x="349" y="453" type="line"/>
      <point x="328" y="518"/>
      <point x="286" y="538"/>
      <point x="236" y="538" type="curve" smooth="yes"/>
      <point x="138" y="538"/>
      <point x="33" y="424"/>
      <point x="33" y="183" type="curve" smooth="yes"/>
      <point x="33" y="48"/>
      <point x="89" y="-12"/>
      <point x="166" y="-12" type="curve" smooth="yes"/>
      <point x="212" y="-12"/>
      <point x="247" y="10"/>
      <point x="284" y="60" type="curve"/>
      <point x="252" y="-173" type="line"/>
    </contour>
    <contour>
      <point x="248" y="465" type="curve" smooth="yes"/>
      <point x="297" y="465"/>
      <point x="321" y="427"/>
      <point x="321" y="352" type="curve" smooth="yes"/>
      <point x="321" y="272"/>
      <point x="295" y="61"/>
      <point x="191" y="61" type="curve" smooth="yes"/>
      <point x="142" y="61"/>
      <point x="117" y="99"/>
      <point x="117" y="175" type="curve" smooth="yes"/>
      <point x="117" y="261"/>
      <point x="141" y="465"/>
    </contour>
  </outline>
</glyph>
<glyph name="r" format="1">
  <advance width="273"/>
  <unicode hex="0072"/>
  <outline>
    <contour>
      <point x="259" y="538" type="curve" smooth="yes"/>
      <point x="199" y="538"/>
      <point x="173" y="482"/>
      <point x="154" y="442" type="curve"/>
      <point x="154" y="526" type="line"/>
      <point x="90" y="526" type="line"/>
      <point x="16" y="0" type="line"/>
      <point x="98" y="0" type="line"/>
      <point x="141" y="304" type="line"/>
      <point x="154" y="397"/>
      <point x="206" y="445"/>
      <point x="258" y="445" type="curve" smooth="yes"/>
      <point x="285" y="445" type="line"/>
      <point x="297" y="530" type="line"/>
      <point x="297" y="530"/>
      <point x="281" y="538"/>
    </contour>
    <contour>
      <point x="124" y="526" type="move" name="top"/>
    </contour>
    <contour>
      <point x="57" y="0" type="move" name="bottom"/>
    </contour>
  </outline>
</glyph>
<glyph name="t" format="1">
  <advance width="228"/>
  <unicode hex="0074"/>
  <outline>
    <contour>
      <point x="203" y="672" type="line"/>
      <point x="117" y="672" type="line"/>
      <point x="96" y="526" type="line"/>
      <point x="51" y="526" type="line"/>
      <point x="41" y="453" type="line"/>
      <point x="86" y="453" type="line"/>
      <point x="86" y="453"/>
      <point x="34" y="101"/>
      <point x="34" y="75" type="curve" smooth="yes"/>
      <point x="34" y="30"/>
      <point x="54" y="-10"/>
      <point x="115" y="-10" type="curve" smooth="yes"/>
      <point x="135" y="-10"/>
      <point x="160" y="-4"/>
      <point x="176" y="4" type="curve"/>
      <point x="184" y="61" type="line"/>
      <point x="155" y="61" type="line" smooth="yes"/>
      <point x="130" y="61"/>
      <point x="118" y="74"/>
      <point x="118" y="98" type="curve" smooth="yes"/>
      <point x="118" y="110"/>
      <point x="168" y="453"/>
      <point x="168" y="453" type="curve"/>
      <point x="239" y="453" type="line"/>
      <point x="249" y="526" type="line"/>
      <point x="178" y="526" type="line"/>
    </contour>
    <contour>
      <point x="109" y="0" type="move" name="bottom"/>
    </contour>
    <contour>
      <point x="102" y="263" type="move" name="center"/>
    </contour>
  </outline>
</glyph>
<glyph name="v" format="1">
  <advance width="410"/>
  <unicode hex="0076"/>
  <outline>
    <contour>
      <point x="447" y="526" type="line"/>
      <point x="359" y="526" type="line"/>
      <point x="191" y="119" type="line"/>
      <point x="187" y="119" type="line"/>
      <point x="133" y="526" type="line"/>
      <point x="46" y="526" type="line"/>
      <point x="124" y="0" type="line"/>
      <point x="213" y="0" type="line"/>
    </contour>
  </outline>
</glyph>
<glyph name="x" format="1">
  <advance width="410"/>
  <unicode hex="0078"/>
  <outline>
    <contour>
      <point x="436" y="526" type="line"/>
      <point x="338" y="526" type="line"/>
      <point x="219" y="349" type="line"/>
      <point x="147" y="526" type="line"/>
      <point x="52" y="526" type="line"/>
      <point x="164" y="270" type="line"/>
      <point x="-27" y="0" type="line"/>
      <point x="69" y="0" type="line"/>
      <point x="198" y="190" type="line"/>
      <point x="275" y="0" type="line"/>
      <point x="370" y="0" type="line"/>
      <point x="253" y="269" type="line"/>
    </contour>
  </outline>
</glyph>
<glyph name="z" format="1">
  <advance width="410"/>
  <unicode hex="007A"/>
  <outline>
    <contour>
      <point x="414" y="526" type="line"/>
      <point x="88" y="526" type="line"/>
      <point x="78" y="453" type="line"/>
      <point x="289" y="453" type="line"/>
      <point x="5" y="39" type="line"/>
      <point x="2" y="0" type="line"/>
      <point x="356" y="0" type="line"/>
      <point x="366" y="73" type="line"/>
      <point x="126" y="73" type="line"/>
      <point x="411" y="488" type="line"/>
    </contour>
    <contour>
      <point x="250" y="526" type="move" name="top"/>
    </contour>
  </outline>
</glyph>
<glyph name="braceleft" format="1">
  <advance width="274"/>
  <unicode hex="007B"/>
  <outline>
    <contour>
      <point x="316" y="735" type="line"/>
      <point x="232" y="735"/>
      <point x="157" y="713"/>
      <point x="139" y="587" type="curve" smooth="yes"/>
      <point x="111" y="390" type="line"/>
      <point x="104" y="345"/>
      <point x="61" y="330"/>
      <point x="25" y="330" type="curve"/>
      <point x="14" y="246" type="line"/>
      <point x="47" y="246"/>
      <point x="83" y="233"/>
      <point x="83" y="195" type="curve" smooth="yes"/>
      <point x="83" y="186"/>
      <point x="54" y="-11"/>
      <point x="54" y="-11" type="curve"/>
      <point x="52" y="-24"/>
      <point x="51" y="-35"/>
      <point x="51" y="-46" type="curve" smooth="yes"/>
      <point x="51" y="-141"/>
      <point x="116" y="-159"/>
      <point x="191" y="-159" type="curve"/>
      <point x="199" y="-102" type="line"/>
      <point x="166" y="-102"/>
      <point x="129" y="-92"/>
      <point x="129" y="-46" type="curve" smooth="yes"/>
      <point x="129" y="-12"/>
      <point x="153" y="120"/>
      <point x="153" y="202" type="curve" smooth="yes"/>
      <point x="153" y="253"/>
      <point x="134" y="283"/>
      <point x="79" y="283" type="curve"/>
      <point x="80" y="293" type="line"/>
      <point x="145" y="293"/>
      <point x="171" y="333"/>
      <point x="183" y="401" type="curve"/>
      <point x="195" y="471"/>
      <point x="210" y="538"/>
      <point x="219" y="607" type="curve" smooth="yes"/>
      <point x="227" y="666"/>
      <point x="273" y="678"/>
      <point x="308" y="678" type="curve"/>
    </contour>
  </outline>
</glyph>
<glyph name="bar" format="1">
  <advance width="213"/>
  <unicode hex="007C"/>
  <outline>
    <contour>
      <point x="146" y="723" type="line"/>
      <point x="67" y="723" type="line"/>
      <point x="67" y="-173" type="line"/>
      <point x="146" y="-173" type="line"/>
    </contour>
  </outline>
</glyph>
<glyph name="braceright" format="1">
  <advance width="274"/>
  <unicode hex="007D"/>
  <outline>
    <contour>
      <point x="75" y="678" type="line"/>
      <point x="108" y="678"/>
      <point x="145" y="668"/>
      <point x="145" y="622" type="curve" smooth="yes"/>
      <point x="145" y="588"/>
      <point x="121" y="456"/>
      <point x="121" y="374" type="curve" smooth="yes"/>
      <point x="121" y="323"/>
      <point x="140" y="293"/>
      <point x="195" y="293" type="curve"/>
      <point x="194" y="283" type="line"/>
      <point x="129" y="283"/>
      <point x="103" y="243"/>
      <point x="91" y="175" type="curve"/>
      <point x="79" y="105"/>
      <point x="64" y="38"/>
      <point x="55" y="-31" type="curve"/>
      <point x="47" y="-90"/>
      <point x="1" y="-102"/>
      <point x="-34" y="-102" type="curve"/>
      <point x="-42" y="-159" type="line"/>
      <point x="42" y="-159"/>
      <point x="117" y="-137"/>
      <point x="135" y="-11" type="curve"/>
      <point x="163" y="186" type="line"/>
      <point x="170" y="231"/>
      <point x="213" y="246"/>
      <point x="249" y="246" type="curve"/>
      <point x="260" y="330" type="line"/>
      <point x="227" y="330"/>
      <point x="191" y="343"/>
      <point x="191" y="381" type="curve" smooth="yes"/>
      <point x="191" y="390"/>
      <point x="220" y="587"/>
      <point x="220" y="587" type="curve"/>
      <point x="222" y="600"/>
      <point x="223" y="611"/>
      <point x="223" y="622" type="curve" smooth="yes"/>
      <point x="223" y="717"/>
      <point x="158" y="735"/>
      <point x="83" y="735" type="curve"/>
    </contour>
  </outline>
</glyph>
<glyph name="asciitilde" format="1">
  <advance width="479"/>
  <unicode hex="007E"/>
  <outline>
    <contour>
      <point x="328" y="315" type="curve" smooth="yes"/>
      <point x="264" y="315"/>
      <point x="225" y="376"/>
      <point x="163" y="376" type="curve" smooth="yes"/>
      <point x="84" y="376"/>
      <point x="35" y="303"/>
      <point x="35" y="303" type="curve"/>
      <point x="22" y="211" type="line"/>
      <point x="25" y="214"/>
      <point x="83" y="284"/>
      <point x="150" y="284" type="curve" smooth="yes"/>
      <point x="214" y="284"/>
      <point x="253" y="223"/>
      <point x="315" y="223" type="curve" smooth="yes"/>
      <point x="394" y="223"/>
      <point x="443" y="296"/>
      <point x="443" y="296" type="curve"/>
      <point x="456" y="388" type="line"/>
      <point x="453" y="384"/>
      <point x="395" y="315"/>
    </contour>
  </outline>
</glyph>
<glyph name="exclamdown" format="1">
  <advance width="273"/>
  <unicode hex="00A1"/>
  <outline>
    <contour>
      <point x="145" y="355" type="line"/>
      <point x="113" y="184"/>
      <point x="81" y="11"/>
      <point x="47" y="-160" type="curve"/>
      <point x="160" y="-160" type="line"/>
      <point x="163" y="-103"/>
      <point x="190" y="174"/>
      <point x="207" y="355" type="curve"/>
    </contour>
    <contour>
      <point x="251" y="526" type="line"/>
      <point x="151" y="526" type="line"/>
      <point x="136" y="418" type="line"/>
      <point x="236" y="418" type="line"/>
    </contour>
  </outline>
</glyph>
<glyph name="cent" format="1">
  <advance width="456"/>
  <unicode hex="00A2"/>
  <outline>
    <contour>
      <point x="320" y="723" type="line"/>
      <point x="271" y="723" type="line"/>
      <point x="256" y="617" type="line"/>
      <point x="90" y="609"/>
      <point x="53" y="410"/>
      <point x="53" y="259" type="curve" smooth="yes"/>
      <point x="53" y="146"/>
      <point x="100" y="86"/>
      <point x="179" y="71" type="curve"/>
      <point x="162" y="-48" type="line"/>
      <point x="211" y="-48" type="line"/>
      <point x="227" y="68" type="line"/>
      <point x="332" y="73"/>
      <point x="393" y="168"/>
      <point x="406" y="272" type="curve"/>
      <point x="328" y="272" type="line"/>
      <point x="321" y="211"/>
      <point x="287" y="156"/>
      <point x="238" y="144" type="curve"/>
      <point x="294" y="540" type="line"/>
      <point x="325" y="527"/>
      <point x="341" y="489"/>
      <point x="341" y="428" type="curve" smooth="yes"/>
      <point x="341" y="411" type="line"/>
      <point x="422" y="411" type="line"/>
      <point x="422" y="429" type="line" smooth="yes"/>
      <point x="422" y="541"/>
      <point x="381" y="600"/>
      <point x="304" y="614" type="curve"/>
    </contour>
    <contour>
      <point x="189" y="145" type="line"/>
      <point x="153" y="159"/>
      <point x="134" y="201"/>
      <point x="134" y="266" type="curve" smooth="yes"/>
      <point x="134" y="318"/>
      <point x="147" y="517"/>
      <point x="245" y="542" type="curve"/>
    </contour>
  </outline>
</glyph>
<glyph name="sterling" format="1">
  <advance width="456"/>
  <unicode hex="00A3"/>
  <outline>
    <contour>
      <point x="309" y="698" type="curve" smooth="yes"/>
      <point x="212" y="698"/>
      <point x="150" y="637"/>
      <point x="130" y="499" type="curve" smooth="yes"/>
      <point x="112" y="376" type="line"/>
      <point x="40" y="376" type="line"/>
      <point x="30" y="304" type="line"/>
      <point x="102" y="304" type="line"/>
      <point x="71" y="79" type="line"/>
      <point x="11" y="79" type="line"/>
      <point x="-1" y="0" type="line"/>
      <point x="381" y="0" type="line"/>
      <point x="393" y="79" type="line"/>
      <point x="144" y="79" type="line"/>
      <point x="184" y="304" type="line"/>
      <point x="318" y="304" type="line"/>
      <point x="328" y="376" type="line"/>
      <point x="195" y="376" type="line"/>
      <point x="215" y="515" type="line" smooth="yes"/>
      <point x="226" y="591"/>
      <point x="257" y="625"/>
      <point x="308" y="625" type="curve" smooth="yes"/>
      <point x="351" y="625"/>
      <point x="374" y="599"/>
      <point x="374" y="543" type="curve" smooth="yes"/>
      <point x="374" y="532"/>
      <point x="373" y="520"/>
      <point x="368" y="491" type="curve"/>
      <point x="450" y="491" type="line"/>
      <point x="455" y="524"/>
      <point x="456" y="541"/>
      <point x="456" y="558" type="curve" smooth="yes"/>
      <point x="456" y="660"/>
      <point x="399" y="698"/>
    </contour>
  </outline>
</glyph>
<glyph name="yen" format="1">
  <advance width="456"/>
  <unicode hex="00A5"/>
  <outline>
    <contour>
      <point x="513" y="686" type="line"/>
      <point x="430" y="686" type="line"/>
      <point x="256" y="393" type="line"/>
      <point x="252" y="393" type="line"/>
      <point x="157" y="686" type="line"/>
      <point x="62" y="686" type="line"/>
      <point x="168" y="369" type="line"/>
      <point x="40" y="369" type="line"/>
      <point x="31" y="304" type="line"/>
      <point x="190" y="304" type="line"/>
      <point x="180" y="234" type="line"/>
      <point x="21" y="234" type="line"/>
      <point x="12" y="169" type="line"/>
      <point x="171" y="169" type="line"/>
      <point x="147" y="0" type="line"/>
      <point x="235" y="0" type="line"/>
      <point x="259" y="169" type="line"/>
      <point x="418" y="169" type="line"/>
      <point x="427" y="234" type="line"/>
      <point x="268" y="234" type="line"/>
      <point x="278" y="304" type="line"/>
      <point x="437" y="304" type="line"/>
      <point x="446" y="369" type="line"/>
      <point x="318" y="369" type="line"/>
    </contour>
  </outline>
</glyph>
<glyph name="brokenbar" format="1">
  <advance width="213"/>
  <unicode hex="00A6"/>
  <outline>
    <contour>
      <point x="146" y="723" type="line"/>
      <point x="67" y="723" type="line"/>
      <point x="67" y="343" type="line"/>
      <point x="146" y="343" type="line"/>
    </contour>
    <contour>
      <point x="146" y="207" type="line"/>
      <point x="67" y="207" type="line"/>
      <point x="67" y="-173" type="line"/>
      <point x="146" y="-173" type="line"/>
    </contour>
  </outline>
</glyph>
<glyph name="section" format="1">
  <advance width="456"/>
  <unicode hex="00A7"/>
  <outline>
    <contour>
      <point x="288" y="698" type="curve" smooth="yes"/>
      <point x="180" y="698"/>
      <point x="111" y="628"/>
      <point x="111" y="518" type="curve" smooth="yes"/>
      <point x="111" y="469"/>
      <point x="129" y="437"/>
      <point x="154" y="412" type="curve"/>
      <point x="109" y="384"/>
      <point x="63" y="328"/>
      <point x="63" y="246" type="curve" smooth="yes"/>
      <point x="63" y="86"/>
      <point x="262" y="101"/>
      <point x="262" y="-21" type="curve" smooth="yes"/>
      <point x="262" y="-45"/>
      <point x="251" y="-110"/>
      <point x="180" y="-110" type="curve" smooth="yes"/>
      <point x="132" y="-110"/>
      <point x="117" y="-80"/>
      <point x="117" y="-45" type="curve" smooth="yes"/>
      <point x="117" y="-40"/>
      <point x="117" y="-34"/>
      <point x="120" y="-19" type="curve"/>
      <point x="35" y="-19" type="line"/>
      <point x="32" y="-26"/>
      <point x="29" y="-48"/>
      <point x="29" y="-61" type="curve" smooth="yes"/>
      <point x="29" y="-129"/>
      <point x="77" y="-182"/>
      <point x="172" y="-182" type="curve" smooth="yes"/>
      <point x="280" y="-182"/>
      <point x="349" y="-112"/>
      <point x="349" y="-2" type="curve" smooth="yes"/>
      <point x="349" y="47"/>
      <point x="331" y="80"/>
      <point x="306" y="105" type="curve"/>
      <point x="351" y="133"/>
      <point x="397" y="188"/>
      <point x="397" y="270" type="curve" smooth="yes"/>
      <point x="397" y="430"/>
      <point x="198" y="415"/>
      <point x="198" y="537" type="curve" smooth="yes"/>
      <point x="198" y="561"/>
      <point x="209" y="626"/>
      <point x="280" y="626" type="curve" smooth="yes"/>
      <point x="328" y="626"/>
      <point x="343" y="596"/>
      <point x="343" y="561" type="curve" smooth="yes"/>
      <point x="343" y="556"/>
      <point x="343" y="550"/>
      <point x="340" y="535" type="curve"/>
      <point x="425" y="535" type="line"/>
      <point x="428" y="542"/>
      <point x="431" y="564"/>
      <point x="431" y="577" type="curve" smooth="yes"/>
      <point x="431" y="645"/>
      <point x="383" y="698"/>
    </contour>
    <contour>
      <point x="195" y="380" type="curve"/>
      <point x="250" y="342"/>
      <point x="314" y="314"/>
      <point x="314" y="239" type="curve" smooth="yes"/>
      <point x="314" y="192"/>
      <point x="293" y="155"/>
      <point x="265" y="136" type="curve"/>
      <point x="210" y="174"/>
      <point x="146" y="202"/>
      <point x="146" y="277" type="curve" smooth="yes"/>
      <point x="146" y="324"/>
      <point x="167" y="361"/>
    </contour>
  </outline>
</glyph>
<glyph name="dieresis" format="1">
  <advance width="273"/>
  <unicode hex="00A8"/>
  <outline>
    <contour>
      <point x="333" y="723" type="line"/>
      <point x="246" y="723" type="line"/>
      <point x="233" y="628" type="line"/>
      <point x="320" y="628" type="line"/>
    </contour>
    <contour>
      <point x="183" y="723" type="line"/>
      <point x="96" y="723" type="line"/>
      <point x="83" y="628" type="line"/>
      <point x="170" y="628" type="line"/>
    </contour>
    <contour>
      <point x="186" y="526" type="move" name="_top"/>
    </contour>
  </outline>
</glyph>
<glyph name="ordfeminine" format="1">
  <advance width="303"/>
  <unicode hex="00AA"/>
  <outline>
    <contour>
      <point x="199" y="736" type="curve" smooth="yes"/>
      <point x="133" y="736"/>
      <point x="61" y="658"/>
      <point x="61" y="495" type="curve" smooth="yes"/>
      <point x="61" y="403"/>
      <point x="99" y="362"/>
      <point x="152" y="362" type="curve" smooth="yes"/>
      <point x="182" y="362"/>
      <point x="205" y="380"/>
      <point x="229" y="418" type="curve"/>
      <point x="230" y="378"/>
      <point x="251" y="362"/>
      <point x="283" y="362" type="curve" smooth="yes"/>
      <point x="301" y="362"/>
      <point x="314" y="368"/>
      <point x="321" y="373" type="curve"/>
      <point x="326" y="412" type="line"/>
      <point x="305" y="412" type="line" smooth="yes"/>
      <point x="296" y="412"/>
      <point x="288" y="417"/>
      <point x="288" y="431" type="curve" smooth="yes"/>
      <point x="288" y="439"/>
      <point x="330" y="728"/>
      <point x="330" y="728" type="curve"/>
      <point x="301" y="728" type="line"/>
      <point x="268" y="678" type="line"/>
      <point x="256" y="722"/>
      <point x="230" y="736"/>
    </contour>
    <contour>
      <point x="207" y="682" type="curve" smooth="yes"/>
      <point x="236" y="682"/>
      <point x="249" y="658"/>
      <point x="249" y="610" type="curve" smooth="yes"/>
      <point x="249" y="556"/>
      <point x="229" y="416"/>
      <point x="169" y="416" type="curve" smooth="yes"/>
      <point x="138" y="416"/>
      <point x="123" y="440"/>
      <point x="123" y="489" type="curve" smooth="yes"/>
      <point x="123" y="547"/>
      <point x="139" y="682"/>
    </contour>
  </outline>
</glyph>
<glyph name="guillemotleft" format="1">
  <advance width="456"/>
  <unicode hex="00AB"/>
  <outline>
    <contour>
      <point x="445" y="526" type="line"/>
      <point x="373" y="526" type="line"/>
      <point x="205" y="326" type="line"/>
      <point x="318" y="126" type="line"/>
      <point x="388" y="126" type="line"/>
      <point x="305" y="326" type="line"/>
    </contour>
    <contour>
      <point x="294" y="526" type="line"/>
      <point x="221" y="526" type="line"/>
      <point x="54" y="326" type="line"/>
      <point x="166" y="126" type="line"/>
      <point x="237" y="126" type="line"/>
      <point x="153" y="326" type="line"/>
    </contour>
  </outline>
</glyph>
<glyph name="logicalnot" format="1">
  <advance width="479"/>
  <unicode hex="00AC"/>
  <outline>
    <contour>
      <point x="452" y="453" type="line"/>
      <point x="56" y="453" type="line"/>
      <point x="43" y="360" type="line"/>
      <point x="355" y="360" type="line"/>
      <point x="333" y="197" type="line"/>
      <point x="417" y="197" type="line"/>
    </contour>
  </outline>
</glyph>
<glyph name="uni00AD" format="1">
  <advance width="273"/>
  <unicode hex="00AD"/>
  <outline>
    <contour>
      <point x="268" y="319" type="line"/>
      <point x="16" y="319" type="line"/>
      <point x="3" y="221" type="line"/>
      <point x="255" y="221" type="line"/>
    </contour>
  </outline>
</glyph>
<glyph name="registered" format="1">
  <advance width="604"/>
  <unicode hex="00AE"/>
  <outline>
    <contour>
      <point x="302" y="698" type="curve" smooth="yes"/>
      <point x="127" y="698"/>
      <point x="21" y="559"/>
      <point x="21" y="343" type="curve" smooth="yes"/>
      <point x="21" y="127"/>
      <point x="127" y="-12"/>
      <point x="302" y="-12" type="curve" smooth="yes"/>
      <point x="477" y="-12"/>
      <point x="583" y="127"/>
      <point x="583" y="343" type="curve" smooth="yes"/>
      <point x="583" y="559"/>
      <point x="477" y="698"/>
    </contour>
    <contour>
      <point x="302" y="651" type="curve" smooth="yes"/>
      <point x="448" y="651"/>
      <point x="537" y="530"/>
      <point x="537" y="343" type="curve" smooth="yes"/>
      <point x="537" y="156"/>
      <point x="448" y="35"/>
      <point x="302" y="35" type="curve" smooth="yes"/>
      <point x="156" y="35"/>
      <point x="67" y="156"/>
      <point x="67" y="343" type="curve" smooth="yes"/>
      <point x="67" y="530"/>
      <point x="156" y="651"/>
    </contour>
    <contour>
      <point x="174" y="550" type="line"/>
      <point x="174" y="148" type="line"/>
      <point x="231" y="148" type="line"/>
      <point x="231" y="323" type="line"/>
      <point x="312" y="323" type="line" smooth="yes"/>
      <point x="339" y="323"/>
      <point x="377" y="303"/>
      <point x="377" y="221" type="curve" smooth="yes"/>
      <point x="377" y="162"/>
      <point x="404" y="145"/>
      <point x="434" y="145" type="curve" smooth="yes"/>
      <point x="445" y="145"/>
      <point x="458" y="148"/>
      <point x="463" y="150" type="curve"/>
      <point x="463" y="167" type="line"/>
      <point x="445" y="174"/>
      <point x="435" y="188"/>
      <point x="435" y="244" type="curve" smooth="yes"/>
      <point x="435" y="321"/>
      <point x="387" y="346"/>
      <point x="375" y="351" type="curve"/>
      <point x="375" y="355" type="line"/>
      <point x="410" y="367"/>
      <point x="438" y="401"/>
      <point x="438" y="449" type="curve" smooth="yes"/>
      <point x="438" y="509"/>
      <point x="394" y="550"/>
      <point x="335" y="550" type="curve" smooth="yes"/>
    </contour>
    <contour>
      <point x="317" y="497" type="line" smooth="yes"/>
      <point x="354" y="497"/>
      <point x="379" y="476"/>
      <point x="379" y="438" type="curve" smooth="yes"/>
      <point x="379" y="402"/>
      <point x="354" y="376"/>
      <point x="314" y="376" type="curve" smooth="yes"/>
      <point x="231" y="376" type="line"/>
      <point x="231" y="497" type="line"/>
    </contour>
  </outline>
</glyph>
<glyph name="macron" format="1">
  <advance width="273"/>
  <unicode hex="00AF"/>
  <outline>
    <contour>
      <point x="341" y="671" type="line"/>
      <point x="91" y="671" type="line"/>
      <point x="80" y="599" type="line"/>
      <point x="330" y="599" type="line"/>
    </contour>
    <contour>
      <point x="199" y="526" type="move" name="_top"/>
    </contour>
  </outline>
</glyph>
<glyph name="degree" format="1">
  <advance width="400"/>
  <unicode hex="00B0"/>
  <outline>
    <contour>
      <point x="210" y="698" type="curve" smooth="yes"/>
      <point x="135" y="698"/>
      <point x="75" y="638"/>
      <point x="75" y="563" type="curve" smooth="yes"/>
      <point x="75" y="488"/>
      <point x="135" y="428"/>
      <point x="210" y="428" type="curve" smooth="yes"/>
      <point x="285" y="428"/>
      <point x="345" y="488"/>
      <point x="345" y="563" type="curve" smooth="yes"/>
      <point x="345" y="638"/>
      <point x="285" y="698"/>
    </contour>
    <contour>
      <point x="210" y="644" type="curve" smooth="yes"/>
      <point x="255" y="644"/>
      <point x="291" y="608"/>
      <point x="291" y="563" type="curve" smooth="yes"/>
      <point x="291" y="518"/>
      <point x="255" y="481"/>
      <point x="210" y="481" type="curve" smooth="yes"/>
      <point x="165" y="481"/>
      <point x="128" y="518"/>
      <point x="128" y="563" type="curve" smooth="yes"/>
      <point x="128" y="608"/>
      <point x="165" y="644"/>
    </contour>
  </outline>
</glyph>
<glyph name="plusminus" format="1">
  <advance width="549"/>
  <unicode hex="00B1"/>
  <outline>
    <contour>
      <point x="355" y="578" type="line"/>
      <point x="272" y="578" type="line"/>
      <point x="246" y="394" type="line"/>
      <point x="92" y="394" type="line"/>
      <point x="80" y="310" type="line"/>
      <point x="234" y="310" type="line"/>
      <point x="209" y="127" type="line"/>
      <point x="292" y="127" type="line"/>
      <point x="317" y="310" type="line"/>
      <point x="472" y="310" type="line"/>
      <point x="484" y="394" type="line"/>
      <point x="329" y="394" type="line"/>
    </contour>
    <contour>
      <point x="441" y="83" type="line"/>
      <point x="49" y="83" type="line"/>
      <point x="37" y="0" type="line"/>
      <point x="429" y="0" type="line"/>
    </contour>
  </outline>
</glyph>
<glyph name="twosuperior" format="1">
  <advance width="273"/>
  <unicode hex="00B2"/>
  <outline>
    <contour>
      <point x="208" y="735" type="curve" smooth="yes"/>
      <point x="144" y="735"/>
      <point x="81" y="689"/>
      <point x="80" y="579" type="curve"/>
      <point x="143" y="579" type="line"/>
      <point x="147" y="610" type="line" smooth="yes"/>
      <point x="152" y="646"/>
      <point x="169" y="676"/>
      <point x="203" y="676" type="curve" smooth="yes"/>
      <point x="233" y="676"/>
      <point x="242" y="656"/>
      <point x="242" y="636" type="curve" smooth="yes"/>
      <point x="242" y="524"/>
      <point x="57" y="465"/>
      <point x="41" y="338" type="curve"/>
      <point x="38" y="322" type="line"/>
      <point x="265" y="322" type="line"/>
      <point x="274" y="385" type="line"/>
      <point x="128" y="385" type="line"/>
      <point x="144" y="412"/>
      <point x="169" y="434"/>
      <point x="191" y="455" type="curve"/>
      <point x="248" y="507"/>
      <point x="309" y="570"/>
      <point x="309" y="644" type="curve" smooth="yes"/>
      <point x="309" y="709"/>
      <point x="265" y="735"/>
    </contour>
  </outline>
</glyph>
<glyph name="threesuperior" format="1">
  <advance width="273"/>
  <unicode hex="00B3"/>
  <outline>
    <contour>
      <point x="207" y="735" type="curve" smooth="yes"/>
      <point x="145" y="735"/>
      <point x="98" y="690"/>
      <point x="87" y="620" type="curve" smooth="yes"/>
      <point x="84" y="602" type="line"/>
      <point x="147" y="602" type="line"/>
      <point x="149" y="615" type="line" smooth="yes"/>
      <point x="155" y="658"/>
      <point x="178" y="678"/>
      <point x="205" y="678" type="curve" smooth="yes"/>
      <point x="226" y="678"/>
      <point x="243" y="664"/>
      <point x="243" y="632" type="curve" smooth="yes"/>
      <point x="243" y="581"/>
      <point x="214" y="557"/>
      <point x="185" y="557" type="curve" smooth="yes"/>
      <point x="155" y="557" type="line"/>
      <point x="147" y="500" type="line"/>
      <point x="176" y="500" type="line" smooth="yes"/>
      <point x="202" y="500"/>
      <point x="224" y="490"/>
      <point x="224" y="453" type="curve" smooth="yes"/>
      <point x="224" y="398"/>
      <point x="194" y="373"/>
      <point x="159" y="373" type="curve" smooth="yes"/>
      <point x="131" y="373"/>
      <point x="117" y="389"/>
      <point x="117" y="420" type="curve" smooth="yes"/>
      <point x="117" y="426"/>
      <point x="117" y="432"/>
      <point x="120" y="452" type="curve"/>
      <point x="56" y="452" type="line"/>
      <point x="54" y="441"/>
      <point x="53" y="426"/>
      <point x="53" y="414" type="curve" smooth="yes"/>
      <point x="53" y="353"/>
      <point x="90" y="316"/>
      <point x="160" y="316" type="curve" smooth="yes"/>
      <point x="226" y="316"/>
      <point x="287" y="367"/>
      <point x="287" y="452" type="curve" smooth="yes"/>
      <point x="287" y="490"/>
      <point x="270" y="517"/>
      <point x="245" y="531" type="curve"/>
      <point x="282" y="552"/>
      <point x="307" y="584"/>
      <point x="307" y="642" type="curve" smooth="yes"/>
      <point x="307" y="702"/>
      <point x="269" y="735"/>
    </contour>
  </outline>
</glyph>
<glyph name="acute" format="1">
  <advance width="273"/>
  <unicode hex="00B4"/>
  <outline>
    <contour>
      <point x="308" y="723" type="line"/>
      <point x="218" y="723" type="line"/>
      <point x="132" y="591" type="line"/>
      <point x="201" y="591" type="line"/>
      <point x="309" y="720" type="line"/>
    </contour>
    <contour>
      <point x="175" y="526" type="move" name="_top"/>
    </contour>
  </outline>
</glyph>
<glyph name="mu" format="1">
  <advance width="576"/>
  <unicode hex="00B5"/>
  <outline>
    <contour>
      <point x="505" y="526" type="line"/>
      <point x="423" y="526" type="line"/>
      <point x="382" y="232" type="line"/>
      <point x="368" y="131"/>
      <point x="324" y="61"/>
      <point x="257" y="61" type="curve" smooth="yes"/>
      <point x="218" y="61"/>
      <point x="197" y="80"/>
      <point x="197" y="125" type="curve" smooth="yes"/>
      <point x="197" y="157"/>
      <point x="251" y="526"/>
      <point x="251" y="526" type="curve"/>
      <point x="169" y="526" type="line"/>
      <point x="70" y="-173" type="line"/>
      <point x="152" y="-173" type="line"/>
      <point x="175" y="-3" type="line"/>
      <point x="189" y="-9"/>
      <point x="206" y="-12"/>
      <point x="227" y="-12" type="curve" smooth="yes"/>
      <point x="311" y="-12"/>
      <point x="352" y="47"/>
      <point x="367" y="77" type="curve"/>
      <point x="367" y="0" type="line"/>
      <point x="431" y="0" type="line"/>
    </contour>
  </outline>
</glyph>
<glyph name="paragraph" format="1">
  <advance width="440"/>
  <unicode hex="00B6"/>
  <outline>
    <contour>
      <point x="479" y="686" type="line"/>
      <point x="270" y="686" type="line" smooth="yes"/>
      <point x="153" y="686"/>
      <point x="44" y="589"/>
      <point x="44" y="431" type="curve" smooth="yes"/>
      <point x="44" y="335"/>
      <point x="101" y="261"/>
      <point x="186" y="250" type="curve"/>
      <point x="126" y="-173" type="line"/>
      <point x="191" y="-173" type="line"/>
      <point x="303" y="625" type="line"/>
      <point x="356" y="625" type="line"/>
      <point x="244" y="-173" type="line"/>
      <point x="310" y="-173" type="line"/>
      <point x="422" y="625" type="line"/>
      <point x="470" y="625" type="line"/>
    </contour>
  </outline>
</glyph>
<glyph name="cedilla" format="1">
  <advance width="273"/>
  <unicode hex="00B8"/>
  <outline>
    <contour>
      <point x="163" y="11" type="line"/>
      <point x="108" y="11" type="line"/>
      <point x="82" y="-77" type="line"/>
      <point x="115" y="-77" type="line" smooth="yes"/>
      <point x="137" y="-77"/>
      <point x="146" y="-83"/>
      <point x="146" y="-95" type="curve" smooth="yes"/>
      <point x="146" y="-119"/>
      <point x="130" y="-125"/>
      <point x="106" y="-125" type="curve" smooth="yes"/>
      <point x="30" y="-125" type="line"/>
      <point x="23" y="-174" type="line"/>
      <point x="46" y="-179"/>
      <point x="78" y="-182"/>
      <point x="106" y="-182" type="curve" smooth="yes"/>
      <point x="147" y="-182"/>
      <point x="222" y="-167"/>
      <point x="222" y="-90" type="curve" smooth="yes"/>
      <point x="222" y="-53"/>
      <point x="188" y="-39"/>
      <point x="149" y="-36" type="curve"/>
    </contour>
    <contour>
      <point x="132" y="0" type="move" name="_bottom"/>
    </contour>
  </outline>
</glyph>
<glyph name="onesuperior" format="1">
  <advance width="273"/>
  <unicode hex="00B9"/>
  <outline>
    <contour>
      <point x="251" y="724" type="line"/>
      <point x="222" y="724" type="line"/>
      <point x="188" y="703"/>
      <point x="134" y="685"/>
      <point x="103" y="681" type="curve"/>
      <point x="97" y="638" type="line"/>
      <point x="177" y="638" type="line"/>
      <point x="140" y="380" type="line"/>
      <point x="61" y="380" type="line"/>
      <point x="53" y="322" type="line"/>
      <point x="267" y="322" type="line"/>
      <point x="275" y="380" type="line"/>
      <point x="202" y="380" type="line"/>
    </contour>
  </outline>
</glyph>
<glyph name="ordmasculine" format="1">
  <advance width="299"/>
  <unicode hex="00BA"/>
  <outline>
    <contour>
      <point x="210" y="735" type="curve" smooth="yes"/>
      <point x="86" y="735"/>
      <point x="58" y="586"/>
      <point x="58" y="488" type="curve" smooth="yes"/>
      <point x="58" y="401"/>
      <point x="97" y="361"/>
      <point x="171" y="361" type="curve" smooth="yes"/>
      <point x="295" y="361"/>
      <point x="323" y="509"/>
      <point x="323" y="606" type="curve" smooth="yes"/>
      <point x="323" y="694"/>
      <point x="283" y="735"/>
    </contour>
    <contour>
      <point x="210" y="681" type="curve" smooth="yes"/>
      <point x="243" y="681"/>
      <point x="260" y="655"/>
      <point x="260" y="606" type="curve" smooth="yes"/>
      <point x="260" y="559"/>
      <point x="250" y="415"/>
      <point x="171" y="415" type="curve" smooth="yes"/>
      <point x="136" y="415"/>
      <point x="121" y="442"/>
      <point x="121" y="496" type="curve" smooth="yes"/>
      <point x="121" y="542"/>
      <point x="131" y="681"/>
    </contour>
  </outline>
</glyph>
<glyph name="guillemotright" format="1">
  <advance width="456"/>
  <unicode hex="00BB"/>
  <outline>
    <contour>
      <point x="301" y="526" type="line"/>
      <point x="230" y="526" type="line"/>
      <point x="315" y="326" type="line"/>
      <point x="173" y="126" type="line"/>
      <point x="246" y="126" type="line"/>
      <point x="414" y="326" type="line"/>
    </contour>
    <contour>
      <point x="149" y="526" type="line"/>
      <point x="79" y="526" type="line"/>
      <point x="163" y="326" type="line"/>
      <point x="22" y="126" type="line"/>
      <point x="94" y="126" type="line"/>
      <point x="263" y="326" type="line"/>
    </contour>
  </outline>
</glyph>
<glyph name="onequarter" format="1">
  <advance width="684"/>
  <unicode hex="00BC"/>
  <outline>
    <contour>
      <point x="656" y="698" type="line"/>
      <point x="594" y="698" type="line"/>
      <point x="80" y="-12" type="line"/>
      <point x="143" y="-12" type="line"/>
    </contour>
    <contour>
      <point x="227" y="686" type="line"/>
      <point x="198" y="686" type="line"/>
      <point x="164" y="665"/>
      <point x="110" y="647"/>
      <point x="79" y="643" type="curve"/>
      <point x="73" y="600" type="line"/>
      <point x="153" y="600" type="line"/>
      <point x="116" y="342" type="line"/>
      <point x="37" y="342" type="line"/>
      <point x="29" y="284" type="line"/>
      <point x="243" y="284" type="line"/>
      <point x="251" y="342" type="line"/>
      <point x="178" y="342" type="line"/>
    </contour>
    <contour>
      <point x="526" y="413" type="line"/>
      <point x="488" y="321"/>
      <point x="437" y="224"/>
      <point x="384" y="148" type="curve"/>
      <point x="378" y="96" type="line"/>
      <point x="528" y="96" type="line"/>
      <point x="514" y="0" type="line"/>
      <point x="576" y="0" type="line"/>
      <point x="590" y="96" type="line"/>
      <point x="630" y="96" type="line"/>
      <point x="638" y="153" type="line"/>
      <point x="598" y="153" type="line"/>
      <point x="626" y="355" type="line"/>
      <point x="599" y="355" type="line"/>
      <point x="586" y="316"/>
      <point x="561" y="268"/>
      <point x="549" y="244" type="curve"/>
      <point x="536" y="153" type="line"/>
      <point x="451" y="153" type="line"/>
      <point x="483" y="197"/>
      <point x="551" y="311"/>
      <point x="588" y="413" type="curve"/>
    </contour>
  </outline>
</glyph>
<glyph name="onehalf" format="1">
  <advance width="684"/>
  <unicode hex="00BD"/>
  <outline>
    <contour>
      <point x="641" y="698" type="line"/>
      <point x="579" y="698" type="line"/>
      <point x="65" y="-12" type="line"/>
      <point x="128" y="-12" type="line"/>
    </contour>
    <contour>
      <point x="226" y="686" type="line"/>
      <point x="197" y="686" type="line"/>
      <point x="163" y="665"/>
      <point x="109" y="647"/>
      <point x="78" y="643" type="curve"/>
      <point x="72" y="600" type="line"/>
      <point x="152" y="600" type="line"/>
      <point x="115" y="342" type="line"/>
      <point x="36" y="342" type="line"/>
      <point x="28" y="284" type="line"/>
      <point x="242" y="284" type="line"/>
      <point x="250" y="342" type="line"/>
      <point x="177" y="342" type="line"/>
    </contour>
    <contour>
      <point x="556" y="413" type="curve" smooth="yes"/>
      <point x="492" y="413"/>
      <point x="429" y="367"/>
      <point x="428" y="257" type="curve"/>
      <point x="491" y="257" type="line"/>
      <point x="495" y="288" type="line" smooth="yes"/>
      <point x="500" y="324"/>
      <point x="517" y="354"/>
      <point x="551" y="354" type="curve" smooth="yes"/>
      <point x="581" y="354"/>
      <point x="590" y="334"/>
      <point x="590" y="314" type="curve" smooth="yes"/>
      <point x="590" y="202"/>
      <point x="405" y="143"/>
      <point x="389" y="16" type="curve"/>
      <point x="386" y="0" type="line"/>
      <point x="613" y="0" type="line"/>
      <point x="622" y="63" type="line"/>
      <point x="476" y="63" type="line"/>
      <point x="492" y="90"/>
      <point x="517" y="112"/>
      <point x="539" y="133" type="curve"/>
      <point x="596" y="185"/>
      <point x="657" y="248"/>
      <point x="657" y="322" type="curve" smooth="yes"/>
      <point x="657" y="387"/>
      <point x="613" y="413"/>
    </contour>
  </outline>
</glyph>
<glyph name="threequarters" format="1">
  <advance width="684"/>
  <unicode hex="00BE"/>
  <outline>
    <contour>
      <point x="651" y="698" type="line"/>
      <point x="589" y="698" type="line"/>
      <point x="75" y="-12" type="line"/>
      <point x="138" y="-12" type="line"/>
    </contour>
    <contour>
      <point x="197" y="698" type="curve" smooth="yes"/>
      <point x="135" y="698"/>
      <point x="88" y="653"/>
      <point x="77" y="583" type="curve" smooth="yes"/>
      <point x="74" y="565" type="line"/>
      <point x="137" y="565" type="line"/>
      <point x="139" y="578" type="line" smooth="yes"/>
      <point x="145" y="621"/>
      <point x="168" y="641"/>
      <point x="195" y="641" type="curve" smooth="yes"/>
      <point x="216" y="641"/>
      <point x="233" y="627"/>
      <point x="233" y="595" type="curve" smooth="yes"/>
      <point x="233" y="544"/>
      <point x="204" y="520"/>
      <point x="175" y="520" type="curve" smooth="yes"/>
      <point x="145" y="520" type="line"/>
      <point x="137" y="463" type="line"/>
      <point x="166" y="463" type="line" smooth="yes"/>
      <point x="192" y="463"/>
      <point x="214" y="453"/>
      <point x="214" y="416" type="curve" smooth="yes"/>
      <point x="214" y="361"/>
      <point x="184" y="336"/>
      <point x="149" y="336" type="curve" smooth="yes"/>
      <point x="121" y="336"/>
      <point x="107" y="352"/>
      <point x="107" y="383" type="curve" smooth="yes"/>
      <point x="107" y="389"/>
      <point x="107" y="395"/>
      <point x="110" y="415" type="curve"/>
      <point x="46" y="415" type="line"/>
      <point x="44" y="404"/>
      <point x="43" y="389"/>
      <point x="43" y="377" type="curve" smooth="yes"/>
      <point x="43" y="316"/>
      <point x="80" y="279"/>
      <point x="150" y="279" type="curve" smooth="yes"/>
      <point x="216" y="279"/>
      <point x="277" y="330"/>
      <point x="277" y="415" type="curve" smooth="yes"/>
      <point x="277" y="453"/>
      <point x="260" y="480"/>
      <point x="235" y="494" type="curve"/>
      <point x="272" y="515"/>
      <point x="297" y="547"/>
      <point x="297" y="605" type="curve" smooth="yes"/>
      <point x="297" y="665"/>
      <point x="259" y="698"/>
    </contour>
    <contour>
      <point x="523" y="413" type="line"/>
      <point x="485" y="321"/>
      <point x="434" y="224"/>
      <point x="381" y="148" type="curve"/>
      <point x="375" y="96" type="line"/>
      <point x="525" y="96" type="line"/>
      <point x="511" y="0" type="line"/>
      <point x="573" y="0" type="line"/>
      <point x="587" y="96" type="line"/>
      <point x="627" y="96" type="line"/>
      <point x="635" y="153" type="line"/>
      <point x="595" y="153" type="line"/>
      <point x="623" y="355" type="line"/>
      <point x="596" y="355" type="line"/>
      <point x="583" y="316"/>
      <point x="558" y="268"/>
      <point x="546" y="244" type="curve"/>
      <point x="533" y="153" type="line"/>
      <point x="448" y="153" type="line"/>
      <point x="480" y="197"/>
      <point x="548" y="311"/>
      <point x="585" y="413" type="curve"/>
    </contour>
  </outline>
</glyph>
<glyph name="questiondown" format="1">
  <advance width="501"/>
  <unicode hex="00BF"/>
  <outline>
    <contour>
      <point x="342" y="346" type="line"/>
      <point x="255" y="346" type="line"/>
      <point x="249" y="305" type="line" smooth="yes"/>
      <point x="232" y="189"/>
      <point x="75" y="178"/>
      <point x="75" y="-22" type="curve" smooth="yes"/>
      <point x="75" y="-112"/>
      <point x="139" y="-172"/>
      <point x="235" y="-172" type="curve" smooth="yes"/>
      <point x="371" y="-172"/>
      <point x="447" y="-60"/>
      <point x="449" y="67" type="curve"/>
      <point x="360" y="67" type="line"/>
      <point x="360" y="59"/>
      <point x="355" y="-95"/>
      <point x="243" y="-95" type="curve" smooth="yes"/>
      <point x="180" y="-95"/>
      <point x="168" y="-42"/>
      <point x="168" y="-6" type="curve" smooth="yes"/>
      <point x="169" y="146"/>
      <point x="314" y="150"/>
      <point x="334" y="290" type="curve" smooth="yes"/>
    </contour>
    <contour>
      <point x="375" y="526" type="line"/>
      <point x="275" y="526" type="line"/>
      <point x="259" y="418" type="line"/>
      <point x="359" y="418" type="line"/>
    </contour>
  </outline>
</glyph>
<glyph name="Atilde" format="1">
  <advance width="547"/>
  <unicode hex="00C3"/>
  <outline>
    <contour>
      <point x="449" y="883" type="line"/>
      <point x="443" y="860"/>
      <point x="428" y="852"/>
      <point x="410" y="852" type="curve" smooth="yes"/>
      <point x="370" y="852"/>
      <point x="341" y="883"/>
      <point x="296" y="883" type="curve" smooth="yes"/>
      <point x="238" y="883"/>
      <point x="208" y="825"/>
      <point x="201" y="779" type="curve"/>
      <point x="258" y="779" type="line"/>
      <point x="264" y="802"/>
      <point x="279" y="810"/>
      <point x="297" y="810" type="curve" smooth="yes"/>
      <point x="337" y="810"/>
      <point x="366" y="779"/>
      <point x="411" y="779" type="curve" smooth="yes"/>
      <point x="469" y="779"/>
      <point x="500" y="837"/>
      <point x="507" y="883" type="curve"/>
    </contour>
    <contour>
      <point x="421" y="0" type="line"/>
      <point x="512" y="0" type="line"/>
      <point x="391" y="686" type="line"/>
      <point x="278" y="686" type="line"/>
      <point x="-36" y="0" type="line"/>
      <point x="51" y="0" type="line"/>
      <point x="120" y="153" type="line"/>
      <point x="395" y="153" type="line"/>
    </contour>
    <contour>
      <point x="294" y="538" type="line" smooth="yes"/>
      <point x="304" y="560"/>
      <point x="322" y="614"/>
      <point x="322" y="614" type="curve"/>
      <point x="326" y="614" type="line"/>
      <point x="326" y="614"/>
      <point x="327" y="561"/>
      <point x="331" y="538" type="curve" smooth="yes"/>
      <point x="382" y="233" type="line"/>
      <point x="156" y="233" type="line"/>
    </contour>
  </outline>
</glyph>
<glyph name="Adieresis" format="1">
  <advance width="547"/>
  <unicode hex="00C4"/>
  <outline>
    <contour>
      <point x="483" y="883" type="line"/>
      <point x="396" y="883" type="line"/>
      <point x="383" y="788" type="line"/>
      <point x="470" y="788" type="line"/>
    </contour>
    <contour>
      <point x="333" y="883" type="line"/>
      <point x="247" y="883" type="line"/>
      <point x="233" y="788" type="line"/>
      <point x="320" y="788" type="line"/>
    </contour>
    <contour>
      <point x="421" y="0" type="line"/>
      <point x="512" y="0" type="line"/>
      <point x="391" y="686" type="line"/>
      <point x="278" y="686" type="line"/>
      <point x="-36" y="0" type="line"/>
      <point x="51" y="0" type="line"/>
      <point x="120" y="153" type="line"/>
      <point x="395" y="153" type="line"/>
    </contour>
    <contour>
      <point x="294" y="538" type="line" smooth="yes"/>
      <point x="304" y="560"/>
      <point x="322" y="614"/>
      <point x="322" y="614" type="curve"/>
      <point x="326" y="614" type="line"/>
      <point x="326" y="614"/>
      <point x="327" y="561"/>
      <point x="331" y="538" type="curve" smooth="yes"/>
      <point x="382" y="233" type="line"/>
      <point x="156" y="233" type="line"/>
    </contour>
  </outline>
</glyph>
<glyph name="Aring" format="1">
  <advance width="547"/>
  <unicode hex="00C5"/>
  <outline>
    <contour>
      <point x="358" y="897" type="curve" smooth="yes"/>
      <point x="308" y="897"/>
      <point x="259" y="857"/>
      <point x="259" y="799" type="curve" smooth="yes"/>
      <point x="259" y="750"/>
      <point x="296" y="715"/>
      <point x="346" y="715" type="curve" smooth="yes"/>
      <point x="397" y="715"/>
      <point x="444" y="758"/>
      <point x="444" y="813" type="curve" smooth="yes"/>
      <point x="444" y="861"/>
      <point x="408" y="897"/>
    </contour>
    <contour>
      <point x="355" y="857" type="curve" smooth="yes"/>
      <point x="381" y="857"/>
      <point x="400" y="835"/>
      <point x="400" y="810" type="curve" smooth="yes"/>
      <point x="400" y="778"/>
      <point x="376" y="755"/>
      <point x="349" y="755" type="curve" smooth="yes"/>
      <point x="322" y="755"/>
      <point x="304" y="777"/>
      <point x="304" y="802" type="curve" smooth="yes"/>
      <point x="304" y="834"/>
      <point x="327" y="857"/>
    </contour>
    <contour>
      <point x="421" y="0" type="line"/>
      <point x="512" y="0" type="line"/>
      <point x="391" y="686" type="line"/>
      <point x="278" y="686" type="line"/>
      <point x="-36" y="0" type="line"/>
      <point x="51" y="0" type="line"/>
      <point x="120" y="153" type="line"/>
      <point x="395" y="153" type="line"/>
    </contour>
    <contour>
      <point x="294" y="538" type="line" smooth="yes"/>
      <point x="304" y="560"/>
      <point x="322" y="614"/>
      <point x="322" y="614" type="curve"/>
      <point x="326" y="614" type="line"/>
      <point x="326" y="614"/>
      <point x="327" y="561"/>
      <point x="331" y="538" type="curve" smooth="yes"/>
      <point x="382" y="233" type="line"/>
      <point x="156" y="233" type="line"/>
    </contour>
  </outline>
</glyph>
<glyph name="Ccedilla" format="1">
  <advance width="592"/>
  <unicode hex="00C7"/>
  <outline>
    <contour>
      <point x="479" y="437" type="line"/>
      <point x="570" y="437" type="line"/>
      <point x="570" y="453" type="line" smooth="yes"/>
      <point x="570" y="620"/>
      <point x="495" y="698"/>
      <point x="353" y="698" type="curve" smooth="yes"/>
      <point x="117" y="698"/>
      <point x="51" y="421"/>
      <point x="51" y="241" type="curve" smooth="yes"/>
      <point x="51" y="92"/>
      <point x="118" y="13"/>
      <point x="226" y="-7" type="curve"/>
      <point x="206" y="-77" type="line"/>
      <point x="239" y="-77" type="line" smooth="yes"/>
      <point x="261" y="-77"/>
      <point x="270" y="-83"/>
      <point x="270" y="-95" type="curve" smooth="yes"/>
      <point x="270" y="-119"/>
      <point x="253" y="-125"/>
      <point x="229" y="-125" type="curve" smooth="yes"/>
      <point x="153" y="-125" type="line"/>
      <point x="146" y="-174" type="line"/>
      <point x="169" y="-179"/>
      <point x="202" y="-182"/>
      <point x="229" y="-182" type="curve" smooth="yes"/>
      <point x="271" y="-182"/>
      <point x="346" y="-167"/>
      <point x="346" y="-90" type="curve" smooth="yes"/>
      <point x="346" y="-53"/>
      <point x="312" y="-39"/>
      <point x="272" y="-36" type="curve"/>
      <point x="280" y="-12" type="line"/>
      <point x="285" y="-12" type="line" smooth="yes"/>
      <point x="437" y="-12"/>
      <point x="523" y="106"/>
      <point x="541" y="242" type="curve"/>
      <point x="454" y="242" type="line"/>
      <point x="440" y="151"/>
      <point x="384" y="70"/>
      <point x="282" y="70" type="curve" smooth="yes"/>
      <point x="191" y="70"/>
      <point x="141" y="133"/>
      <point x="141" y="246" type="curve" smooth="yes"/>
      <point x="141" y="320"/>
      <point x="164" y="617"/>
      <point x="352" y="617" type="curve" smooth="yes"/>
      <point x="438" y="617"/>
      <point x="479" y="563"/>
      <point x="479" y="459" type="curve" smooth="yes"/>
    </contour>
  </outline>
</glyph>
<glyph name="Eacute" format="1">
  <advance width="547"/>
  <unicode hex="00C9"/>
  <outline>
    <contour>
      <point x="459" y="883" type="line"/>
      <point x="369" y="883" type="line"/>
      <point x="283" y="751" type="line"/>
      <point x="353" y="751" type="line"/>
      <point x="460" y="880" type="line"/>
    </contour>
    <contour>
      <point x="463" y="0" type="line"/>
      <point x="475" y="80" type="line"/>
      <point x="134" y="80" type="line"/>
      <point x="166" y="311" type="line"/>
      <point x="457" y="311" type="line"/>
      <point x="468" y="391" type="line"/>
      <point x="177" y="391" type="line"/>
      <point x="207" y="606" type="line"/>
      <point x="542" y="606" type="line"/>
      <point x="554" y="686" type="line"/>
      <point x="131" y="686" type="line"/>
      <point x="34" y="0" type="line"/>
    </contour>
  </outline>
</glyph>
<glyph name="Ecircumflex" format="1">
  <advance width="547"/>
  <unicode hex="00CA"/>
  <outline>
    <contour>
      <point x="390" y="883" type="line"/>
      <point x="312" y="883" type="line"/>
      <point x="207" y="748" type="line"/>
      <point x="290" y="748" type="line"/>
      <point x="346" y="827" type="line"/>
      <point x="379" y="748" type="line"/>
      <point x="456" y="748" type="line"/>
    </contour>
    <contour>
      <point x="463" y="0" type="line"/>
      <point x="475" y="80" type="line"/>
      <point x="134" y="80" type="line"/>
      <point x="166" y="311" type="line"/>
      <point x="457" y="311" type="line"/>
      <point x="468" y="391" type="line"/>
      <point x="177" y="391" type="line"/>
      <point x="207" y="606" type="line"/>
      <point x="542" y="606" type="line"/>
      <point x="554" y="686" type="line"/>
      <point x="131" y="686" type="line"/>
      <point x="34" y="0" type="line"/>
    </contour>
  </outline>
</glyph>
<glyph name="Edieresis" format="1">
  <advance width="547"/>
  <unicode hex="00CB"/>
  <outline>
    <contour>
      <point x="474" y="883" type="line"/>
      <point x="387" y="883" type="line"/>
      <point x="374" y="788" type="line"/>
      <point x="461" y="788" type="line"/>
    </contour>
    <contour>
      <point x="324" y="883" type="line"/>
      <point x="237" y="883" type="line"/>
      <point x="224" y="788" type="line"/>
      <point x="311" y="788" type="line"/>
    </contour>
    <contour>
      <point x="463" y="0" type="line"/>
      <point x="475" y="80" type="line"/>
      <point x="134" y="80" type="line"/>
      <point x="166" y="311" type="line"/>
      <point x="457" y="311" type="line"/>
      <point x="468" y="391" type="line"/>
      <point x="177" y="391" type="line"/>
      <point x="207" y="606" type="line"/>
      <point x="542" y="606" type="line"/>
      <point x="554" y="686" type="line"/>
      <point x="131" y="686" type="line"/>
      <point x="34" y="0" type="line"/>
    </contour>
  </outline>
</glyph>
<glyph name="Igrave" format="1">
  <advance width="228"/>
  <unicode hex="00CC"/>
  <outline>
    <contour>
      <point x="219" y="686" type="line"/>
      <point x="131" y="686" type="line"/>
      <point x="34" y="0" type="line"/>
      <point x="122" y="0" type="line"/>
    </contour>
    <contour>
      <point x="177" y="883" type="line"/>
      <point x="87" y="883" type="line"/>
      <point x="85" y="880" type="line"/>
      <point x="175" y="751" type="line"/>
      <point x="245" y="751" type="line"/>
    </contour>
  </outline>
</glyph>
<glyph name="Iacute" format="1">
  <advance width="228"/>
  <unicode hex="00CD"/>
  <outline>
    <contour>
      <point x="219" y="686" type="line"/>
      <point x="131" y="686" type="line"/>
      <point x="34" y="0" type="line"/>
      <point x="122" y="0" type="line"/>
    </contour>
    <contour>
      <point x="309" y="883" type="line"/>
      <point x="218" y="883" type="line"/>
      <point x="132" y="751" type="line"/>
      <point x="202" y="751" type="line"/>
      <point x="310" y="880" type="line"/>
    </contour>
  </outline>
</glyph>
<glyph name="Icircumflex" format="1">
  <advance width="228"/>
  <unicode hex="00CE"/>
  <outline>
    <contour>
      <point x="219" y="686" type="line"/>
      <point x="131" y="686" type="line"/>
      <point x="34" y="0" type="line"/>
      <point x="122" y="0" type="line"/>
    </contour>
    <contour>
      <point x="239" y="883" type="line"/>
      <point x="161" y="883" type="line"/>
      <point x="56" y="748" type="line"/>
      <point x="139" y="748" type="line"/>
      <point x="195" y="827" type="line"/>
      <point x="228" y="748" type="line"/>
      <point x="305" y="748" type="line"/>
    </contour>
  </outline>
</glyph>
<glyph name="Idieresis" format="1">
  <advance width="228"/>
  <unicode hex="00CF"/>
  <outline>
    <contour>
      <point x="219" y="686" type="line"/>
      <point x="131" y="686" type="line"/>
      <point x="34" y="0" type="line"/>
      <point x="122" y="0" type="line"/>
    </contour>
    <contour>
      <point x="323" y="883" type="line"/>
      <point x="236" y="883" type="line"/>
      <point x="223" y="788" type="line"/>
      <point x="310" y="788" type="line"/>
    </contour>
    <contour>
      <point x="173" y="883" type="line"/>
      <point x="86" y="883" type="line"/>
      <point x="73" y="788" type="line"/>
      <point x="160" y="788" type="line"/>
    </contour>
  </outline>
</glyph>
<glyph name="Eth" format="1">
  <advance width="592"/>
  <unicode hex="00D0"/>
  <outline>
    <contour>
      <point x="265" y="0" type="line" smooth="yes"/>
      <point x="484" y="0"/>
      <point x="563" y="251"/>
      <point x="563" y="429" type="curve" smooth="yes"/>
      <point x="563" y="600"/>
      <point x="479" y="686"/>
      <point x="334" y="686" type="curve" smooth="yes"/>
      <point x="131" y="686" type="line"/>
      <point x="88" y="387" type="line"/>
      <point x="23" y="387" type="line"/>
      <point x="14" y="323" type="line"/>
      <point x="79" y="323" type="line"/>
      <point x="34" y="0" type="line"/>
    </contour>
    <contour>
      <point x="324" y="606" type="line" smooth="yes"/>
      <point x="417" y="606"/>
      <point x="472" y="548"/>
      <point x="472" y="428" type="curve" smooth="yes"/>
      <point x="472" y="288"/>
      <point x="427" y="80"/>
      <point x="255" y="80" type="curve" smooth="yes"/>
      <point x="134" y="80" type="line"/>
      <point x="167" y="323" type="line"/>
      <point x="324" y="323" type="line"/>
      <point x="333" y="387" type="line"/>
      <point x="176" y="387" type="line"/>
      <point x="207" y="606" type="line"/>
    </contour>
  </outline>
</glyph>
<glyph name="Ntilde" format="1">
  <advance width="592"/>
  <unicode hex="00D1"/>
  <outline>
    <contour>
      <point x="582" y="686" type="line"/>
      <point x="503" y="686" type="line"/>
      <point x="442" y="255" type="line" smooth="yes"/>
      <point x="439" y="233"/>
      <point x="432" y="164"/>
      <point x="432" y="164" type="curve"/>
      <point x="429" y="163" type="line"/>
      <point x="429" y="163"/>
      <point x="408" y="229"/>
      <point x="397" y="255" type="curve"/>
      <point x="202" y="686" type="line"/>
      <point x="130" y="686" type="line"/>
      <point x="33" y="0" type="line"/>
      <point x="112" y="0" type="line"/>
      <point x="174" y="437" type="line"/>
      <point x="178" y="465"/>
      <point x="183" y="528"/>
      <point x="183" y="528" type="curve"/>
      <point x="186" y="529" type="line"/>
      <point x="186" y="529"/>
      <point x="206" y="466"/>
      <point x="219" y="437" type="curve" smooth="yes"/>
      <point x="416" y="0" type="line"/>
      <point x="485" y="0" type="line"/>
    </contour>
    <contour>
      <point x="469" y="883" type="line"/>
      <point x="463" y="860"/>
      <point x="448" y="852"/>
      <point x="430" y="852" type="curve" smooth="yes"/>
      <point x="390" y="852"/>
      <point x="361" y="883"/>
      <point x="316" y="883" type="curve" smooth="yes"/>
      <point x="258" y="883"/>
      <point x="228" y="825"/>
      <point x="221" y="779" type="curve"/>
      <point x="278" y="779" type="line"/>
      <point x="284" y="802"/>
      <point x="299" y="810"/>
      <point x="317" y="810" type="curve" smooth="yes"/>
      <point x="357" y="810"/>
      <point x="386" y="779"/>
      <point x="431" y="779" type="curve" smooth="yes"/>
      <point x="489" y="779"/>
      <point x="520" y="837"/>
      <point x="527" y="883" type="curve"/>
    </contour>
  </outline>
</glyph>
<glyph name="Ocircumflex" format="1">
  <advance width="638"/>
  <unicode hex="00D4"/>
  <outline>
    <contour>
      <point x="367" y="698" type="curve" smooth="yes"/>
      <point x="126" y="698"/>
      <point x="51" y="438"/>
      <point x="51" y="247" type="curve" smooth="yes"/>
      <point x="51" y="73"/>
      <point x="138" y="-12"/>
      <point x="288" y="-12" type="curve" smooth="yes"/>
      <point x="529" y="-12"/>
      <point x="605" y="246"/>
      <point x="605" y="437" type="curve" smooth="yes"/>
      <point x="605" y="612"/>
      <point x="517" y="698"/>
    </contour>
    <contour>
      <point x="366" y="617" type="curve" smooth="yes"/>
      <point x="459" y="617"/>
      <point x="514" y="557"/>
      <point x="514" y="437" type="curve" smooth="yes"/>
      <point x="514" y="290"/>
      <point x="470" y="69"/>
      <point x="289" y="69" type="curve" smooth="yes"/>
      <point x="195" y="69"/>
      <point x="141" y="128"/>
      <point x="141" y="249" type="curve" smooth="yes"/>
      <point x="141" y="398"/>
      <point x="186" y="617"/>
    </contour>
    <contour>
      <point x="443" y="883" type="line"/>
      <point x="365" y="883" type="line"/>
      <point x="260" y="748" type="line"/>
      <point x="343" y="748" type="line"/>
      <point x="399" y="827" type="line"/>
      <point x="432" y="748" type="line"/>
      <point x="509" y="748" type="line"/>
    </contour>
  </outline>
</glyph>
<glyph name="Otilde" format="1">
  <advance width="638"/>
  <unicode hex="00D5"/>
  <outline>
    <contour>
      <point x="367" y="698" type="curve" smooth="yes"/>
      <point x="126" y="698"/>
      <point x="51" y="438"/>
      <point x="51" y="247" type="curve" smooth="yes"/>
      <point x="51" y="73"/>
      <point x="138" y="-12"/>
      <point x="288" y="-12" type="curve" smooth="yes"/>
      <point x="529" y="-12"/>
      <point x="605" y="246"/>
      <point x="605" y="437" type="curve" smooth="yes"/>
      <point x="605" y="612"/>
      <point x="517" y="698"/>
    </contour>
    <contour>
      <point x="366" y="617" type="curve" smooth="yes"/>
      <point x="459" y="617"/>
      <point x="514" y="557"/>
      <point x="514" y="437" type="curve" smooth="yes"/>
      <point x="514" y="290"/>
      <point x="470" y="69"/>
      <point x="289" y="69" type="curve" smooth="yes"/>
      <point x="195" y="69"/>
      <point x="141" y="128"/>
      <point x="141" y="249" type="curve" smooth="yes"/>
      <point x="141" y="398"/>
      <point x="186" y="617"/>
    </contour>
    <contour>
      <point x="492" y="883" type="line"/>
      <point x="486" y="860"/>
      <point x="471" y="852"/>
      <point x="454" y="852" type="curve" smooth="yes"/>
      <point x="414" y="852"/>
      <point x="384" y="883"/>
      <point x="339" y="883" type="curve" smooth="yes"/>
      <point x="281" y="883"/>
      <point x="251" y="825"/>
      <point x="244" y="779" type="curve"/>
      <point x="301" y="779" type="line"/>
      <point x="308" y="802"/>
      <point x="322" y="810"/>
      <point x="340" y="810" type="curve" smooth="yes"/>
      <point x="380" y="810"/>
      <point x="409" y="779"/>
      <point x="455" y="779" type="curve" smooth="yes"/>
      <point x="512" y="779"/>
      <point x="543" y="837"/>
      <point x="550" y="883" type="curve"/>
    </contour>
  </outline>
</glyph>
<glyph name="multiply" format="1">
  <advance width="479"/>
  <unicode hex="00D7"/>
  <outline>
    <contour>
      <point x="255" y="314" type="line"/>
      <point x="122" y="466" type="line"/>
      <point x="59" y="407" type="line"/>
      <point x="190" y="255" type="line"/>
      <point x="16" y="104" type="line"/>
      <point x="32" y="84"/>
      <point x="48" y="65"/>
      <point x="63" y="45" type="curve"/>
      <point x="238" y="195" type="line"/>
      <point x="281" y="145"/>
      <point x="326" y="95"/>
      <point x="370" y="45" type="curve"/>
      <point x="433" y="104" type="line"/>
      <point x="301" y="255" type="line"/>
      <point x="476" y="407" type="line"/>
      <point x="461" y="427"/>
      <point x="445" y="446"/>
      <point x="429" y="466" type="curve"/>
    </contour>
  </outline>
</glyph>
<glyph name="Ugrave" format="1">
  <advance width="592"/>
  <unicode hex="00D9"/>
  <outline>
    <contour>
      <point x="579" y="686" type="line"/>
      <point x="491" y="686" type="line"/>
      <point x="425" y="218" type="line" smooth="yes"/>
      <point x="411" y="121"/>
      <point x="352" y="69"/>
      <point x="266" y="69" type="curve" smooth="yes"/>
      <point x="190" y="69"/>
      <point x="146" y="109"/>
      <point x="146" y="185" type="curve" smooth="yes"/>
      <point x="146" y="207"/>
      <point x="215" y="686"/>
      <point x="215" y="686" type="curve"/>
      <point x="127" y="686" type="line"/>
      <point x="127" y="686"/>
      <point x="57" y="219"/>
      <point x="57" y="173" type="curve" smooth="yes"/>
      <point x="57" y="52"/>
      <point x="133" y="-12"/>
      <point x="264" y="-12" type="curve" smooth="yes"/>
      <point x="401" y="-12"/>
      <point x="491" y="69"/>
      <point x="513" y="223" type="curve" smooth="yes"/>
    </contour>
    <contour>
      <point x="354" y="883" type="line"/>
      <point x="265" y="883" type="line"/>
      <point x="263" y="880" type="line"/>
      <point x="353" y="751" type="line"/>
      <point x="422" y="751" type="line"/>
    </contour>
  </outline>
</glyph>
<glyph name="Uacute" format="1">
  <advance width="592"/>
  <unicode hex="00DA"/>
  <outline>
    <contour>
      <point x="579" y="686" type="line"/>
      <point x="491" y="686" type="line"/>
      <point x="425" y="218" type="line" smooth="yes"/>
      <point x="411" y="121"/>
      <point x="352" y="69"/>
      <point x="266" y="69" type="curve" smooth="yes"/>
      <point x="190" y="69"/>
      <point x="146" y="109"/>
      <point x="146" y="185" type="curve" smooth="yes"/>
      <point x="146" y="207"/>
      <point x="215" y="686"/>
      <point x="215" y="686" type="curve"/>
      <point x="127" y="686" type="line"/>
      <point x="127" y="686"/>
      <point x="57" y="219"/>
      <point x="57" y="173" type="curve" smooth="yes"/>
      <point x="57" y="52"/>
      <point x="133" y="-12"/>
      <point x="264" y="-12" type="curve" smooth="yes"/>
      <point x="401" y="-12"/>
      <point x="491" y="69"/>
      <point x="513" y="223" type="curve" smooth="yes"/>
    </contour>
    <contour>
      <point x="486" y="883" type="line"/>
      <point x="396" y="883" type="line"/>
      <point x="310" y="751" type="line"/>
      <point x="379" y="751" type="line"/>
      <point x="487" y="880" type="line"/>
    </contour>
  </outline>
</glyph>
<glyph name="Udieresis" format="1">
  <advance width="592"/>
  <unicode hex="00DC"/>
  <outline>
    <contour>
      <point x="579" y="686" type="line"/>
      <point x="491" y="686" type="line"/>
      <point x="425" y="218" type="line" smooth="yes"/>
      <point x="411" y="121"/>
      <point x="352" y="69"/>
      <point x="266" y="69" type="curve" smooth="yes"/>
      <point x="190" y="69"/>
      <point x="146" y="109"/>
      <point x="146" y="185" type="curve" smooth="yes"/>
      <point x="146" y="207"/>
      <point x="215" y="686"/>
      <point x="215" y="686" type="curve"/>
      <point x="127" y="686" type="line"/>
      <point x="127" y="686"/>
      <point x="57" y="219"/>
      <point x="57" y="173" type="curve" smooth="yes"/>
      <point x="57" y="52"/>
      <point x="133" y="-12"/>
      <point x="264" y="-12" type="curve" smooth="yes"/>
      <point x="401" y="-12"/>
      <point x="491" y="69"/>
      <point x="513" y="223" type="curve" smooth="yes"/>
    </contour>
    <contour>
      <point x="500" y="883" type="line"/>
      <point x="414" y="883" type="line"/>
      <point x="400" y="788" type="line"/>
      <point x="487" y="788" type="line"/>
    </contour>
    <contour>
      <point x="351" y="883" type="line"/>
      <point x="264" y="883" type="line"/>
      <point x="250" y="788" type="line"/>
      <point x="337" y="788" type="line"/>
    </contour>
  </outline>
</glyph>
<glyph name="Yacute" format="1">
  <advance width="547"/>
  <unicode hex="00DD"/>
  <outline>
    <contour>
      <point x="601" y="686" type="line"/>
      <point x="509" y="686" type="line"/>
      <point x="295" y="368" type="line"/>
      <point x="291" y="368" type="line"/>
      <point x="166" y="686" type="line"/>
      <point x="70" y="686" type="line"/>
      <point x="235" y="284" type="line"/>
      <point x="195" y="0" type="line"/>
      <point x="283" y="0" type="line"/>
      <point x="323" y="284" type="line"/>
    </contour>
    <contour>
      <point x="472" y="883" type="line"/>
      <point x="381" y="883" type="line"/>
      <point x="295" y="751" type="line"/>
      <point x="365" y="751" type="line"/>
      <point x="473" y="880" type="line"/>
    </contour>
  </outline>
</glyph>
<glyph name="Thorn" format="1">
  <advance width="547"/>
  <unicode hex="00DE"/>
  <outline>
    <contour>
      <point x="219" y="686" type="line"/>
      <point x="131" y="686" type="line"/>
      <point x="34" y="0" type="line"/>
      <point x="122" y="0" type="line"/>
      <point x="143" y="146" type="line"/>
      <point x="300" y="146" type="line" smooth="yes"/>
      <point x="439" y="146"/>
      <point x="536" y="235"/>
      <point x="536" y="380" type="curve" smooth="yes"/>
      <point x="536" y="483"/>
      <point x="474" y="551"/>
      <point x="347" y="551" type="curve" smooth="yes"/>
      <point x="200" y="551" type="line"/>
    </contour>
    <contour>
      <point x="342" y="471" type="line"/>
      <point x="408" y="471"/>
      <point x="443" y="430"/>
      <point x="443" y="364" type="curve" smooth="yes"/>
      <point x="443" y="280"/>
      <point x="385" y="226"/>
      <point x="309" y="226" type="curve" smooth="yes"/>
      <point x="154" y="226" type="line"/>
      <point x="189" y="471" type="line"/>
    </contour>
  </outline>
</glyph>
<glyph name="germandbls" format="1">
  <advance width="501"/>
  <unicode hex="00DF"/>
  <outline>
    <contour>
      <point x="314" y="735" type="curve" smooth="yes"/>
      <point x="205" y="735"/>
      <point x="110" y="672"/>
      <point x="89" y="516" type="curve"/>
      <point x="18" y="0" type="line"/>
      <point x="99" y="0" type="line"/>
      <point x="172" y="518" type="line" smooth="yes"/>
      <point x="185" y="613"/>
      <point x="238" y="662"/>
      <point x="309" y="662" type="curve" smooth="yes"/>
      <point x="371" y="662"/>
      <point x="403" y="626"/>
      <point x="403" y="569" type="curve" smooth="yes"/>
      <point x="403" y="493"/>
      <point x="344" y="423"/>
      <point x="273" y="423" type="curve" smooth="yes"/>
      <point x="214" y="423" type="line"/>
      <point x="204" y="350" type="line"/>
      <point x="271" y="350" type="line" smooth="yes"/>
      <point x="334" y="350"/>
      <point x="377" y="300"/>
      <point x="377" y="235" type="curve" smooth="yes"/>
      <point x="377" y="148"/>
      <point x="306" y="74"/>
      <point x="232" y="74" type="curve" smooth="yes"/>
      <point x="165" y="74" type="line"/>
      <point x="155" y="0" type="line"/>
      <point x="240" y="0" type="line" smooth="yes"/>
      <point x="366" y="0"/>
      <point x="462" y="121"/>
      <point x="462" y="240" type="curve" smooth="yes"/>
      <point x="462" y="308"/>
      <point x="425" y="369"/>
      <point x="369" y="391" type="curve"/>
      <point x="369" y="395" type="line"/>
      <point x="440" y="421"/>
      <point x="488" y="503"/>
      <point x="488" y="580" type="curve" smooth="yes"/>
      <point x="488" y="678"/>
      <point x="418" y="735"/>
    </contour>
  </outline>
</glyph>
<glyph name="adieresis" format="1">
  <advance width="456"/>
  <unicode hex="00E4"/>
  <outline>
    <contour>
      <point x="412" y="723" type="line"/>
      <point x="325" y="723" type="line"/>
      <point x="312" y="628" type="line"/>
      <point x="399" y="628" type="line"/>
    </contour>
    <contour>
      <point x="262" y="723" type="line"/>
      <point x="175" y="723" type="line"/>
      <point x="162" y="628" type="line"/>
      <point x="249" y="628" type="line"/>
    </contour>
    <contour>
      <point x="236" y="538" type="curve" smooth="yes"/>
      <point x="138" y="538"/>
      <point x="33" y="424"/>
      <point x="33" y="183" type="curve" smooth="yes"/>
      <point x="33" y="48"/>
      <point x="89" y="-12"/>
      <point x="166" y="-12" type="curve" smooth="yes"/>
      <point x="213" y="-12"/>
      <point x="249" y="14"/>
      <point x="287" y="71" type="curve"/>
      <point x="288" y="12"/>
      <point x="317" y="-12"/>
      <point x="359" y="-12" type="curve" smooth="yes"/>
      <point x="385" y="-12"/>
      <point x="405" y="-3"/>
      <point x="415" y="4" type="curve"/>
      <point x="423" y="61" type="line"/>
      <point x="391" y="61" type="line" smooth="yes"/>
      <point x="378" y="61"/>
      <point x="367" y="69"/>
      <point x="367" y="89" type="curve" smooth="yes"/>
      <point x="367" y="101"/>
      <point x="428" y="526"/>
      <point x="428" y="526" type="curve"/>
      <point x="363" y="526" type="line"/>
      <point x="345" y="453" type="line"/>
      <point x="325" y="518"/>
      <point x="284" y="538"/>
    </contour>
    <contour>
      <point x="248" y="465" type="curve" smooth="yes"/>
      <point x="294" y="465"/>
      <point x="317" y="427"/>
      <point x="317" y="352" type="curve" smooth="yes"/>
      <point x="317" y="272"/>
      <point x="286" y="61"/>
      <point x="191" y="61" type="curve" smooth="yes"/>
      <point x="142" y="61"/>
      <point x="117" y="99"/>
      <point x="117" y="175" type="curve" smooth="yes"/>
      <point x="117" y="261"/>
      <point x="141" y="465"/>
    </contour>
  </outline>
</glyph>
<glyph name="aring" format="1">
  <advance width="456"/>
  <unicode hex="00E5"/>
  <outline>
    <contour>
      <point x="287" y="737" type="curve" smooth="yes"/>
      <point x="236" y="737"/>
      <point x="188" y="697"/>
      <point x="188" y="639" type="curve" smooth="yes"/>
      <point x="188" y="590"/>
      <point x="225" y="555"/>
      <point x="274" y="555" type="curve" smooth="yes"/>
      <point x="326" y="555"/>
      <point x="373" y="598"/>
      <point x="373" y="653" type="curve" smooth="yes"/>
      <point x="373" y="701"/>
      <point x="336" y="737"/>
    </contour>
    <contour>
      <point x="284" y="697" type="curve" smooth="yes"/>
      <point x="310" y="697"/>
      <point x="329" y="675"/>
      <point x="329" y="650" type="curve" smooth="yes"/>
      <point x="329" y="618"/>
      <point x="305" y="595"/>
      <point x="277" y="595" type="curve" smooth="yes"/>
      <point x="251" y="595"/>
      <point x="232" y="617"/>
      <point x="232" y="642" type="curve" smooth="yes"/>
      <point x="232" y="674"/>
      <point x="255" y="697"/>
    </contour>
    <contour>
      <point x="236" y="538" type="curve" smooth="yes"/>
      <point x="138" y="538"/>
      <point x="33" y="424"/>
      <point x="33" y="183" type="curve" smooth="yes"/>
      <point x="33" y="48"/>
      <point x="89" y="-12"/>
      <point x="166" y="-12" type="curve" smooth="yes"/>
      <point x="213" y="-12"/>
      <point x="249" y="14"/>
      <point x="287" y="71" type="curve"/>
      <point x="288" y="12"/>
      <point x="317" y="-12"/>
      <point x="359" y="-12" type="curve" smooth="yes"/>
      <point x="385" y="-12"/>
      <point x="405" y="-3"/>
      <point x="415" y="4" type="curve"/>
      <point x="423" y="61" type="line"/>
      <point x="391" y="61" type="line" smooth="yes"/>
      <point x="378" y="61"/>
      <point x="367" y="69"/>
      <point x="367" y="89" type="curve" smooth="yes"/>
      <point x="367" y="101"/>
      <point x="428" y="526"/>
      <point x="428" y="526" type="curve"/>
      <point x="363" y="526" type="line"/>
      <point x="345" y="453" type="line"/>
      <point x="325" y="518"/>
      <point x="284" y="538"/>
    </contour>
    <contour>
      <point x="248" y="465" type="curve" smooth="yes"/>
      <point x="294" y="465"/>
      <point x="317" y="427"/>
      <point x="317" y="352" type="curve" smooth="yes"/>
      <point x="317" y="272"/>
      <point x="286" y="61"/>
      <point x="191" y="61" type="curve" smooth="yes"/>
      <point x="142" y="61"/>
      <point x="117" y="99"/>
      <point x="117" y="175" type="curve" smooth="yes"/>
      <point x="117" y="261"/>
      <point x="141" y="465"/>
    </contour>
  </outline>
</glyph>
<glyph name="ae" format="1">
  <advance width="729"/>
  <unicode hex="00E6"/>
  <outline>
    <contour>
      <point x="531" y="538" type="curve" smooth="yes"/>
      <point x="472" y="538"/>
      <point x="429" y="516"/>
      <point x="396" y="482" type="curve"/>
      <point x="374" y="518"/>
      <point x="333" y="538"/>
      <point x="269" y="538" type="curve" smooth="yes"/>
      <point x="163" y="538"/>
      <point x="83" y="474"/>
      <point x="83" y="370" type="curve"/>
      <point x="164" y="370" type="line"/>
      <point x="169" y="422"/>
      <point x="196" y="465"/>
      <point x="258" y="465" type="curve" smooth="yes"/>
      <point x="314" y="465"/>
      <point x="331" y="440"/>
      <point x="331" y="403" type="curve" smooth="yes"/>
      <point x="331" y="396"/>
      <point x="330" y="388"/>
      <point x="329" y="380" type="curve" smooth="yes"/>
      <point x="319" y="312" type="line"/>
      <point x="160" y="312"/>
      <point x="26" y="278"/>
      <point x="26" y="113" type="curve" smooth="yes"/>
      <point x="26" y="6"/>
      <point x="105" y="-12"/>
      <point x="166" y="-12" type="curve" smooth="yes"/>
      <point x="226" y="-12"/>
      <point x="289" y="19"/>
      <point x="328" y="70" type="curve"/>
      <point x="355" y="14"/>
      <point x="406" y="-12"/>
      <point x="478" y="-12" type="curve" smooth="yes"/>
      <point x="590" y="-12"/>
      <point x="656" y="76"/>
      <point x="672" y="178" type="curve"/>
      <point x="589" y="178" type="line"/>
      <point x="580" y="115"/>
      <point x="537" y="61"/>
      <point x="478" y="61" type="curve" smooth="yes"/>
      <point x="421" y="61"/>
      <point x="393" y="102"/>
      <point x="393" y="186" type="curve" smooth="yes"/>
      <point x="393" y="199"/>
      <point x="394" y="218"/>
      <point x="396" y="239" type="curve"/>
      <point x="685" y="239" type="line"/>
      <point x="691" y="277"/>
      <point x="693" y="315"/>
      <point x="693" y="349" type="curve" smooth="yes"/>
      <point x="693" y="478"/>
      <point x="636" y="538"/>
    </contour>
    <contour>
      <point x="301" y="183" type="line" smooth="yes"/>
      <point x="289" y="101"/>
      <point x="227" y="61"/>
      <point x="175" y="61" type="curve" smooth="yes"/>
      <point x="135" y="61"/>
      <point x="113" y="79"/>
      <point x="113" y="129" type="curve" smooth="yes"/>
      <point x="113" y="222"/>
      <point x="194" y="239"/>
      <point x="309" y="239" type="curve"/>
    </contour>
    <contour>
      <point x="531" y="465" type="curve" smooth="yes"/>
      <point x="582" y="465"/>
      <point x="608" y="425"/>
      <point x="608" y="348" type="curve" smooth="yes"/>
      <point x="608" y="339"/>
      <point x="608" y="325"/>
      <point x="607" y="312" type="curve"/>
      <point x="406" y="312" type="line"/>
      <point x="422" y="388"/>
      <point x="458" y="465"/>
    </contour>
    <contour>
      <point x="403" y="526" type="move" name="top"/>
    </contour>
  </outline>
</glyph>
<glyph name="ccedilla" format="1">
  <advance width="410"/>
  <unicode hex="00E7"/>
  <outline>
    <contour>
      <point x="305" y="331" type="line"/>
      <point x="390" y="331" type="line"/>
      <point x="390" y="349" type="line" smooth="yes"/>
      <point x="390" y="478"/>
      <point x="338" y="538"/>
      <point x="240" y="538" type="curve" smooth="yes"/>
      <point x="69" y="538"/>
      <point x="31" y="334"/>
      <point x="31" y="179" type="curve" smooth="yes"/>
      <point x="31" y="70"/>
      <point x="74" y="10"/>
      <point x="146" y="-7" type="curve"/>
      <point x="125" y="-77" type="line"/>
      <point x="158" y="-77" type="line" smooth="yes"/>
      <point x="180" y="-77"/>
      <point x="189" y="-83"/>
      <point x="189" y="-95" type="curve" smooth="yes"/>
      <point x="189" y="-119"/>
      <point x="173" y="-125"/>
      <point x="149" y="-125" type="curve" smooth="yes"/>
      <point x="73" y="-125" type="line"/>
      <point x="66" y="-174" type="line"/>
      <point x="89" y="-179"/>
      <point x="121" y="-182"/>
      <point x="149" y="-182" type="curve" smooth="yes"/>
      <point x="190" y="-182"/>
      <point x="265" y="-167"/>
      <point x="265" y="-90" type="curve" smooth="yes"/>
      <point x="265" y="-53"/>
      <point x="231" y="-39"/>
      <point x="192" y="-36" type="curve"/>
      <point x="199" y="-12" type="line"/>
      <point x="302" y="-8"/>
      <point x="361" y="87"/>
      <point x="374" y="192" type="curve"/>
      <point x="292" y="192" type="line"/>
      <point x="284" y="123"/>
      <point x="246" y="61"/>
      <point x="190" y="61" type="curve" smooth="yes"/>
      <point x="142" y="61"/>
      <point x="116" y="107"/>
      <point x="116" y="186" type="curve" smooth="yes"/>
      <point x="116" y="242"/>
      <point x="130" y="465"/>
      <point x="240" y="465" type="curve" smooth="yes"/>
      <point x="284" y="465"/>
      <point x="305" y="425"/>
      <point x="305" y="348" type="curve" smooth="yes"/>
    </contour>
  </outline>
</glyph>
<glyph name="igrave" format="1">
  <advance width="228"/>
  <unicode hex="00EC"/>
  <outline>
    <contour>
      <point x="193" y="526" type="line"/>
      <point x="111" y="526" type="line"/>
      <point x="38" y="0" type="line"/>
      <point x="119" y="0" type="line"/>
    </contour>
    <contour>
      <point x="153" y="723" type="line"/>
      <point x="63" y="723" type="line"/>
      <point x="62" y="720" type="line"/>
      <point x="151" y="591" type="line"/>
      <point x="221" y="591" type="line"/>
    </contour>
  </outline>
</glyph>
<glyph name="iacute" format="1">
  <advance width="228"/>
  <unicode hex="00ED"/>
  <outline>
    <contour>
      <point x="193" y="526" type="line"/>
      <point x="111" y="526" type="line"/>
      <point x="38" y="0" type="line"/>
      <point x="119" y="0" type="line"/>
    </contour>
    <contour>
      <point x="285" y="723" type="line"/>
      <point x="194" y="723" type="line"/>
      <point x="108" y="591" type="line"/>
      <point x="178" y="591" type="line"/>
      <point x="286" y="720" type="line"/>
    </contour>
  </outline>
</glyph>
<glyph name="icircumflex" format="1">
  <advance width="228"/>
  <unicode hex="00EE"/>
  <outline>
    <contour>
      <point x="193" y="526" type="line"/>
      <point x="111" y="526" type="line"/>
      <point x="38" y="0" type="line"/>
      <point x="119" y="0" type="line"/>
    </contour>
    <contour>
      <point x="215" y="723" type="line"/>
      <point x="137" y="723" type="line"/>
      <point x="32" y="588" type="line"/>
      <point x="115" y="588" type="line"/>
      <point x="171" y="667" type="line"/>
      <point x="204" y="588" type="line"/>
      <point x="281" y="588" type="line"/>
    </contour>
  </outline>
</glyph>
<glyph name="idieresis" format="1">
  <advance width="228"/>
  <unicode hex="00EF"/>
  <outline>
    <contour>
      <point x="193" y="526" type="line"/>
      <point x="111" y="526" type="line"/>
      <point x="38" y="0" type="line"/>
      <point x="119" y="0" type="line"/>
    </contour>
    <contour>
      <point x="299" y="723" type="line"/>
      <point x="212" y="723" type="line"/>
      <point x="199" y="628" type="line"/>
      <point x="286" y="628" type="line"/>
    </contour>
    <contour>
      <point x="149" y="723" type="line"/>
      <point x="62" y="723" type="line"/>
      <point x="49" y="628" type="line"/>
      <point x="136" y="628" type="line"/>
    </contour>
  </outline>
</glyph>
<glyph name="eth" format="1">
  <advance width="456"/>
  <unicode hex="00F0"/>
  <outline>
    <contour>
      <point x="186" y="723" type="line"/>
      <point x="184" y="719" type="line"/>
      <point x="198" y="701"/>
      <point x="211" y="683"/>
      <point x="223" y="666" type="curve"/>
      <point x="151" y="660" type="line"/>
      <point x="143" y="600" type="line"/>
      <point x="262" y="610" type="line"/>
      <point x="279" y="582"/>
      <point x="295" y="555"/>
      <point x="306" y="526" type="curve"/>
      <point x="289" y="533"/>
      <point x="270" y="538"/>
      <point x="248" y="538" type="curve" smooth="yes"/>
      <point x="144" y="538"/>
      <point x="35" y="433"/>
      <point x="35" y="177" type="curve" smooth="yes"/>
      <point x="35" y="48"/>
      <point x="93" y="-12"/>
      <point x="202" y="-12" type="curve" smooth="yes"/>
      <point x="328" y="-12"/>
      <point x="424" y="101"/>
      <point x="424" y="351" type="curve" smooth="yes"/>
      <point x="424" y="455"/>
      <point x="396" y="542"/>
      <point x="350" y="618" type="curve"/>
      <point x="422" y="625" type="line"/>
      <point x="431" y="685" type="line"/>
      <point x="312" y="674" type="line"/>
      <point x="301" y="691"/>
      <point x="287" y="707"/>
      <point x="274" y="723" type="curve"/>
    </contour>
    <contour>
      <point x="258" y="465" type="curve" smooth="yes"/>
      <point x="312" y="465"/>
      <point x="339" y="425"/>
      <point x="339" y="348" type="curve" smooth="yes"/>
      <point x="339" y="277"/>
      <point x="323" y="61"/>
      <point x="201" y="61" type="curve" smooth="yes"/>
      <point x="144" y="61"/>
      <point x="120" y="102"/>
      <point x="120" y="186" type="curve" smooth="yes"/>
      <point x="120" y="255"/>
      <point x="137" y="465"/>
    </contour>
  </outline>
</glyph>
<glyph name="ntilde" format="1">
  <advance width="456"/>
  <unicode hex="00F1"/>
  <outline>
    <contour>
      <point x="300" y="538" type="curve" smooth="yes"/>
      <point x="216" y="538"/>
      <point x="175" y="478"/>
      <point x="160" y="448" type="curve"/>
      <point x="160" y="526" type="line"/>
      <point x="96" y="526" type="line"/>
      <point x="22" y="0" type="line"/>
      <point x="104" y="0" type="line"/>
      <point x="145" y="294" type="line" smooth="yes"/>
      <point x="159" y="395"/>
      <point x="203" y="465"/>
      <point x="270" y="465" type="curve" smooth="yes"/>
      <point x="309" y="465"/>
      <point x="330" y="446"/>
      <point x="330" y="401" type="curve" smooth="yes"/>
      <point x="330" y="369"/>
      <point x="276" y="0"/>
      <point x="276" y="0" type="curve"/>
      <point x="358" y="0" type="line"/>
      <point x="358" y="0"/>
      <point x="414" y="388"/>
      <point x="414" y="420" type="curve" smooth="yes"/>
      <point x="414" y="480"/>
      <point x="387" y="538"/>
    </contour>
    <contour>
      <point x="374" y="723" type="line"/>
      <point x="368" y="700"/>
      <point x="353" y="692"/>
      <point x="335" y="692" type="curve" smooth="yes"/>
      <point x="295" y="692"/>
      <point x="266" y="723"/>
      <point x="221" y="723" type="curve" smooth="yes"/>
      <point x="163" y="723"/>
      <point x="133" y="665"/>
      <point x="125" y="619" type="curve"/>
      <point x="183" y="619" type="line"/>
      <point x="189" y="642"/>
      <point x="204" y="650"/>
      <point x="222" y="650" type="curve" smooth="yes"/>
      <point x="262" y="650"/>
      <point x="291" y="619"/>
      <point x="336" y="619" type="curve" smooth="yes"/>
      <point x="394" y="619"/>
      <point x="425" y="677"/>
      <point x="432" y="723" type="curve"/>
    </contour>
  </outline>
</glyph>
<glyph name="otilde" format="1">
  <advance width="456"/>
  <unicode hex="00F5"/>
  <outline>
    <contour>
      <point x="256" y="538" type="curve" smooth="yes"/>
      <point x="74" y="538"/>
      <point x="33" y="319"/>
      <point x="33" y="175" type="curve" smooth="yes"/>
      <point x="33" y="47"/>
      <point x="91" y="-12"/>
      <point x="199" y="-12" type="curve" smooth="yes"/>
      <point x="381" y="-12"/>
      <point x="422" y="205"/>
      <point x="422" y="349" type="curve" smooth="yes"/>
      <point x="422" y="478"/>
      <point x="364" y="538"/>
    </contour>
    <contour>
      <point x="256" y="465" type="curve" smooth="yes"/>
      <point x="310" y="465"/>
      <point x="337" y="425"/>
      <point x="337" y="348" type="curve" smooth="yes"/>
      <point x="337" y="277"/>
      <point x="321" y="61"/>
      <point x="199" y="61" type="curve" smooth="yes"/>
      <point x="142" y="61"/>
      <point x="118" y="102"/>
      <point x="118" y="186" type="curve" smooth="yes"/>
      <point x="118" y="255"/>
      <point x="135" y="465"/>
    </contour>
    <contour>
      <point x="377" y="723" type="line"/>
      <point x="372" y="700"/>
      <point x="356" y="692"/>
      <point x="339" y="692" type="curve" smooth="yes"/>
      <point x="299" y="692"/>
      <point x="270" y="723"/>
      <point x="225" y="723" type="curve" smooth="yes"/>
      <point x="167" y="723"/>
      <point x="137" y="665"/>
      <point x="129" y="619" type="curve"/>
      <point x="187" y="619" type="line"/>
      <point x="193" y="642"/>
      <point x="208" y="650"/>
      <point x="226" y="650" type="curve" smooth="yes"/>
      <point x="266" y="650"/>
      <point x="294" y="619"/>
      <point x="340" y="619" type="curve" smooth="yes"/>
      <point x="397" y="619"/>
      <point x="429" y="677"/>
      <point x="436" y="723" type="curve"/>
    </contour>
  </outline>
</glyph>
<glyph name="odieresis" format="1">
  <advance width="456"/>
  <unicode hex="00F6"/>
  <outline>
    <contour>
      <point x="256" y="538" type="curve" smooth="yes"/>
      <point x="74" y="538"/>
      <point x="33" y="319"/>
      <point x="33" y="175" type="curve" smooth="yes"/>
      <point x="33" y="47"/>
      <point x="91" y="-12"/>
      <point x="199" y="-12" type="curve" smooth="yes"/>
      <point x="381" y="-12"/>
      <point x="422" y="205"/>
      <point x="422" y="349" type="curve" smooth="yes"/>
      <point x="422" y="478"/>
      <point x="364" y="538"/>
    </contour>
    <contour>
      <point x="256" y="465" type="curve" smooth="yes"/>
      <point x="310" y="465"/>
      <point x="337" y="425"/>
      <point x="337" y="348" type="curve" smooth="yes"/>
      <point x="337" y="277"/>
      <point x="321" y="61"/>
      <point x="199" y="61" type="curve" smooth="yes"/>
      <point x="142" y="61"/>
      <point x="118" y="102"/>
      <point x="118" y="186" type="curve" smooth="yes"/>
      <point x="118" y="255"/>
      <point x="135" y="465"/>
    </contour>
    <contour>
      <point x="412" y="723" type="line"/>
      <point x="325" y="723" type="line"/>
      <point x="312" y="628" type="line"/>
      <point x="399" y="628" type="line"/>
    </contour>
    <contour>
      <point x="262" y="723" type="line"/>
      <point x="175" y="723" type="line"/>
      <point x="162" y="628" type="line"/>
      <point x="249" y="628" type="line"/>
    </contour>
  </outline>
</glyph>
<glyph name="divide" format="1">
  <advance width="549"/>
  <unicode hex="00F7"/>
  <outline>
    <contour>
      <point x="510" y="297" type="line"/>
      <point x="48" y="297" type="line"/>
      <point x="37" y="213" type="line"/>
      <point x="499" y="213" type="line"/>
    </contour>
    <contour>
      <point x="299" y="141" type="line"/>
      <point x="215" y="141" type="line"/>
      <point x="203" y="51" type="line"/>
      <point x="287" y="51" type="line"/>
    </contour>
    <contour>
      <point x="344" y="460" type="line"/>
      <point x="260" y="460" type="line"/>
      <point x="247" y="369" type="line"/>
      <point x="331" y="369" type="line"/>
    </contour>
  </outline>
</glyph>
<glyph name="ucircumflex" format="1">
  <advance width="456"/>
  <unicode hex="00FB"/>
  <outline>
    <contour>
      <point x="434" y="526" type="line"/>
      <point x="352" y="526" type="line"/>
      <point x="311" y="232" type="line" smooth="yes"/>
      <point x="297" y="131"/>
      <point x="253" y="61"/>
      <point x="186" y="61" type="curve" smooth="yes"/>
      <point x="147" y="61"/>
      <point x="126" y="80"/>
      <point x="126" y="125" type="curve" smooth="yes"/>
      <point x="126" y="157"/>
      <point x="180" y="526"/>
      <point x="180" y="526" type="curve"/>
      <point x="98" y="526" type="line"/>
      <point x="98" y="526"/>
      <point x="42" y="138"/>
      <point x="42" y="106" type="curve" smooth="yes"/>
      <point x="42" y="46"/>
      <point x="69" y="-12"/>
      <point x="156" y="-12" type="curve" smooth="yes"/>
      <point x="240" y="-12"/>
      <point x="281" y="47"/>
      <point x="296" y="77" type="curve"/>
      <point x="296" y="0" type="line"/>
      <point x="360" y="0" type="line"/>
    </contour>
    <contour>
      <point x="328" y="723" type="line"/>
      <point x="250" y="723" type="line"/>
      <point x="145" y="588" type="line"/>
      <point x="228" y="588" type="line"/>
      <point x="284" y="667" type="line"/>
      <point x="317" y="588" type="line"/>
      <point x="394" y="588" type="line"/>
    </contour>
  </outline>
</glyph>
<glyph name="udieresis" format="1">
  <advance width="456"/>
  <unicode hex="00FC"/>
  <outline>
    <contour>
      <point x="434" y="526" type="line"/>
      <point x="352" y="526" type="line"/>
      <point x="311" y="232" type="line" smooth="yes"/>
      <point x="297" y="131"/>
      <point x="253" y="61"/>
      <point x="186" y="61" type="curve" smooth="yes"/>
      <point x="147" y="61"/>
      <point x="126" y="80"/>
      <point x="126" y="125" type="curve" smooth="yes"/>
      <point x="126" y="157"/>
      <point x="180" y="526"/>
      <point x="180" y="526" type="curve"/>
      <point x="98" y="526" type="line"/>
      <point x="98" y="526"/>
      <point x="42" y="138"/>
      <point x="42" y="106" type="curve" smooth="yes"/>
      <point x="42" y="46"/>
      <point x="69" y="-12"/>
      <point x="156" y="-12" type="curve" smooth="yes"/>
      <point x="240" y="-12"/>
      <point x="281" y="47"/>
      <point x="296" y="77" type="curve"/>
      <point x="296" y="0" type="line"/>
      <point x="360" y="0" type="line"/>
    </contour>
    <contour>
      <point x="412" y="723" type="line"/>
      <point x="325" y="723" type="line"/>
      <point x="312" y="628" type="line"/>
      <point x="399" y="628" type="line"/>
    </contour>
    <contour>
      <point x="262" y="723" type="line"/>
      <point x="175" y="723" type="line"/>
      <point x="162" y="628" type="line"/>
      <point x="249" y="628" type="line"/>
    </contour>
  </outline>
</glyph>
<glyph name="thorn" format="1">
  <advance width="456"/>
  <unicode hex="00FE"/>
  <outline>
    <contour>
      <point x="207" y="723" type="line"/>
      <point x="125" y="723" type="line"/>
      <point x="-1" y="-182" type="line"/>
      <point x="81" y="-182" type="line"/>
      <point x="115" y="58" type="line"/>
      <point x="138" y="8"/>
      <point x="176" y="-12"/>
      <point x="220" y="-12" type="curve" smooth="yes"/>
      <point x="318" y="-12"/>
      <point x="423" y="102"/>
      <point x="423" y="343" type="curve" smooth="yes"/>
      <point x="423" y="478"/>
      <point x="367" y="538"/>
      <point x="290" y="538" type="curve" smooth="yes"/>
      <point x="245" y="538"/>
      <point x="203" y="515"/>
      <point x="170" y="466" type="curve"/>
    </contour>
    <contour>
      <point x="265" y="465" type="curve" smooth="yes"/>
      <point x="314" y="465"/>
      <point x="339" y="427"/>
      <point x="339" y="351" type="curve" smooth="yes"/>
      <point x="339" y="265"/>
      <point x="315" y="61"/>
      <point x="208" y="61" type="curve" smooth="yes"/>
      <point x="159" y="61"/>
      <point x="135" y="99"/>
      <point x="135" y="174" type="curve" smooth="yes"/>
      <point x="135" y="254"/>
      <point x="161" y="465"/>
    </contour>
  </outline>
</glyph>
<glyph name="ydieresis" format="1">
  <advance width="410"/>
  <unicode hex="00FF"/>
  <outline>
    <contour>
      <point x="448" y="526" type="line"/>
      <point x="360" y="526" type="line"/>
      <point x="198" y="106" type="line"/>
      <point x="194" y="106" type="line"/>
      <point x="134" y="526" type="line"/>
      <point x="47" y="526" type="line"/>
      <point x="134" y="0" type="line"/>
      <point x="103" y="-90"/>
      <point x="58" y="-117"/>
      <point x="14" y="-117" type="curve" smooth="yes"/>
      <point x="-14" y="-117" type="line"/>
      <point x="-22" y="-174" type="line"/>
      <point x="-7" y="-180"/>
      <point x="12" y="-182"/>
      <point x="35" y="-182" type="curve" smooth="yes"/>
      <point x="127" y="-182"/>
      <point x="185" y="-87"/>
      <point x="234" y="27" type="curve" smooth="yes"/>
    </contour>
    <contour>
      <point x="402" y="723" type="line"/>
      <point x="315" y="723" type="line"/>
      <point x="302" y="628" type="line"/>
      <point x="389" y="628" type="line"/>
    </contour>
    <contour>
      <point x="252" y="723" type="line"/>
      <point x="166" y="723" type="line"/>
      <point x="152" y="628" type="line"/>
      <point x="239" y="628" type="line"/>
    </contour>
  </outline>
</glyph>
<glyph name="Abreve" format="1">
  <advance width="547"/>
  <unicode hex="0102"/>
  <outline>
    <contour>
      <point x="423" y="883" type="line"/>
      <point x="419" y="869"/>
      <point x="393" y="850"/>
      <point x="359" y="850" type="curve" smooth="yes"/>
      <point x="326" y="850"/>
      <point x="305" y="869"/>
      <point x="304" y="883" type="curve"/>
      <point x="240" y="883" type="line"/>
      <point x="239" y="880"/>
      <point x="239" y="877"/>
      <point x="239" y="874" type="curve" smooth="yes"/>
      <point x="239" y="831"/>
      <point x="281" y="786"/>
      <point x="355" y="786" type="curve" smooth="yes"/>
      <point x="429" y="786"/>
      <point x="481" y="838"/>
      <point x="487" y="883" type="curve"/>
    </contour>
    <contour>
      <point x="421" y="0" type="line"/>
      <point x="512" y="0" type="line"/>
      <point x="391" y="686" type="line"/>
      <point x="278" y="686" type="line"/>
      <point x="-36" y="0" type="line"/>
      <point x="51" y="0" type="line"/>
      <point x="120" y="153" type="line"/>
      <point x="395" y="153" type="line"/>
    </contour>
    <contour>
      <point x="294" y="538" type="line" smooth="yes"/>
      <point x="304" y="560"/>
      <point x="322" y="614"/>
      <point x="322" y="614" type="curve"/>
      <point x="326" y="614" type="line"/>
      <point x="326" y="614"/>
      <point x="327" y="561"/>
      <point x="331" y="538" type="curve" smooth="yes"/>
      <point x="382" y="233" type="line"/>
      <point x="156" y="233" type="line"/>
    </contour>
  </outline>
</glyph>
<glyph name="Aogonek" format="1">
  <advance width="547"/>
  <unicode hex="0104"/>
  <outline>
    <contour>
      <point x="542" y="-125" type="line"/>
      <point x="509" y="-125" type="line" smooth="yes"/>
      <point x="481" y="-125"/>
      <point x="471" y="-106"/>
      <point x="471" y="-83" type="curve" smooth="yes"/>
      <point x="471" y="-50"/>
      <point x="495" y="-17"/>
      <point x="512" y="0" type="curve"/>
      <point x="391" y="686" type="line"/>
      <point x="278" y="686" type="line"/>
      <point x="-36" y="0" type="line"/>
      <point x="51" y="0" type="line"/>
      <point x="120" y="153" type="line"/>
      <point x="395" y="153" type="line"/>
      <point x="421" y="0" type="line"/>
      <point x="447" y="0" type="line"/>
      <point x="418" y="-26"/>
      <point x="389" y="-59"/>
      <point x="389" y="-111" type="curve" smooth="yes"/>
      <point x="389" y="-172"/>
      <point x="430" y="-190"/>
      <point x="471" y="-190" type="curve" smooth="yes"/>
      <point x="491" y="-190"/>
      <point x="512" y="-185"/>
      <point x="534" y="-176" type="curve"/>
    </contour>
    <contour>
      <point x="382" y="233" type="line"/>
      <point x="156" y="233" type="line"/>
      <point x="294" y="538" type="line" smooth="yes"/>
      <point x="304" y="560"/>
      <point x="322" y="614"/>
      <point x="322" y="614" type="curve"/>
      <point x="326" y="614" type="line"/>
      <point x="326" y="614"/>
      <point x="327" y="561"/>
      <point x="331" y="538" type="curve" smooth="yes"/>
    </contour>
  </outline>
</glyph>
<glyph name="aogonek" format="1">
  <advance width="456"/>
  <unicode hex="0105"/>
  <outline>
    <contour>
      <point x="444" y="-121" type="line"/>
      <point x="412" y="-121" type="line" smooth="yes"/>
      <point x="384" y="-121"/>
      <point x="374" y="-102"/>
      <point x="374" y="-79" type="curve" smooth="yes"/>
      <point x="374" y="-46"/>
      <point x="398" y="-13"/>
      <point x="415" y="4" type="curve"/>
      <point x="423" y="61" type="line"/>
      <point x="391" y="61" type="line" smooth="yes"/>
      <point x="378" y="61"/>
      <point x="367" y="69"/>
      <point x="367" y="89" type="curve" smooth="yes"/>
      <point x="367" y="101"/>
      <point x="428" y="526"/>
      <point x="428" y="526" type="curve"/>
      <point x="363" y="526" type="line"/>
      <point x="345" y="453" type="line"/>
      <point x="325" y="518"/>
      <point x="284" y="538"/>
      <point x="236" y="538" type="curve" smooth="yes"/>
      <point x="138" y="538"/>
      <point x="33" y="424"/>
      <point x="33" y="183" type="curve" smooth="yes"/>
      <point x="33" y="48"/>
      <point x="89" y="-12"/>
      <point x="166" y="-12" type="curve" smooth="yes"/>
      <point x="213" y="-12"/>
      <point x="249" y="14"/>
      <point x="287" y="71" type="curve"/>
      <point x="288" y="23"/>
      <point x="307" y="-1"/>
      <point x="336" y="-9" type="curve"/>
      <point x="312" y="-33"/>
      <point x="292" y="-63"/>
      <point x="292" y="-107" type="curve" smooth="yes"/>
      <point x="292" y="-168"/>
      <point x="333" y="-186"/>
      <point x="374" y="-186" type="curve" smooth="yes"/>
      <point x="394" y="-186"/>
      <point x="415" y="-181"/>
      <point x="437" y="-172" type="curve"/>
    </contour>
    <contour>
      <point x="191" y="61" type="curve" smooth="yes"/>
      <point x="142" y="61"/>
      <point x="117" y="99"/>
      <point x="117" y="175" type="curve" smooth="yes"/>
      <point x="117" y="261"/>
      <point x="141" y="465"/>
      <point x="248" y="465" type="curve" smooth="yes"/>
      <point x="294" y="465"/>
      <point x="317" y="427"/>
      <point x="317" y="352" type="curve" smooth="yes"/>
      <point x="317" y="272"/>
      <point x="286" y="61"/>
    </contour>
  </outline>
</glyph>
<glyph name="Ccircumflex" format="1">
  <advance width="592"/>
  <unicode hex="0108"/>
  <outline>
    <contour>
      <point x="353" y="698" type="curve" smooth="yes"/>
      <point x="117" y="698"/>
      <point x="51" y="421"/>
      <point x="51" y="241" type="curve" smooth="yes"/>
      <point x="51" y="67"/>
      <point x="142" y="-12"/>
      <point x="285" y="-12" type="curve" smooth="yes"/>
      <point x="437" y="-12"/>
      <point x="523" y="106"/>
      <point x="541" y="242" type="curve"/>
      <point x="454" y="242" type="line"/>
      <point x="440" y="151"/>
      <point x="384" y="70"/>
      <point x="282" y="70" type="curve" smooth="yes"/>
      <point x="191" y="70"/>
      <point x="141" y="133"/>
      <point x="141" y="246" type="curve" smooth="yes"/>
      <point x="141" y="320"/>
      <point x="164" y="617"/>
      <point x="352" y="617" type="curve" smooth="yes"/>
      <point x="438" y="617"/>
      <point x="479" y="563"/>
      <point x="479" y="459" type="curve" smooth="yes"/>
      <point x="479" y="437" type="line"/>
      <point x="570" y="437" type="line"/>
      <point x="570" y="453" type="line" smooth="yes"/>
      <point x="570" y="620"/>
      <point x="495" y="698"/>
    </contour>
    <contour>
      <point x="415" y="883" type="line"/>
      <point x="336" y="883" type="line"/>
      <point x="231" y="748" type="line"/>
      <point x="314" y="748" type="line"/>
      <point x="371" y="827" type="line"/>
      <point x="403" y="748" type="line"/>
      <point x="480" y="748" type="line"/>
    </contour>
  </outline>
</glyph>
<glyph name="Cdotaccent" format="1">
  <advance width="592"/>
  <unicode hex="010A"/>
  <outline>
    <contour>
      <point x="353" y="698" type="curve" smooth="yes"/>
      <point x="117" y="698"/>
      <point x="51" y="421"/>
      <point x="51" y="241" type="curve" smooth="yes"/>
      <point x="51" y="67"/>
      <point x="142" y="-12"/>
      <point x="285" y="-12" type="curve" smooth="yes"/>
      <point x="437" y="-12"/>
      <point x="523" y="106"/>
      <point x="541" y="242" type="curve"/>
      <point x="454" y="242" type="line"/>
      <point x="440" y="151"/>
      <point x="384" y="70"/>
      <point x="282" y="70" type="curve" smooth="yes"/>
      <point x="191" y="70"/>
      <point x="141" y="133"/>
      <point x="141" y="246" type="curve" smooth="yes"/>
      <point x="141" y="320"/>
      <point x="164" y="617"/>
      <point x="352" y="617" type="curve" smooth="yes"/>
      <point x="438" y="617"/>
      <point x="479" y="563"/>
      <point x="479" y="459" type="curve" smooth="yes"/>
      <point x="479" y="437" type="line"/>
      <point x="570" y="437" type="line"/>
      <point x="570" y="453" type="line" smooth="yes"/>
      <point x="570" y="620"/>
      <point x="495" y="698"/>
    </contour>
    <contour>
      <point x="422" y="883" type="line"/>
      <point x="335" y="883" type="line"/>
      <point x="322" y="788" type="line"/>
      <point x="409" y="788" type="line"/>
    </contour>
  </outline>
</glyph>
<glyph name="Dcaron" format="1">
  <advance width="592"/>
  <unicode hex="010E"/>
  <outline>
    <contour>
      <point x="475" y="883" type="line"/>
      <point x="392" y="883" type="line"/>
      <point x="339" y="804" type="line"/>
      <point x="306" y="883" type="line"/>
      <point x="226" y="883" type="line"/>
      <point x="292" y="748" type="line"/>
      <point x="370" y="748" type="line"/>
    </contour>
    <contour>
      <point x="265" y="0" type="line" smooth="yes"/>
      <point x="484" y="0"/>
      <point x="563" y="251"/>
      <point x="563" y="429" type="curve" smooth="yes"/>
      <point x="563" y="600"/>
      <point x="479" y="686"/>
      <point x="334" y="686" type="curve" smooth="yes"/>
      <point x="131" y="686" type="line"/>
      <point x="34" y="0" type="line"/>
    </contour>
    <contour>
      <point x="324" y="606" type="line" smooth="yes"/>
      <point x="417" y="606"/>
      <point x="472" y="548"/>
      <point x="472" y="428" type="curve" smooth="yes"/>
      <point x="472" y="288"/>
      <point x="427" y="80"/>
      <point x="255" y="80" type="curve" smooth="yes"/>
      <point x="134" y="80" type="line"/>
      <point x="207" y="606" type="line"/>
    </contour>
  </outline>
</glyph>
<glyph name="dcaron" format="1">
  <advance width="512"/>
  <unicode hex="010F"/>
  <outline>
    <contour>
      <point x="460" y="723" type="line"/>
      <point x="378" y="723" type="line"/>
      <point x="342" y="468" type="line"/>
      <point x="319" y="518"/>
      <point x="281" y="538"/>
      <point x="237" y="538" type="curve" smooth="yes"/>
      <point x="139" y="538"/>
      <point x="34" y="424"/>
      <point x="34" y="183" type="curve" smooth="yes"/>
      <point x="34" y="48"/>
      <point x="90" y="-12"/>
      <point x="167" y="-12" type="curve" smooth="yes"/>
      <point x="215" y="-12"/>
      <point x="259" y="14"/>
      <point x="294" y="71" type="curve"/>
      <point x="294" y="0" type="line"/>
      <point x="359" y="0" type="line"/>
    </contour>
    <contour>
      <point x="249" y="465" type="curve" smooth="yes"/>
      <point x="298" y="465"/>
      <point x="322" y="427"/>
      <point x="322" y="352" type="curve" smooth="yes"/>
      <point x="322" y="272"/>
      <point x="296" y="61"/>
      <point x="192" y="61" type="curve" smooth="yes"/>
      <point x="143" y="61"/>
      <point x="118" y="99"/>
      <point x="118" y="175" type="curve" smooth="yes"/>
      <point x="118" y="261"/>
      <point x="142" y="465"/>
    </contour>
    <contour>
      <point x="616" y="686" type="line"/>
      <point x="516" y="686" type="line"/>
      <point x="501" y="578" type="line"/>
      <point x="534" y="578" type="line"/>
      <point x="483" y="454" type="line"/>
      <point x="538" y="454" type="line"/>
      <point x="602" y="587" type="line"/>
    </contour>
  </outline>
</glyph>
<glyph name="dcroat" format="1">
  <advance width="453"/>
  <unicode hex="0111"/>
  <outline>
    <contour>
      <point x="496" y="583" type="line"/>
      <point x="506" y="651" type="line"/>
      <point x="450" y="651" type="line"/>
      <point x="460" y="723" type="line"/>
      <point x="378" y="723" type="line"/>
      <point x="368" y="651" type="line"/>
      <point x="253" y="651" type="line"/>
      <point x="243" y="583" type="line"/>
      <point x="358" y="583" type="line"/>
      <point x="342" y="468" type="line"/>
      <point x="319" y="518"/>
      <point x="281" y="538"/>
      <point x="237" y="538" type="curve" smooth="yes"/>
      <point x="139" y="538"/>
      <point x="34" y="424"/>
      <point x="34" y="183" type="curve" smooth="yes"/>
      <point x="34" y="48"/>
      <point x="90" y="-12"/>
      <point x="167" y="-12" type="curve" smooth="yes"/>
      <point x="215" y="-12"/>
      <point x="259" y="14"/>
      <point x="294" y="71" type="curve"/>
      <point x="294" y="0" type="line"/>
      <point x="359" y="0" type="line"/>
      <point x="440" y="583" type="line"/>
    </contour>
    <contour>
      <point x="192" y="61" type="curve" smooth="yes"/>
      <point x="143" y="61"/>
      <point x="118" y="99"/>
      <point x="118" y="175" type="curve" smooth="yes"/>
      <point x="118" y="261"/>
      <point x="142" y="465"/>
      <point x="249" y="465" type="curve" smooth="yes"/>
      <point x="298" y="465"/>
      <point x="322" y="427"/>
      <point x="322" y="352" type="curve" smooth="yes"/>
      <point x="322" y="272"/>
      <point x="296" y="61"/>
    </contour>
  </outline>
</glyph>
<glyph name="Ebreve" format="1">
  <advance width="547"/>
  <unicode hex="0114"/>
  <outline>
    <contour>
      <point x="414" y="883" type="line"/>
      <point x="410" y="869"/>
      <point x="384" y="850"/>
      <point x="350" y="850" type="curve" smooth="yes"/>
      <point x="317" y="850"/>
      <point x="296" y="869"/>
      <point x="295" y="883" type="curve"/>
      <point x="231" y="883" type="line"/>
      <point x="230" y="880"/>
      <point x="230" y="877"/>
      <point x="230" y="874" type="curve" smooth="yes"/>
      <point x="230" y="831"/>
      <point x="272" y="786"/>
      <point x="346" y="786" type="curve" smooth="yes"/>
      <point x="420" y="786"/>
      <point x="472" y="838"/>
      <point x="478" y="883" type="curve"/>
    </contour>
    <contour>
      <point x="463" y="0" type="line"/>
      <point x="475" y="80" type="line"/>
      <point x="134" y="80" type="line"/>
      <point x="166" y="311" type="line"/>
      <point x="457" y="311" type="line"/>
      <point x="468" y="391" type="line"/>
      <point x="177" y="391" type="line"/>
      <point x="207" y="606" type="line"/>
      <point x="542" y="606" type="line"/>
      <point x="554" y="686" type="line"/>
      <point x="131" y="686" type="line"/>
      <point x="34" y="0" type="line"/>
    </contour>
  </outline>
</glyph>
<glyph name="edotaccent" format="1">
  <advance width="456"/>
  <unicode hex="0117"/>
  <outline>
    <contour>
      <point x="258" y="538" type="curve" smooth="yes"/>
      <point x="76" y="538"/>
      <point x="35" y="329"/>
      <point x="35" y="179" type="curve" smooth="yes"/>
      <point x="35" y="48"/>
      <point x="97" y="-12"/>
      <point x="205" y="-12" type="curve" smooth="yes"/>
      <point x="317" y="-12"/>
      <point x="383" y="76"/>
      <point x="399" y="178" type="curve"/>
      <point x="316" y="178" type="line"/>
      <point x="307" y="115"/>
      <point x="264" y="61"/>
      <point x="205" y="61" type="curve" smooth="yes"/>
      <point x="148" y="61"/>
      <point x="120" y="102"/>
      <point x="120" y="186" type="curve" smooth="yes"/>
      <point x="120" y="199"/>
      <point x="121" y="218"/>
      <point x="123" y="239" type="curve"/>
      <point x="412" y="239" type="line"/>
      <point x="418" y="277"/>
      <point x="420" y="315"/>
      <point x="420" y="349" type="curve" smooth="yes"/>
      <point x="420" y="478"/>
      <point x="363" y="538"/>
    </contour>
    <contour>
      <point x="258" y="465" type="curve" smooth="yes"/>
      <point x="309" y="465"/>
      <point x="335" y="425"/>
      <point x="335" y="348" type="curve" smooth="yes"/>
      <point x="335" y="339"/>
      <point x="335" y="325"/>
      <point x="334" y="312" type="curve"/>
      <point x="133" y="312" type="line"/>
      <point x="149" y="388"/>
      <point x="185" y="465"/>
    </contour>
    <contour>
      <point x="337" y="723" type="line"/>
      <point x="250" y="723" type="line"/>
      <point x="237" y="628" type="line"/>
      <point x="324" y="628" type="line"/>
    </contour>
  </outline>
</glyph>
<glyph name="Eogonek" format="1">
  <advance width="547"/>
  <unicode hex="0118"/>
  <outline>
    <contour>
      <point x="207" y="606" type="line"/>
      <point x="542" y="606" type="line"/>
      <point x="554" y="686" type="line"/>
      <point x="131" y="686" type="line"/>
      <point x="34" y="0" type="line"/>
      <point x="398" y="0" type="line"/>
      <point x="369" y="-26"/>
      <point x="340" y="-59"/>
      <point x="340" y="-111" type="curve" smooth="yes"/>
      <point x="340" y="-172"/>
      <point x="381" y="-190"/>
      <point x="422" y="-190" type="curve" smooth="yes"/>
      <point x="442" y="-190"/>
      <point x="463" y="-185"/>
      <point x="485" y="-176" type="curve"/>
      <point x="492" y="-125" type="line"/>
      <point x="460" y="-125" type="line" smooth="yes"/>
      <point x="432" y="-125"/>
      <point x="422" y="-106"/>
      <point x="422" y="-83" type="curve" smooth="yes"/>
      <point x="422" y="-50"/>
      <point x="446" y="-17"/>
      <point x="463" y="0" type="curve"/>
      <point x="475" y="80" type="line"/>
      <point x="134" y="80" type="line"/>
      <point x="166" y="311" type="line"/>
      <point x="457" y="311" type="line"/>
      <point x="468" y="391" type="line"/>
      <point x="177" y="391" type="line"/>
    </contour>
  </outline>
</glyph>
<glyph name="eogonek" format="1">
  <advance width="456"/>
  <unicode hex="0119"/>
  <outline>
    <contour>
      <point x="412" y="239" type="line"/>
      <point x="418" y="277"/>
      <point x="420" y="315"/>
      <point x="420" y="349" type="curve" smooth="yes"/>
      <point x="420" y="478"/>
      <point x="363" y="538"/>
      <point x="258" y="538" type="curve" smooth="yes"/>
      <point x="76" y="538"/>
      <point x="35" y="329"/>
      <point x="35" y="179" type="curve" smooth="yes"/>
      <point x="35" y="49"/>
      <point x="96" y="-11"/>
      <point x="201" y="-12" type="curve"/>
      <point x="179" y="-36"/>
      <point x="161" y="-64"/>
      <point x="161" y="-106" type="curve" smooth="yes"/>
      <point x="161" y="-167"/>
      <point x="202" y="-185"/>
      <point x="243" y="-185" type="curve" smooth="yes"/>
      <point x="263" y="-185"/>
      <point x="284" y="-180"/>
      <point x="306" y="-171" type="curve"/>
      <point x="313" y="-120" type="line"/>
      <point x="281" y="-120" type="line" smooth="yes"/>
      <point x="253" y="-120"/>
      <point x="243" y="-101"/>
      <point x="243" y="-78" type="curve" smooth="yes"/>
      <point x="243" y="-45"/>
      <point x="267" y="-12"/>
      <point x="284" y="5" type="curve"/>
      <point x="348" y="35"/>
      <point x="387" y="103"/>
      <point x="399" y="178" type="curve"/>
      <point x="316" y="178" type="line"/>
      <point x="307" y="115"/>
      <point x="264" y="61"/>
      <point x="205" y="61" type="curve" smooth="yes"/>
      <point x="148" y="61"/>
      <point x="120" y="102"/>
      <point x="120" y="186" type="curve" smooth="yes"/>
      <point x="120" y="199"/>
      <point x="121" y="218"/>
      <point x="123" y="239" type="curve"/>
    </contour>
    <contour>
      <point x="133" y="312" type="line"/>
      <point x="149" y="388"/>
      <point x="185" y="465"/>
      <point x="258" y="465" type="curve" smooth="yes"/>
      <point x="309" y="465"/>
      <point x="335" y="425"/>
      <point x="335" y="348" type="curve" smooth="yes"/>
      <point x="335" y="339"/>
      <point x="335" y="325"/>
      <point x="334" y="312" type="curve"/>
    </contour>
  </outline>
</glyph>
<glyph name="ecaron" format="1">
  <advance width="456"/>
  <unicode hex="011B"/>
  <outline>
    <contour>
      <point x="258" y="538" type="curve" smooth="yes"/>
      <point x="76" y="538"/>
      <point x="35" y="329"/>
      <point x="35" y="179" type="curve" smooth="yes"/>
      <point x="35" y="48"/>
      <point x="97" y="-12"/>
      <point x="205" y="-12" type="curve" smooth="yes"/>
      <point x="317" y="-12"/>
      <point x="383" y="76"/>
      <point x="399" y="178" type="curve"/>
      <point x="316" y="178" type="line"/>
      <point x="307" y="115"/>
      <point x="264" y="61"/>
      <point x="205" y="61" type="curve" smooth="yes"/>
      <point x="148" y="61"/>
      <point x="120" y="102"/>
      <point x="120" y="186" type="curve" smooth="yes"/>
      <point x="120" y="199"/>
      <point x="121" y="218"/>
      <point x="123" y="239" type="curve"/>
      <point x="412" y="239" type="line"/>
      <point x="418" y="277"/>
      <point x="420" y="315"/>
      <point x="420" y="349" type="curve" smooth="yes"/>
      <point x="420" y="478"/>
      <point x="363" y="538"/>
    </contour>
    <contour>
      <point x="258" y="465" type="curve" smooth="yes"/>
      <point x="309" y="465"/>
      <point x="335" y="425"/>
      <point x="335" y="348" type="curve" smooth="yes"/>
      <point x="335" y="339"/>
      <point x="335" y="325"/>
      <point x="334" y="312" type="curve"/>
      <point x="133" y="312" type="line"/>
      <point x="149" y="388"/>
      <point x="185" y="465"/>
    </contour>
    <contour>
      <point x="416" y="723" type="line"/>
      <point x="333" y="723" type="line"/>
      <point x="280" y="644" type="line"/>
      <point x="247" y="723" type="line"/>
      <point x="167" y="723" type="line"/>
      <point x="233" y="588" type="line"/>
      <point x="311" y="588" type="line"/>
    </contour>
  </outline>
</glyph>
<glyph name="Gbreve" format="1">
  <advance width="638"/>
  <unicode hex="011E"/>
  <outline>
    <contour>
      <point x="457" y="883" type="line"/>
      <point x="453" y="869"/>
      <point x="427" y="850"/>
      <point x="393" y="850" type="curve" smooth="yes"/>
      <point x="360" y="850"/>
      <point x="339" y="869"/>
      <point x="338" y="883" type="curve"/>
      <point x="274" y="883" type="line"/>
      <point x="273" y="880"/>
      <point x="273" y="877"/>
      <point x="273" y="874" type="curve" smooth="yes"/>
      <point x="273" y="831"/>
      <point x="315" y="786"/>
      <point x="389" y="786" type="curve" smooth="yes"/>
      <point x="463" y="786"/>
      <point x="515" y="838"/>
      <point x="521" y="883" type="curve"/>
    </contour>
    <contour>
      <point x="475" y="0" type="line"/>
      <point x="533" y="0" type="line"/>
      <point x="584" y="357" type="line"/>
      <point x="315" y="357" type="line"/>
      <point x="304" y="280" type="line"/>
      <point x="484" y="280" type="line"/>
      <point x="478" y="242" type="line" smooth="yes"/>
      <point x="463" y="150"/>
      <point x="404" y="70"/>
      <point x="293" y="70" type="curve" smooth="yes"/>
      <point x="189" y="70"/>
      <point x="140" y="133"/>
      <point x="140" y="246" type="curve" smooth="yes"/>
      <point x="140" y="335"/>
      <point x="166" y="617"/>
      <point x="363" y="617" type="curve" smooth="yes"/>
      <point x="460" y="617"/>
      <point x="505" y="563"/>
      <point x="505" y="459" type="curve" smooth="yes"/>
      <point x="505" y="452" type="line"/>
      <point x="596" y="452" type="line"/>
      <point x="596" y="619"/>
      <point x="517" y="698"/>
      <point x="364" y="698" type="curve" smooth="yes"/>
      <point x="119" y="698"/>
      <point x="50" y="421"/>
      <point x="50" y="241" type="curve" smooth="yes"/>
      <point x="50" y="67"/>
      <point x="142" y="-12"/>
      <point x="285" y="-12" type="curve" smooth="yes"/>
      <point x="365" y="-12"/>
      <point x="425" y="22"/>
      <point x="467" y="76" type="curve"/>
    </contour>
  </outline>
</glyph>
<glyph name="gbreve" format="1">
  <advance width="456"/>
  <unicode hex="011F"/>
  <outline>
    <contour>
      <point x="351" y="723" type="line"/>
      <point x="347" y="709"/>
      <point x="321" y="690"/>
      <point x="287" y="690" type="curve" smooth="yes"/>
      <point x="254" y="690"/>
      <point x="233" y="709"/>
      <point x="232" y="723" type="curve"/>
      <point x="168" y="723" type="line"/>
      <point x="167" y="720"/>
      <point x="167" y="717"/>
      <point x="167" y="714" type="curve" smooth="yes"/>
      <point x="167" y="671"/>
      <point x="209" y="626"/>
      <point x="283" y="626" type="curve" smooth="yes"/>
      <point x="357" y="626"/>
      <point x="409" y="678"/>
      <point x="415" y="723" type="curve"/>
    </contour>
    <contour>
      <point x="250" y="465" type="curve" smooth="yes"/>
      <point x="299" y="465"/>
      <point x="323" y="427"/>
      <point x="324" y="352" type="curve" smooth="yes"/>
      <point x="324" y="278"/>
      <point x="295" y="81"/>
      <point x="197" y="81" type="curve" smooth="yes"/>
      <point x="148" y="81"/>
      <point x="121" y="113"/>
      <point x="121" y="182" type="curve" smooth="yes"/>
      <point x="121" y="265"/>
      <point x="141" y="465"/>
    </contour>
    <contour>
      <point x="282" y="25" type="line" smooth="yes"/>
      <point x="267" y="-67"/>
      <point x="233" y="-110"/>
      <point x="168" y="-110" type="curve" smooth="yes"/>
      <point x="115" y="-110"/>
      <point x="89" y="-81"/>
      <point x="89" y="-24" type="curve"/>
      <point x="7" y="-24" type="line"/>
      <point x="7" y="-108"/>
      <point x="57" y="-182"/>
      <point x="165" y="-182" type="curve" smooth="yes"/>
      <point x="278" y="-182"/>
      <point x="344" y="-115"/>
      <point x="367" y="49" type="curve" smooth="yes"/>
      <point x="434" y="526" type="line"/>
      <point x="369" y="526" type="line"/>
      <point x="352" y="453" type="line"/>
      <point x="331" y="518"/>
      <point x="289" y="538"/>
      <point x="239" y="538" type="curve" smooth="yes"/>
      <point x="141" y="538"/>
      <point x="37" y="430"/>
      <point x="37" y="190" type="curve" smooth="yes"/>
      <point x="37" y="101"/>
      <point x="72" y="8"/>
      <point x="171" y="8" type="curve" smooth="yes"/>
      <point x="220" y="8"/>
      <point x="257" y="34"/>
      <point x="293" y="91" type="curve"/>
    </contour>
  </outline>
</glyph>
<glyph name="gcommaaccent" format="1">
  <advance width="456"/>
  <unicode hex="0123"/>
  <outline>
    <contour>
      <point x="229" y="595" type="line"/>
      <point x="314" y="595" type="line"/>
      <point x="327" y="686" type="line"/>
      <point x="293" y="686" type="line"/>
      <point x="325" y="755" type="line"/>
      <point x="276" y="755" type="line"/>
      <point x="241" y="679" type="line"/>
    </contour>
    <contour>
      <point x="250" y="465" type="curve" smooth="yes"/>
      <point x="299" y="465"/>
      <point x="323" y="427"/>
      <point x="324" y="352" type="curve" smooth="yes"/>
      <point x="324" y="278"/>
      <point x="295" y="81"/>
      <point x="197" y="81" type="curve" smooth="yes"/>
      <point x="148" y="81"/>
      <point x="121" y="113"/>
      <point x="121" y="182" type="curve" smooth="yes"/>
      <point x="121" y="265"/>
      <point x="141" y="465"/>
    </contour>
    <contour>
      <point x="282" y="25" type="line" smooth="yes"/>
      <point x="267" y="-67"/>
      <point x="233" y="-110"/>
      <point x="168" y="-110" type="curve" smooth="yes"/>
      <point x="115" y="-110"/>
      <point x="89" y="-81"/>
      <point x="89" y="-24" type="curve"/>
      <point x="7" y="-24" type="line"/>
      <point x="7" y="-108"/>
      <point x="57" y="-182"/>
      <point x="165" y="-182" type="curve" smooth="yes"/>
      <point x="278" y="-182"/>
      <point x="344" y="-115"/>
      <point x="367" y="49" type="curve" smooth="yes"/>
      <point x="434" y="526" type="line"/>
      <point x="369" y="526" type="line"/>
      <point x="352" y="453" type="line"/>
      <point x="331" y="518"/>
      <point x="289" y="538"/>
      <point x="239" y="538" type="curve" smooth="yes"/>
      <point x="141" y="538"/>
      <point x="37" y="430"/>
      <point x="37" y="190" type="curve" smooth="yes"/>
      <point x="37" y="101"/>
      <point x="72" y="8"/>
      <point x="171" y="8" type="curve" smooth="yes"/>
      <point x="220" y="8"/>
      <point x="257" y="34"/>
      <point x="293" y="91" type="curve"/>
    </contour>
  </outline>
</glyph>
<glyph name="Hcircumflex" format="1">
  <advance width="592"/>
  <unicode hex="0124"/>
  <outline>
    <contour>
      <point x="419" y="883" type="line"/>
      <point x="341" y="883" type="line"/>
      <point x="236" y="748" type="line"/>
      <point x="319" y="748" type="line"/>
      <point x="375" y="827" type="line"/>
      <point x="408" y="748" type="line"/>
      <point x="485" y="748" type="line"/>
    </contour>
    <contour>
      <point x="583" y="686" type="line"/>
      <point x="495" y="686" type="line"/>
      <point x="453" y="391" type="line"/>
      <point x="177" y="391" type="line"/>
      <point x="219" y="686" type="line"/>
      <point x="131" y="686" type="line"/>
      <point x="34" y="0" type="line"/>
      <point x="122" y="0" type="line"/>
      <point x="166" y="311" type="line"/>
      <point x="442" y="311" type="line"/>
      <point x="398" y="0" type="line"/>
      <point x="486" y="0" type="line"/>
    </contour>
  </outline>
</glyph>
<glyph name="hcircumflex" format="1">
  <advance width="456"/>
  <unicode hex="0125"/>
  <outline>
    <contour>
      <point x="205" y="723" type="line"/>
      <point x="123" y="723" type="line"/>
      <point x="22" y="0" type="line"/>
      <point x="103" y="0" type="line"/>
      <point x="144" y="294" type="line" smooth="yes"/>
      <point x="158" y="395"/>
      <point x="202" y="465"/>
      <point x="269" y="465" type="curve" smooth="yes"/>
      <point x="308" y="465"/>
      <point x="329" y="446"/>
      <point x="329" y="401" type="curve" smooth="yes"/>
      <point x="329" y="369"/>
      <point x="275" y="0"/>
      <point x="275" y="0" type="curve"/>
      <point x="357" y="0" type="line"/>
      <point x="357" y="0"/>
      <point x="413" y="388"/>
      <point x="413" y="420" type="curve" smooth="yes"/>
      <point x="413" y="480"/>
      <point x="386" y="538"/>
      <point x="299" y="538" type="curve" smooth="yes"/>
      <point x="229" y="538"/>
      <point x="189" y="496"/>
      <point x="169" y="465" type="curve"/>
    </contour>
    <contour>
      <point x="222" y="883" type="line"/>
      <point x="144" y="883" type="line"/>
      <point x="39" y="748" type="line"/>
      <point x="122" y="748" type="line"/>
      <point x="178" y="827" type="line"/>
      <point x="210" y="748" type="line"/>
      <point x="288" y="748" type="line"/>
    </contour>
  </outline>
</glyph>
<glyph name="Hbar" format="1">
  <advance width="592"/>
  <unicode hex="0126"/>
  <outline>
    <contour>
      <point x="608" y="490" type="line"/>
      <point x="619" y="562" type="line"/>
      <point x="565" y="562" type="line"/>
      <point x="583" y="686" type="line"/>
      <point x="495" y="686" type="line"/>
      <point x="478" y="562" type="line"/>
      <point x="202" y="562" type="line"/>
      <point x="219" y="686" type="line"/>
      <point x="131" y="686" type="line"/>
      <point x="113" y="562" type="line"/>
      <point x="57" y="562" type="line"/>
      <point x="46" y="490" type="line"/>
      <point x="103" y="490" type="line"/>
      <point x="34" y="0" type="line"/>
      <point x="122" y="0" type="line"/>
      <point x="166" y="306" type="line"/>
      <point x="441" y="306" type="line"/>
      <point x="398" y="0" type="line"/>
      <point x="486" y="0" type="line"/>
      <point x="555" y="490" type="line"/>
    </contour>
    <contour>
      <point x="468" y="490" type="line"/>
      <point x="454" y="386" type="line"/>
      <point x="178" y="386" type="line"/>
      <point x="192" y="490" type="line"/>
    </contour>
  </outline>
</glyph>
